<?xml version="1.0" encoding="UTF-8" standalone="no"?>
<svg
   xmlns:dc="http://purl.org/dc/elements/1.1/"
   xmlns:cc="http://creativecommons.org/ns#"
   xmlns:rdf="http://www.w3.org/1999/02/22-rdf-syntax-ns#"
   xmlns:svg="http://www.w3.org/2000/svg"
   xmlns="http://www.w3.org/2000/svg"
   viewBox="0 0 803.0073 436.22119"
   id="svg4714"
   height="57.708427mm"
   width="106.23117mm"
   version="1.0">
  <metadata
     id="metadata4718">
    <rdf:RDF>
      <cc:Work
         rdf:about="">
        <dc:format>image/svg+xml</dc:format>
        <dc:type
           rdf:resource="http://purl.org/dc/dcmitype/StillImage" />
        <dc:title></dc:title>
      </cc:Work>
    </rdf:RDF>
  </metadata>
  <defs
     id="defs4522">
    <clipPath
       id="clipEmfPath1"
       clipPathUnits="userSpaceOnUse">
      <path
         id="path4518"
         d="M 9.7469115,8.1490571 H 816.82314 V 453.31128 H 9.7469115 Z" />
    </clipPath>
    <pattern
       y="0"
       x="0"
       height="6"
       width="6"
       patternUnits="userSpaceOnUse"
       id="EMFhbasepattern" />
  </defs>
  <text
     id="text4528"
     y="395.20065"
     x="221.39212"
     style="font-style:normal;font-variant:normal;font-weight:700;font-size:23.9375px;line-height:125%;font-family:Lato;text-align:start;letter-spacing:0px;word-spacing:0px;text-anchor:start;fill:#000000;fill-opacity:1;stroke:none"
     xml:space="preserve"><tspan
       id="tspan4526"
       y="395.20065"
       x="221.39212"><tspan
         id="tspan4524"
         style="font-style:normal;font-variant:normal;font-weight:700;font-size:23.9375px;font-family:Lato;fill:#000000"
         dy="0"
         dx="0">Vehicle</tspan></tspan></text>
  <text
     id="text4534"
     y="423.96204"
     x="246.63823"
     style="font-style:normal;font-variant:normal;font-weight:700;font-size:23.9375px;line-height:125%;font-family:Lato;text-align:start;letter-spacing:0px;word-spacing:0px;text-anchor:start;fill:#000000;fill-opacity:1;stroke:none"
     xml:space="preserve"><tspan
       id="tspan4532"
       y="423.96204"
       x="246.63823"><tspan
         id="tspan4530"
         style="font-style:normal;font-variant:normal;font-weight:700;font-size:23.9375px;font-family:Lato;fill:#000000"
         dy="0"
         dx="0">Fleet</tspan></tspan></text>
  <path
     id="path4536"
     d="m 322.21052,416.00831 5.67239,-22.68953 h 39.62678 l 5.67239,22.68953 z"
     style="fill:#ffffff;fill-opacity:1;fill-rule:evenodd;stroke:none" />
  <path
     id="path4538"
     d="m 322.21052,416.00831 5.67239,-22.68953 h 39.62678 l 5.67239,22.68953 z"
     style="fill:none;stroke:#000000;stroke-width:2.07721066px;stroke-linecap:butt;stroke-linejoin:miter;stroke-miterlimit:8;stroke-dasharray:none;stroke-opacity:1" />
  <path
     id="path4540"
     d="m 321.25181,411.33459 c 0,-1.73767 1.4181,-3.15576 3.15576,-3.15576 H 371.005 c 1.73767,0 3.13579,1.41809 3.13579,3.15576 v 12.56313 c 0,1.73767 -1.39812,3.13579 -3.13579,3.13579 h -46.59743 c -1.73766,0 -3.15576,-1.39812 -3.15576,-3.13579 z"
     style="fill:#000000;fill-opacity:1;fill-rule:evenodd;stroke:none" />
  <path
     id="path4542"
     d="m 321.25181,411.33459 c 0,-1.73767 1.4181,-3.15576 3.15576,-3.15576 H 371.005 c 1.73767,0 3.13579,1.41809 3.13579,3.15576 v 12.56313 c 0,1.73767 -1.39812,3.13579 -3.13579,3.13579 h -46.59743 c -1.73766,0 -3.15576,-1.39812 -3.15576,-3.13579 z"
     style="fill:none;stroke:#000000;stroke-width:2.07721066px;stroke-linecap:butt;stroke-linejoin:miter;stroke-miterlimit:8;stroke-dasharray:none;stroke-opacity:1" />
  <path
     id="path4544"
     d="m 325.00677,426.13472 c 0,-0.67909 0.57922,-1.25831 1.25831,-1.25831 h 5.01327 c 0.67909,0 1.23833,0.57922 1.23833,1.25831 v 8.84811 c 0,0.67909 -0.55924,1.23834 -1.23833,1.23834 h -5.01327 c -0.67909,0 -1.25831,-0.55925 -1.25831,-1.23834 z"
     style="fill:#000000;fill-opacity:1;fill-rule:evenodd;stroke:none" />
  <path
     id="path4546"
     d="m 362.71613,426.2945 c 0,-0.67909 0.57922,-1.25831 1.25831,-1.25831 h 5.01327 c 0.67909,0 1.23834,0.57922 1.23834,1.25831 v 8.68833 c 0,0.67909 -0.55925,1.23834 -1.23834,1.23834 h -5.01327 c -0.67909,0 -1.25831,-0.55925 -1.25831,-1.23834 z"
     style="fill:#000000;fill-opacity:1;fill-rule:evenodd;stroke:none" />
  <path
     id="path4548"
     d="m 325.00677,417.76595 c 0,-2.05723 1.69772,-3.75495 3.75496,-3.75495 2.07721,0 3.75495,1.69772 3.75495,3.75495 0,2.07722 -1.67774,3.75496 -3.75495,3.75496 -2.05724,0 -3.75496,-1.67774 -3.75496,-3.75496 z"
     style="fill:#ffffff;fill-opacity:1;fill-rule:evenodd;stroke:none" />
  <path
     id="path4550"
     d="m 362.71613,417.76595 c 0,-2.05723 1.69772,-3.75495 3.75496,-3.75495 2.07721,0 3.75496,1.69772 3.75496,3.75495 0,2.07722 -1.67775,3.75496 -3.75496,3.75496 -2.05724,0 -3.75496,-1.67774 -3.75496,-3.75496 z"
     style="fill:#ffffff;fill-opacity:1;fill-rule:evenodd;stroke:none" />
  <path
     id="path4552"
     d="m 378.29521,387.56651 5.67238,-22.68953 h 39.62679 l 5.67238,22.68953 z"
     style="fill:#ffffff;fill-opacity:1;fill-rule:evenodd;stroke:none" />
  <path
     id="path4554"
     d="m 378.29521,387.56651 5.67238,-22.68953 h 39.62679 l 5.67238,22.68953 z"
     style="fill:none;stroke:#000000;stroke-width:2.07721066px;stroke-linecap:butt;stroke-linejoin:miter;stroke-miterlimit:8;stroke-dasharray:none;stroke-opacity:1" />
  <path
     id="path4556"
     d="m 377.3365,382.77294 c 0,-1.75764 1.43807,-3.1957 3.19571,-3.1957 h 46.5375 c 1.75764,0 3.15577,1.43806 3.15577,3.1957 v 12.663 c 0,1.75764 -1.39813,3.15576 -3.15577,3.15576 h -46.5375 c -1.75764,0 -3.19571,-1.39812 -3.19571,-3.15576 z"
     style="fill:#000000;fill-opacity:1;fill-rule:evenodd;stroke:none" />
  <path
     id="path4558"
     d="m 377.3365,382.77294 c 0,-1.75764 1.43807,-3.1957 3.19571,-3.1957 h 46.5375 c 1.75764,0 3.15577,1.43806 3.15577,3.1957 v 12.663 c 0,1.75764 -1.39813,3.15576 -3.15577,3.15576 h -46.5375 c -1.75764,0 -3.19571,-1.39812 -3.19571,-3.15576 z"
     style="fill:none;stroke:#000000;stroke-width:2.07721066px;stroke-linecap:butt;stroke-linejoin:miter;stroke-miterlimit:8;stroke-dasharray:none;stroke-opacity:1" />
  <path
     id="path4560"
     d="m 381.09146,397.69291 c 0,-0.67909 0.57922,-1.25831 1.25831,-1.25831 h 5.01326 c 0.67909,0 1.23834,0.57922 1.23834,1.25831 v 8.84812 c 0,0.67909 -0.55925,1.23833 -1.23834,1.23833 h -5.01326 c -0.67909,0 -1.25831,-0.55924 -1.25831,-1.23833 z"
     style="fill:#000000;fill-opacity:1;fill-rule:evenodd;stroke:none" />
  <path
     id="path4562"
     d="m 418.80082,397.71288 c 0,-0.71903 0.55925,-1.27828 1.27828,-1.27828 h 4.9933 c 0.67909,0 1.23833,0.55925 1.23833,1.27828 v 8.82815 c 0,0.67909 -0.55924,1.23833 -1.23833,1.23833 h -4.9933 c -0.71903,0 -1.27828,-0.55924 -1.27828,-1.23833 z"
     style="fill:#000000;fill-opacity:1;fill-rule:evenodd;stroke:none" />
  <path
     id="path4564"
     d="m 381.09146,389.32415 c 0,-2.05724 1.69772,-3.75496 3.75495,-3.75496 2.07721,0 3.75496,1.69772 3.75496,3.75496 0,2.07721 -1.67775,3.75495 -3.75496,3.75495 -2.05723,0 -3.75495,-1.67774 -3.75495,-3.75495 z"
     style="fill:#ffffff;fill-opacity:1;fill-rule:evenodd;stroke:none" />
  <path
     id="path4566"
     d="m 418.80082,389.32415 c 0,-2.03727 1.71769,-3.75496 3.75496,-3.75496 2.07721,0 3.75495,1.71769 3.75495,3.75496 0,2.07721 -1.67774,3.75495 -3.75495,3.75495 -2.03727,0 -3.75496,-1.67774 -3.75496,-3.75495 z"
     style="fill:#ffffff;fill-opacity:1;fill-rule:evenodd;stroke:none" />
  <path
     id="path4568"
     d="m 434.06033,416.00831 5.67238,-22.68953 h 39.62679 l 5.67238,22.68953 z"
     style="fill:#ffffff;fill-opacity:1;fill-rule:evenodd;stroke:none" />
  <path
     id="path4570"
     d="m 434.06033,416.00831 5.67238,-22.68953 h 39.62679 l 5.67238,22.68953 z"
     style="fill:none;stroke:#000000;stroke-width:2.07721066px;stroke-linecap:butt;stroke-linejoin:miter;stroke-miterlimit:8;stroke-dasharray:none;stroke-opacity:1" />
  <path
     id="path4572"
     d="m 433.10162,411.33459 c 0,-1.71769 1.43806,-3.15576 3.15576,-3.15576 h 46.45761 c 1.7177,0 3.11582,1.43807 3.11582,3.15576 v 12.5831 c 0,1.7177 -1.39812,3.11582 -3.11582,3.11582 h -46.45761 c -1.7177,0 -3.15576,-1.39812 -3.15576,-3.11582 z"
     style="fill:#000000;fill-opacity:1;fill-rule:evenodd;stroke:none" />
  <path
     id="path4574"
     d="m 433.10162,411.33459 c 0,-1.71769 1.43806,-3.15576 3.15576,-3.15576 h 46.45761 c 1.7177,0 3.11582,1.43807 3.11582,3.15576 v 12.5831 c 0,1.7177 -1.39812,3.11582 -3.11582,3.11582 h -46.45761 c -1.7177,0 -3.15576,-1.39812 -3.15576,-3.11582 z"
     style="fill:none;stroke:#000000;stroke-width:2.07721066px;stroke-linecap:butt;stroke-linejoin:miter;stroke-miterlimit:8;stroke-dasharray:none;stroke-opacity:1" />
  <path
     id="path4576"
     d="m 436.69679,426.15469 c 0,-0.67909 0.59919,-1.27828 1.27828,-1.27828 h 5.11313 c 0.71904,0 1.27829,0.59919 1.27829,1.27828 v 8.7882 c 0,0.71903 -0.55925,1.27828 -1.27829,1.27828 h -5.11313 c -0.67909,0 -1.27828,-0.55925 -1.27828,-1.27828 z"
     style="fill:#000000;fill-opacity:1;fill-rule:evenodd;stroke:none" />
  <path
     id="path4578"
     d="m 474.56594,426.31448 c 0,-0.71904 0.55924,-1.27829 1.27828,-1.27829 h 4.99329 c 0.67909,0 1.23834,0.55925 1.23834,1.27829 v 8.66835 c 0,0.67909 -0.55925,1.23834 -1.23834,1.23834 h -4.99329 c -0.71904,0 -1.27828,-0.55925 -1.27828,-1.23834 z"
     style="fill:#000000;fill-opacity:1;fill-rule:evenodd;stroke:none" />
  <path
     id="path4580"
     d="m 436.69679,417.76595 c 0,-2.03726 1.71769,-3.75495 3.83485,-3.75495 2.11715,0 3.83485,1.71769 3.83485,3.75495 0,2.07722 -1.7177,3.75496 -3.83485,3.75496 -2.11716,0 -3.83485,-1.67774 -3.83485,-3.75496 z"
     style="fill:#ffffff;fill-opacity:1;fill-rule:evenodd;stroke:none" />
  <path
     id="path4582"
     d="m 474.56594,417.76595 c 0,-2.03726 1.71769,-3.75495 3.75495,-3.75495 2.07721,0 3.75496,1.71769 3.75496,3.75495 0,2.07722 -1.67775,3.75496 -3.75496,3.75496 -2.03726,0 -3.75495,-1.67774 -3.75495,-3.75496 z"
     style="fill:#ffffff;fill-opacity:1;fill-rule:evenodd;stroke:none" />
  <path
     id="path4584"
     d="m 426.94988,345.54294 v -30.11956 h -6.07185 v 30.11956 z m 6.07184,-27.08363 -9.10777,-18.21554 -9.10777,18.21554 z"
     style="fill:#000000;fill-opacity:1;fill-rule:nonzero;stroke:#000000;stroke-width:0.03994636px;stroke-linecap:butt;stroke-linejoin:round;stroke-miterlimit:10;stroke-dasharray:none;stroke-opacity:1" />
  <text
     id="text4590"
     y="318.14352"
     x="447.79526"
     style="font-style:normal;font-variant:normal;font-weight:700;font-size:21.25px;line-height:125%;font-family:Lato;text-align:start;letter-spacing:0px;word-spacing:0px;text-anchor:start;fill:#000000;fill-opacity:1;stroke:none"
     xml:space="preserve"><tspan
       id="tspan4588"
       y="318.14352"
       x="447.79526"><tspan
         id="tspan4586"
         style="font-style:normal;font-variant:normal;font-weight:700;font-size:21.25px;font-family:Lato;fill:#000000"
         dy="0"
         dx="0">Data</tspan></tspan></text>
  <text
     id="text4596"
     y="343.7092"
     x="447.79526"
     style="font-style:normal;font-variant:normal;font-weight:700;font-size:21.25px;line-height:125%;font-family:Lato;text-align:start;letter-spacing:0px;word-spacing:0px;text-anchor:start;fill:#000000;fill-opacity:1;stroke:none"
     xml:space="preserve"><tspan
       id="tspan4594"
       y="343.7092"
       x="447.79526"><tspan
         id="tspan4592"
         style="font-style:normal;font-variant:normal;font-weight:700;font-size:21.25px;font-family:Lato;fill:#7f7f7f"
         dy="0"
         dx="0">Position 5 sec</tspan></tspan></text>
  <path
     id="path4598"
     d="m 370.22605,300.24377 v 30.11955 h -6.07185 v -30.11955 z m 6.07184,27.08363 -9.10777,18.21554 -9.10777,-18.21554 z"
     style="fill:#000000;fill-opacity:1;fill-rule:nonzero;stroke:#000000;stroke-width:0.01997318px;stroke-linecap:butt;stroke-linejoin:round;stroke-miterlimit:4;stroke-dasharray:none;stroke-opacity:1" />
  <text
     id="text4604"
     y="318.14352"
     x="198.07904"
     style="font-style:normal;font-variant:normal;font-weight:700;font-size:21.25px;line-height:125%;font-family:Lato;text-align:start;letter-spacing:0px;word-spacing:0px;text-anchor:start;fill:#000000;fill-opacity:1;stroke:none"
     xml:space="preserve"><tspan
       id="tspan4602"
       y="318.14352"
       x="198.07904"><tspan
         id="tspan4600"
         style="font-style:normal;font-variant:normal;font-weight:700;font-size:21.25px;font-family:Lato;fill:#000000"
         dy="0"
         dx="0">Job Request</tspan></tspan></text>
  <text
     id="text4610"
     y="343.7092"
     x="198.07904"
     style="font-style:normal;font-variant:normal;font-weight:700;font-size:21.25px;line-height:125%;font-family:Lato;text-align:start;letter-spacing:0px;word-spacing:0px;text-anchor:start;fill:#000000;fill-opacity:1;stroke:none"
     xml:space="preserve"><tspan
       id="tspan4608"
       y="343.7092"
       x="198.07904"><tspan
         id="tspan4606"
         style="font-style:normal;font-variant:normal;font-weight:700;font-size:21.25px;font-family:Lato;fill:#7f7f7f"
         dy="0"
         dx="0">Position 5 sec</tspan></tspan></text>
  <path
     id="path4612"
     d="m 305.75262,215.43765 c -2.63646,-11.46461 10.94531,-21.9705 30.31929,-23.52841 7.82949,-0.63914 15.81876,0.27963 22.64959,2.67641 7.23029,-8.06917 24.16754,-11.14503 37.78925,-6.87077 2.39678,0.75898 4.59383,1.71769 6.51126,2.83619 5.63243,-6.67104 19.37398,-9.3874 30.6788,-6.07185 3.11582,0.91877 5.87212,2.27694 7.98927,3.91474 9.06783,-6.31152 25.12626,-7.11045 35.87183,-1.75764 4.51394,2.237 7.54986,5.35282 8.58847,8.7882 14.89999,2.39678 23.68819,11.50455 19.61366,20.29275 -0.31957,0.75898 -0.75898,1.47802 -1.27828,2.19705 11.94396,9.18767 9.02787,22.33002 -6.51126,29.40052 -4.87345,2.19705 -10.58578,3.63512 -16.61768,4.11448 -0.11984,9.90669 -13.82144,17.85602 -30.55897,17.77613 -5.59249,-0.0399 -11.06514,-0.95872 -15.81876,-2.71636 -5.67238,11.06515 -25.40588,17.33672 -44.10078,13.98123 -7.86943,-1.39812 -14.62036,-4.3941 -19.17425,-8.42868 -19.17425,6.83083 -44.02089,3.15576 -55.52544,-8.189 -0.15978,-0.11984 -0.27962,-0.27963 -0.43941,-0.43941 -12.54315,0.87882 -23.88792,-4.3941 -25.36593,-11.78418 -0.75898,-3.95469 1.43806,-7.86943 6.0319,-10.78552 -10.86541,-3.75496 -14.50053,-12.0638 -8.14906,-18.49516 3.67506,-3.71501 10.10643,-6.19169 17.29677,-6.6311 z"
     style="fill:#ffffff;fill-opacity:1;fill-rule:evenodd;stroke:none" />
  <path
     id="path4614"
     d="m 305.75262,215.43765 c -2.63646,-11.46461 10.94531,-21.9705 30.31929,-23.52841 7.82949,-0.63914 15.81876,0.27963 22.64959,2.67641 7.23029,-8.06917 24.16754,-11.14503 37.78925,-6.87077 2.39678,0.75898 4.59383,1.71769 6.51126,2.83619 5.63243,-6.67104 19.37398,-9.3874 30.6788,-6.07185 3.11582,0.91877 5.87212,2.27694 7.98927,3.91474 9.06783,-6.31152 25.12626,-7.11045 35.87183,-1.75764 4.51394,2.237 7.54986,5.35282 8.58847,8.7882 14.89999,2.39678 23.68819,11.50455 19.61366,20.29275 -0.31957,0.75898 -0.75898,1.47802 -1.27828,2.19705 11.94396,9.18767 9.02787,22.33002 -6.51126,29.40052 -4.87345,2.19705 -10.58578,3.63512 -16.61768,4.11448 -0.11984,9.90669 -13.82144,17.85602 -30.55897,17.77613 -5.59249,-0.0399 -11.06514,-0.95872 -15.81876,-2.71636 -5.67238,11.06515 -25.40588,17.33672 -44.10078,13.98123 -7.86943,-1.39812 -14.62036,-4.3941 -19.17425,-8.42868 -19.17425,6.83083 -44.02089,3.15576 -55.52544,-8.189 -0.15978,-0.11984 -0.27962,-0.27963 -0.43941,-0.43941 -12.54315,0.87882 -23.88792,-4.3941 -25.36593,-11.78418 -0.75898,-3.95469 1.43806,-7.86943 6.0319,-10.78552 -10.86541,-3.75496 -14.50053,-12.0638 -8.14906,-18.49516 3.67506,-3.71501 10.10643,-6.19169 17.29677,-6.6311 z"
     style="fill:none;stroke:#000000;stroke-width:2.07721066px;stroke-linecap:butt;stroke-linejoin:miter;stroke-miterlimit:8;stroke-dasharray:none;stroke-opacity:1" />
  <path
     id="path4616"
     d="m 309.90705,242.2816 c -4.63378,0.19973 -9.26756,-0.39946 -13.2622,-1.79758 m 24.96648,21.65092 c -1.83753,0.43941 -3.79491,0.71904 -5.79222,0.83888 m 55.84501,8.66835 c -1.39813,-1.23833 -2.55657,-2.55656 -3.47534,-3.95468 m 68.22838,-5.91207 c -0.19973,1.47802 -0.67909,2.95603 -1.39812,4.35416 m 29.16084,-31.15816 c 10.50589,2.99597 17.13699,9.3075 17.0571,16.21822 m 23.16888,-33.515 c -1.71769,2.35684 -4.3142,4.43405 -7.5898,6.07185 m -10.62573,-28.68148 c 0.27962,0.95871 0.39946,1.91742 0.39946,2.87613 m -48.8544,-6.19168 c 0.95872,-1.35818 2.27695,-2.59652 3.8748,-3.67507 m -40.26593,5.39276 c 0.43941,-1.07855 1.03861,-2.1571 1.91743,-3.15576 m -44.58014,4.23431 c 2.47667,0.87882 4.75362,1.87748 6.83083,3.07587 m -58.56137,21.05173 c -0.55924,-1.07855 -0.95871,-2.1571 -1.19839,-3.23565"
     style="fill:none;stroke:#000000;stroke-width:2.07721066px;stroke-linecap:butt;stroke-linejoin:miter;stroke-miterlimit:8;stroke-dasharray:none;stroke-opacity:1" />
  <path
     id="path4618"
     d="m 448.04155,232.49474 v 15.17962 h 37.70937 v -15.17962 z"
     style="fill:#ffffff;fill-opacity:1;fill-rule:evenodd;stroke:none" />
  <text
     id="text4624"
     y="240.93027"
     x="324.5314"
     style="font-style:normal;font-variant:normal;font-weight:700;font-size:23.9375px;line-height:125%;font-family:Arial;text-align:start;letter-spacing:0px;word-spacing:0px;text-anchor:start;fill:#000000;fill-opacity:1;stroke:none"
     xml:space="preserve"><tspan
       id="tspan4622"
       y="240.93027"
       x="324.5314"><tspan
         id="tspan4620"
         style="font-style:normal;font-variant:normal;font-weight:700;font-size:23.9375px;font-family:Arial;fill:#000000"
         dy="0"
         dx="0">Vehicle Cloud</tspan></tspan></text>
  <path
     id="path4626"
     d="m 580.42379,33.362152 c -2.63646,-11.384712 10.9453,-21.93055 30.31928,-23.4884584 7.82949,-0.599196 15.81876,0.3195704 22.64959,2.6764064 7.23029,-8.0292184 24.16754,-11.1050884 37.78925,-6.8308284 2.39678,0.758981 4.59383,1.717694 6.51126,2.836192 5.63243,-6.671042 19.37398,-9.38739475 30.6788,-6.071847 3.11582,0.918767 5.87212,2.236996 7.98927,3.914743 9.06783,-6.31152455 25.12626,-7.11045165 35.87183,-1.757639 4.51394,2.236996 7.54987,5.352812 8.58847,8.7482524 14.89999,2.396782 23.68819,11.504551 19.61366,20.29275 -0.31957,0.758981 -0.75898,1.478016 -1.27828,2.157104 11.94396,9.187662 9.02788,22.330014 -6.51126,29.360573 -4.87345,2.19705 -10.58578,3.635119 -16.61768,4.154421 -0.11984,9.866751 -13.82144,17.77613 -30.55897,17.696237 -5.59249,0 -11.06514,-0.958712 -15.81875,-2.716352 -5.67239,11.065139 -25.40589,17.336714 -44.10078,13.981229 -7.86944,-1.39813 -14.62037,-4.35416 -19.17426,-8.388739 -19.17425,6.790879 -44.02088,3.155759 -55.52544,-8.189003 -0.15978,-0.159786 -0.27962,-0.279625 -0.43941,-0.43941 -12.54315,0.87882 -23.88792,-4.3941 -25.36593,-11.784176 -0.75898,-3.914743 1.43807,-7.869433 6.0319,-10.745571 -10.86541,-3.754957 -14.50053,-12.023854 -8.14906,-18.495164 3.67507,-3.675065 10.10643,-6.151739 17.29677,-6.591149 z"
     style="fill:#ffffff;fill-opacity:1;fill-rule:evenodd;stroke:none" />
  <path
     transform="translate(-10.462748,-9.0209347)"
     id="path4628"
     d="m 590.88654,42.383086 c -2.63646,-11.384712 10.9453,-21.93055 30.31928,-23.488458 7.82949,-0.599196 15.81876,0.31957 22.64959,2.676406 7.23029,-8.029218 24.16754,-11.105088 37.78925,-6.830828 2.39678,0.758981 4.59383,1.717694 6.51126,2.836192 5.63243,-6.671042 19.37398,-9.3873945 30.6788,-6.071847 3.11582,0.918767 5.87212,2.236996 7.98927,3.914743 9.06783,-6.3115243 25.12626,-7.1104514 35.87183,-1.757639 4.51394,2.236996 7.54987,5.352812 8.58847,8.748252 14.89999,2.396782 23.68819,11.504551 19.61366,20.29275 -0.31957,0.758981 -0.75898,1.478016 -1.27828,2.157104 11.94396,9.187662 9.02788,22.330014 -6.51126,29.360573 -4.87345,2.19705 -10.58578,3.635119 -16.61768,4.154421 -0.11984,9.866751 -13.82144,17.77613 -30.55897,17.696237 -5.59249,0 -11.06514,-0.958712 -15.81875,-2.716352 -5.67239,11.06514 -25.40589,17.33672 -44.10078,13.98123 -7.86944,-1.39813 -14.62037,-4.35416 -19.17426,-8.38874 -19.17425,6.79088 -44.02088,3.15576 -55.52544,-8.189003 -0.15978,-0.159786 -0.27962,-0.279625 -0.43941,-0.43941 -12.54315,0.87882 -23.88792,-4.3941 -25.36593,-11.784176 -0.75898,-3.914743 1.43807,-7.869433 6.0319,-10.745571 -10.86541,-3.754957 -14.50053,-12.023854 -8.14906,-18.495164 3.67507,-3.675065 10.10643,-6.151739 17.29677,-6.591149 z"
     clip-path="url(#clipEmfPath1)"
     style="fill:none;stroke:#000000;stroke-width:2.07721066px;stroke-linecap:butt;stroke-linejoin:miter;stroke-miterlimit:8;stroke-dasharray:none;stroke-opacity:1" />
  <path
     transform="translate(-10.462748,-9.0209347)"
     id="path4630"
     d="m 595.04096,69.227039 c -4.63378,0.199732 -9.26756,-0.43941 -13.26219,-1.837532 m 24.96647,21.650926 c -1.83753,0.399464 -3.7949,0.719035 -5.79222,0.838874 m 55.84501,8.668359 c -1.39813,-1.238337 -2.55657,-2.556566 -3.47534,-3.954689 m 68.22838,-5.912061 c -0.19973,1.478015 -0.67908,2.916084 -1.39812,4.354153 m 29.16084,-31.15816 c 10.5059,3.035924 17.13699,9.347448 17.0571,16.218222 m 23.16889,-33.475049 c -1.7177,2.356836 -4.31421,4.434046 -7.58981,6.071847 M 771.32424,22.090336 c 0.27962,0.958713 0.39946,1.917425 0.39946,2.876138 m -48.8544,-6.231632 c 0.95872,-1.31823 2.27695,-2.556567 3.8748,-3.635118 m -40.26593,5.392758 c 0.43941,-1.118498 1.03861,-2.157103 1.91743,-3.155762 m -44.58014,4.234314 c 2.47667,0.838873 4.75362,1.877478 6.83083,3.035923 m -58.56136,21.011784 c -0.55925,-1.038605 -0.95872,-2.117157 -1.19839,-3.235655"
     clip-path="url(#clipEmfPath1)"
     style="fill:none;stroke:#000000;stroke-width:2.07721066px;stroke-linecap:butt;stroke-linejoin:miter;stroke-miterlimit:8;stroke-dasharray:none;stroke-opacity:1" />
  <path
     id="path4632"
     d="m 722.71271,50.49914 v 15.019831 h 37.86915 V 50.49914 Z"
     style="fill:#ffffff;fill-opacity:1;fill-rule:evenodd;stroke:none" />
  <path
     id="path4634"
     d="m 574.91119,53.854634 v 15.179617 h 37.70936 V 53.854634 Z"
     style="fill:#ffffff;fill-opacity:1;fill-rule:evenodd;stroke:none" />
  <text
     id="text4640"
     y="58.802212"
     x="588.98004"
     style="font-style:normal;font-variant:normal;font-weight:700;font-size:23.9375px;line-height:125%;font-family:Arial;text-align:start;letter-spacing:0px;word-spacing:0px;text-anchor:start;fill:#000000;fill-opacity:1;stroke:none"
     xml:space="preserve"><tspan
       id="tspan4638"
       y="58.802212"
       x="588.98004"><tspan
         id="tspan4636"
         style="font-style:normal;font-variant:normal;font-weight:700;font-size:23.9375px;font-family:Arial;fill:#000000"
         dy="0"
         dx="0">Service Cloud B</tspan></tspan></text>
  <path
     id="path4642"
     d="m 646.53501,112.17631 -69.46672,69.50667 -4.23431,-4.27426 69.46671,-69.46672 z m -63.11525,71.62382 -19.05441,6.35147 6.35147,-19.09436 z"
     style="fill:#000000;fill-opacity:1;fill-rule:nonzero;stroke:#000000;stroke-width:0.03994636px;stroke-linecap:butt;stroke-linejoin:round;stroke-miterlimit:4;stroke-dasharray:none;stroke-opacity:1" />
  <text
     id="text4648"
     y="123.46949"
     x="423.13666"
     style="font-style:normal;font-variant:normal;font-weight:700;font-size:21.25px;line-height:125%;font-family:Lato;text-align:start;letter-spacing:0px;word-spacing:0px;text-anchor:start;fill:#000000;fill-opacity:1;stroke:none"
     xml:space="preserve"><tspan
       id="tspan4646"
       y="123.46949"
       x="423.13666"><tspan
         id="tspan4644"
         style="font-style:normal;font-variant:normal;font-weight:700;font-size:21.25px;font-family:Lato;fill:#000000"
         dy="0"
         dx="0">Job Request B</tspan></tspan></text>
  <text
     id="text4654"
     y="149.03517"
     x="423.13666"
     style="font-style:normal;font-variant:normal;font-weight:700;font-size:21.25px;line-height:125%;font-family:Lato;text-align:start;letter-spacing:0px;word-spacing:0px;text-anchor:start;fill:#000000;fill-opacity:1;stroke:none"
     xml:space="preserve"><tspan
       id="tspan4652"
       y="149.03517"
       x="423.13666"><tspan
         id="tspan4650"
         style="font-style:normal;font-variant:normal;font-weight:700;font-size:21.25px;font-family:Lato;fill:#7f7f7f"
         dy="0"
         dx="0">Position 10 sec</tspan></tspan></text>
  <text
     id="text4660"
     y="186.815"
     x="18.18833"
     style="font-style:normal;font-variant:normal;font-weight:700;font-size:21.25px;line-height:125%;font-family:Lato;text-align:start;letter-spacing:0px;word-spacing:0px;text-anchor:start;fill:#000000;fill-opacity:1;stroke:none"
     xml:space="preserve"><tspan
       id="tspan4658"
       y="186.815"
       x="18.18833"><tspan
         id="tspan4656"
         style="font-style:normal;font-variant:normal;font-weight:700;font-size:21.25px;font-family:Lato;fill:#000000"
         dy="0"
         dx="0">Job Request A</tspan></tspan></text>
  <text
     id="text4666"
     y="212.38068"
     x="18.18833"
     style="font-style:normal;font-variant:normal;font-weight:700;font-size:21.25px;line-height:125%;font-family:Lato;text-align:start;letter-spacing:0px;word-spacing:0px;text-anchor:start;fill:#000000;fill-opacity:1;stroke:none"
     xml:space="preserve"><tspan
       id="tspan4664"
       y="212.38068"
       x="18.18833"><tspan
         id="tspan4662"
         style="font-style:normal;font-variant:normal;font-weight:700;font-size:21.25px;font-family:Lato;fill:#7f7f7f"
         dy="0"
         dx="0">Position 5 sec</tspan></tspan></text>
  <path
     transform="translate(-10.462748,-9.0209347)"
     id="path4668"
     d="m 32.116872,42.383086 c -2.636459,-11.404685 10.925329,-21.93055 30.299313,-23.488458 7.84946,-0.619169 15.818758,0.31957 22.669559,2.676406 7.230291,-8.049192 24.147576,-11.105088 37.789256,-6.830828 2.37681,0.739008 4.57386,1.697721 6.49128,2.816219 5.63244,-6.671042 19.37399,-9.3873947 30.67881,-6.051874 3.13578,0.918767 5.87211,2.236996 7.98927,3.89477 9.08779,-6.3115244 25.14623,-7.0904784 35.87183,-1.75764 4.51394,2.25697 7.54986,5.352812 8.58846,8.768226 14.9,2.396782 23.68819,11.484578 19.63364,20.29275 -0.33954,0.739008 -0.75898,1.458042 -1.27828,2.157104 11.94396,9.167689 9.02787,22.330014 -6.53123,29.360573 -4.83351,2.19705 -10.56582,3.615146 -16.59772,4.134448 -0.13981,9.866751 -13.82144,17.796103 -30.57893,17.71621 -5.59249,-0.01997 -11.06514,-0.958712 -15.79879,-2.716352 -5.67238,11.06514 -25.42586,17.31675 -44.12075,13.96125 -7.84946,-1.39812 -14.62037,-4.35415 -19.174253,-8.388733 C 78.894058,105.73801 54.047423,102.08292 42.522899,90.738153 42.383086,90.598341 42.243274,90.458529 42.103462,90.318717 29.560305,91.177563 18.215539,85.904644 16.737524,78.534541 15.95857,74.599825 18.15562,70.665108 22.749451,67.768997 11.904015,64.01404 8.248923,55.745143 14.600394,49.293806 18.275459,45.598768 24.706823,43.142067 31.91714,42.702657 Z"
     clip-path="url(#clipEmfPath1)"
     style="fill:#ffffff;fill-opacity:1;fill-rule:evenodd;stroke:none" />
  <path
     transform="translate(-10.462748,-9.0209347)"
     id="path4670"
     d="m 32.116872,42.383086 c -2.636459,-11.404685 10.925329,-21.93055 30.299313,-23.488458 7.84946,-0.619169 15.818758,0.31957 22.669559,2.676406 7.230291,-8.049192 24.147576,-11.105088 37.789256,-6.830828 2.37681,0.739008 4.57386,1.697721 6.49128,2.816219 5.63244,-6.671042 19.37399,-9.3873947 30.67881,-6.051874 3.13578,0.918767 5.87211,2.236996 7.98927,3.89477 9.08779,-6.3115244 25.14623,-7.0904784 35.87183,-1.75764 4.51394,2.25697 7.54986,5.352812 8.58846,8.768226 14.9,2.396782 23.68819,11.484578 19.63364,20.29275 -0.33954,0.739008 -0.75898,1.458042 -1.27828,2.157104 11.94396,9.167689 9.02787,22.330014 -6.53123,29.360573 -4.83351,2.19705 -10.56582,3.615146 -16.59772,4.134448 -0.13981,9.866751 -13.82144,17.796103 -30.57893,17.71621 -5.59249,-0.01997 -11.06514,-0.958712 -15.79879,-2.716352 -5.67238,11.06514 -25.42586,17.31675 -44.12075,13.96125 -7.84946,-1.39812 -14.62037,-4.35415 -19.174253,-8.388733 C 78.894058,105.73801 54.047423,102.08292 42.522899,90.738153 42.383086,90.598341 42.243274,90.458529 42.103462,90.318717 29.560305,91.177563 18.215539,85.904644 16.737524,78.534541 15.95857,74.599825 18.15562,70.665108 22.749451,67.768997 11.904015,64.01404 8.248923,55.745143 14.600394,49.293806 18.275459,45.598768 24.706823,43.142067 31.91714,42.702657 Z"
     clip-path="url(#clipEmfPath1)"
     style="fill:none;stroke:#000000;stroke-width:2.07721066px;stroke-linecap:butt;stroke-linejoin:miter;stroke-miterlimit:8;stroke-dasharray:none;stroke-opacity:1" />
  <path
     transform="translate(-10.462748,-9.0209347)"
     id="path4672"
     d="M 36.271294,69.207066 C 31.637516,69.426771 27.003738,68.787629 22.989129,67.389507 M 47.975577,89.02046 c -1.857506,0.43941 -3.814878,0.719034 -5.792222,0.858847 m 55.845009,8.648386 c -1.398123,-1.238337 -2.556567,-2.556567 -3.495307,-3.954689 m 68.228383,-5.892088 c -0.19973,1.458042 -0.67909,2.916084 -1.39812,4.33418 m 29.18081,-31.138187 c 10.50589,3.01595 17.13699,9.327475 17.03712,16.218222 m 23.16889,-33.475049 c -1.71769,2.356836 -4.31421,4.434046 -7.58981,6.09182 M 212.5346,22.070363 c 0.27963,0.958713 0.41944,1.917425 0.39946,2.876138 m -48.85439,-6.211659 c 0.97868,-1.31823 2.29691,-2.556567 3.87479,-3.655092 m -40.24595,5.392759 c 0.41943,-1.098525 1.0386,-2.157104 1.89745,-3.155763 M 85.045797,21.55106 c 2.476675,0.858847 4.77359,1.877479 6.810854,3.055897 M 33.29529,45.618741 c -0.539276,-1.058578 -0.93874,-2.13713 -1.178418,-3.235655"
     clip-path="url(#clipEmfPath1)"
     style="fill:none;stroke:#000000;stroke-width:2.07721066px;stroke-linecap:butt;stroke-linejoin:miter;stroke-miterlimit:8;stroke-dasharray:none;stroke-opacity:1" />
  <path
     id="path4674"
     d="M 164.10284,50.49914 V 65.518971 H 201.8122 V 50.49914 Z"
     style="fill:#ffffff;fill-opacity:1;fill-rule:evenodd;stroke:none" />
  <path
     id="path4676"
     d="M 16.141527,53.854634 V 69.034251 H 53.850889 V 53.854634 Z"
     style="fill:#ffffff;fill-opacity:1;fill-rule:evenodd;stroke:none" />
  <text
     id="text4682"
     y="58.802212"
     x="29.915415"
     style="font-style:normal;font-variant:normal;font-weight:700;font-size:23.9375px;line-height:125%;font-family:Arial;text-align:start;letter-spacing:0px;word-spacing:0px;text-anchor:start;fill:#000000;fill-opacity:1;stroke:none"
     xml:space="preserve"><tspan
       id="tspan4680"
       y="58.802212"
       x="29.915415"><tspan
         id="tspan4678"
         style="font-style:normal;font-variant:normal;font-weight:700;font-size:23.9375px;font-family:Arial;fill:#000000"
         dy="0"
         dx="0">Service Cloud A</tspan></tspan></text>
  <path
     id="path4684"
     d="m 158.69011,127.45579 69.46671,69.46672 -4.23431,4.23432 -69.46672,-69.46672 z m 71.58387,63.11525 6.35147,19.07439 -19.05441,-6.37145 z"
     style="fill:#000000;fill-opacity:1;fill-rule:nonzero;stroke:#000000;stroke-width:0.01997318px;stroke-linecap:butt;stroke-linejoin:round;stroke-miterlimit:4;stroke-dasharray:none;stroke-opacity:1" />
  <path
     id="path4686"
     d="m 585.97633,211.76258 69.46672,-69.46671 -4.23432,-4.23432 -69.46671,69.46672 z m 71.58387,-63.11524 6.39142,-19.05442 -19.09436,6.35148 z"
     style="fill:#000000;fill-opacity:1;fill-rule:nonzero;stroke:#000000;stroke-width:0.03994636px;stroke-linecap:butt;stroke-linejoin:round;stroke-miterlimit:4;stroke-dasharray:none;stroke-opacity:1" />
  <text
     id="text4692"
     y="186.815"
     x="648.74762"
     style="font-style:normal;font-variant:normal;font-weight:700;font-size:21.25px;line-height:125%;font-family:Arial;text-align:start;letter-spacing:0px;word-spacing:0px;text-anchor:start;fill:#000000;fill-opacity:1;stroke:none"
     xml:space="preserve"><tspan
       id="tspan4690"
       y="186.815"
       x="648.74762"><tspan
         id="tspan4688"
         style="font-style:normal;font-variant:normal;font-weight:700;font-size:21.25px;font-family:Arial;fill:#000000"
         dy="0"
         dx="0">Data B</tspan></tspan></text>
  <text
     id="text4698"
     y="212.38068"
     x="648.74762"
     style="font-style:normal;font-variant:normal;font-weight:700;font-size:21.25px;line-height:125%;font-family:Arial;text-align:start;letter-spacing:0px;word-spacing:0px;text-anchor:start;fill:#000000;fill-opacity:1;stroke:none"
     xml:space="preserve"><tspan
       id="tspan4696"
       y="212.38068"
       x="648.74762"><tspan
         id="tspan4694"
         style="font-style:normal;font-variant:normal;font-weight:700;font-size:21.25px;font-family:Arial;fill:#7f7f7f"
         dy="0"
         dx="0">Position 10 sec</tspan></tspan></text>
  <text
     id="text4704"
     y="123.46949"
     x="239.55783"
     style="font-style:normal;font-variant:normal;font-weight:700;font-size:21.25px;line-height:125%;font-family:Arial;text-align:start;letter-spacing:0px;word-spacing:0px;text-anchor:start;fill:#000000;fill-opacity:1;stroke:none"
     xml:space="preserve"><tspan
       id="tspan4702"
       y="123.46949"
       x="239.55783"><tspan
         id="tspan4700"
         style="font-style:normal;font-variant:normal;font-weight:700;font-size:21.25px;font-family:Arial;fill:#000000"
         dy="0"
         dx="0">Data A</tspan></tspan></text>
  <text
     id="text4710"
     y="149.03517"
     x="239.55783"
     style="font-style:normal;font-variant:normal;font-weight:700;font-size:21.25px;line-height:125%;font-family:Arial;text-align:start;letter-spacing:0px;word-spacing:0px;text-anchor:start;fill:#000000;fill-opacity:1;stroke:none"
     xml:space="preserve"><tspan
       id="tspan4708"
       y="149.03517"
       x="239.55783"><tspan
         id="tspan4706"
         style="font-style:normal;font-variant:normal;font-weight:700;font-size:21.25px;font-family:Arial;fill:#7f7f7f"
         dy="0"
         dx="0">Position 5 sec</tspan></tspan></text>
  <path
     id="path4712"
     d="m 258.2564,188.01447 -69.46671,-69.48669 -4.23432,4.23432 69.46672,69.48669 z m -63.11524,-71.60384 -19.07439,-6.35148 6.37145,19.07439 z"
     style="fill:#000000;fill-opacity:1;fill-rule:nonzero;stroke:#000000;stroke-width:0.01997318px;stroke-linecap:butt;stroke-linejoin:round;stroke-miterlimit:4;stroke-dasharray:none;stroke-opacity:1" />
</svg>
