<?xml version="1.0" encoding="UTF-8" standalone="no"?>
<svg
   xmlns:dc="http://purl.org/dc/elements/1.1/"
   xmlns:cc="http://creativecommons.org/ns#"
   xmlns:rdf="http://www.w3.org/1999/02/22-rdf-syntax-ns#"
   xmlns:svg="http://www.w3.org/2000/svg"
   xmlns="http://www.w3.org/2000/svg"
   viewBox="0 0 908.06064 509.6864"
   id="svg1650"
   height="254.84322"
   width="454.0303"
   version="1.0">
  <metadata
     id="metadata1654">
    <rdf:RDF>
      <cc:Work
         rdf:about="">
        <dc:format>image/svg+xml</dc:format>
        <dc:type
           rdf:resource="http://purl.org/dc/dcmitype/StillImage" />
        <dc:title></dc:title>
      </cc:Work>
    </rdf:RDF>
  </metadata>
  <defs
     id="defs1490">
    <clipPath
       id="clipEmfPath1"
       clipPathUnits="userSpaceOnUse">
      <path
         id="path1486"
         d="M 6.7109882,1.2782835 H 915.89011 V 533.36378 H 6.7109882 Z" />
    </clipPath>
    <pattern
       y="0"
       x="0"
       height="6"
       width="6"
       patternUnits="userSpaceOnUse"
       id="EMFhbasepattern" />
  </defs>
  <path
     id="path1492"
     d="m 438.7708,15.738866 c 0,-8.3288164 6.77091,-15.09972426 15.09972,-15.09972426 8.34879,0 15.09973,6.77090786 15.09973,15.09972426 0,8.348789 -6.75094,15.099723 -15.09973,15.099723 -8.32881,0 -15.09972,-6.750934 -15.09972,-15.099723 z"
     style="fill:#000000;fill-opacity:1;fill-rule:evenodd;stroke:none" />
  <path
     id="path1494"
     d="m 438.7708,15.738866 c 0,-8.3288164 6.77091,-15.09972426 15.09972,-15.09972426 8.34879,0 15.09973,6.77090786 15.09973,15.09972426 0,8.348789 -6.75094,15.099723 -15.09973,15.099723 -8.32881,0 -15.09972,-6.750934 -15.09972,-15.099723"
     style="fill:none;stroke:#000000;stroke-width:1.27828348px;stroke-linecap:butt;stroke-linejoin:miter;stroke-miterlimit:8;stroke-dasharray:none;stroke-opacity:1" />
  <path
     id="path1496"
     d="m 438.7708,468.73057 c 0,-8.32882 6.77091,-15.09972 15.09972,-15.09972 8.34879,0 15.09973,6.7709 15.09973,15.09972 0,8.34879 -6.75094,15.09972 -15.09973,15.09972 -8.32881,0 -15.09972,-6.75093 -15.09972,-15.09972 z"
     style="fill:#000000;fill-opacity:1;fill-rule:evenodd;stroke:none" />
  <path
     id="path1498"
     d="m 438.7708,468.73057 c 0,-8.32882 6.77091,-15.09972 15.09972,-15.09972 8.34879,0 15.09973,6.7709 15.09973,15.09972 0,8.34879 -6.75094,15.09972 -15.09973,15.09972 -8.32881,0 -15.09972,-6.75093 -15.09972,-15.09972"
     style="fill:none;stroke:#000000;stroke-width:1.27828348px;stroke-linecap:butt;stroke-linejoin:miter;stroke-miterlimit:8;stroke-dasharray:none;stroke-opacity:1" />
  <path
     id="path1500"
     d="m 431.34078,468.73057 c 0,-12.52318 10.16634,-22.68953 22.68953,-22.68953 12.54315,0 22.68953,10.16635 22.68953,22.68953 0,12.54316 -10.14638,22.68953 -22.68953,22.68953 -12.52319,0 -22.68953,-10.14637 -22.68953,-22.68953"
     style="fill:none;stroke:#000000;stroke-width:2.07721066px;stroke-linecap:butt;stroke-linejoin:miter;stroke-miterlimit:8;stroke-dasharray:none;stroke-opacity:1" />
  <path
     id="path1502"
     d="m 435.17563,121.51682 18.85468,-22.689528 18.85468,22.689528 -18.85468,22.68953 z"
     style="fill:#ffffff;fill-opacity:1;fill-rule:evenodd;stroke:none" />
  <path
     id="path1504"
     d="m 435.17563,121.51682 18.85468,-22.689528 18.85468,22.689528 -18.85468,22.68953 z"
     style="fill:none;stroke:#000000;stroke-width:2.07721066px;stroke-linecap:butt;stroke-linejoin:miter;stroke-miterlimit:8;stroke-dasharray:none;stroke-opacity:1" />
  <text
     id="text1510"
     y="23.94276"
     x="486.2428"
     style="font-style:normal;font-variant:normal;font-weight:400;font-size:21.25px;line-height:125%;font-family:Lato;text-align:start;letter-spacing:0px;word-spacing:0px;text-anchor:start;fill:#000000;fill-opacity:1;stroke:none"
     xml:space="preserve"><tspan
       id="tspan1508"
       y="23.94276"
       x="486.2428"><tspan
         id="tspan1506"
         style="font-style:normal;font-variant:normal;font-weight:400;font-size:21.25px;font-family:Lato;fill:#000000"
         dy="0"
         dx="0">C</tspan></tspan></text>
  <text
     id="text1516"
     y="23.94276"
     x="500.46371"
     style="font-style:normal;font-variant:normal;font-weight:400;font-size:21.25px;line-height:125%;font-family:Lato;text-align:start;letter-spacing:0px;word-spacing:0px;text-anchor:start;fill:#000000;fill-opacity:1;stroke:none"
     xml:space="preserve"><tspan
       id="tspan1514"
       y="23.94276"
       x="500.46371"><tspan
         id="tspan1512"
         style="font-style:normal;font-variant:normal;font-weight:400;font-size:21.25px;font-family:Lato;fill:#000000"
         dy="0"
         dx="0">reation</tspan></tspan></text>
  <path
     id="path1518"
     d="m 1.0386053,261.14932 c 0,-6.25161 5.0731874,-11.3248 11.3247927,-11.3248 H 140.73102 c 6.2516,0 11.30482,5.07319 11.30482,11.3248 v 45.27919 c 0,6.25161 -5.05322,11.30482 -11.30482,11.30482 H 12.363398 c -6.2516053,0 -11.3247927,-5.05321 -11.3247927,-11.30482 z"
     style="fill:#ffffff;fill-opacity:1;fill-rule:evenodd;stroke:none" />
  <path
     transform="translate(-7.2702373,-5.8321684)"
     id="path1520"
     d="m 8.3088426,266.98149 c 0,-6.25161 5.0731874,-11.3248 11.3247924,-11.3248 H 148.00126 c 6.2516,0 11.30482,5.07319 11.30482,11.3248 v 45.27919 c 0,6.25161 -5.05322,11.30482 -11.30482,11.30482 H 19.633635 c -6.251605,0 -11.3247924,-5.05321 -11.3247924,-11.30482 z"
     clip-path="url(#clipEmfPath1)"
     style="fill:none;stroke:#000000;stroke-width:2.07721066px;stroke-linecap:butt;stroke-linejoin:miter;stroke-miterlimit:8;stroke-dasharray:none;stroke-opacity:1" />
  <text
     id="text1526"
     y="292.10101"
     x="39.709145"
     style="font-style:normal;font-variant:normal;font-weight:400;font-size:21.25px;line-height:125%;font-family:Lato;text-align:start;letter-spacing:0px;word-spacing:0px;text-anchor:start;fill:#000000;fill-opacity:1;stroke:none"
     xml:space="preserve"><tspan
       id="tspan1524"
       y="292.10101"
       x="39.709145"><tspan
         id="tspan1522"
         style="font-style:normal;font-variant:normal;font-weight:400;font-size:21.25px;font-family:Lato;fill:#000000"
         dy="0"
         dx="0">Inactive</tspan></tspan></text>
  <path
     id="path1528"
     d="M 455.06891,30.918482 V 92.216169 H 452.9917 V 30.918482 Z m 2.95603,59.959484 -3.99463,7.989276 -3.99464,-7.989276 z"
     style="fill:#000000;fill-opacity:1;fill-rule:nonzero;stroke:#000000;stroke-width:0.01997318px;stroke-linecap:butt;stroke-linejoin:round;stroke-miterlimit:4;stroke-dasharray:none;stroke-opacity:1" />
  <text
     id="text1534"
     y="102.08214"
     x="86.150146"
     style="font-style:normal;font-variant:normal;font-weight:400;font-size:21.25px;line-height:125%;font-family:Lato;text-align:start;letter-spacing:0px;word-spacing:0px;text-anchor:start;fill:#000000;fill-opacity:1;stroke:none"
     xml:space="preserve"><tspan
       id="tspan1532"
       y="102.08214"
       x="86.150146"><tspan
         id="tspan1530"
         style="font-style:normal;font-variant:normal;font-weight:400;font-size:21.25px;font-family:Lato;fill:#000000"
         dy="0"
         dx="0">Job valid</tspan></tspan></text>
  <path
     id="path1536"
     d="M 435.1956,120.47822 H 75.578511 v 122.71521 h 2.07721 V 121.51682 l -1.038605,1.03861 H 435.1956 Z M 72.62248,241.8752 l 3.994636,7.98927 3.994636,-7.98927 z"
     style="fill:#000000;fill-opacity:1;fill-rule:nonzero;stroke:#000000;stroke-width:0.01997318px;stroke-linecap:butt;stroke-linejoin:round;stroke-miterlimit:4;stroke-dasharray:none;stroke-opacity:1" />
  <path
     id="path1538"
     d="m 378.4518,261.14932 c 0,-6.25161 5.07319,-11.3248 11.32479,-11.3248 h 128.36762 c 6.25161,0 11.30482,5.07319 11.30482,11.3248 v 45.27919 c 0,6.25161 -5.05321,11.30482 -11.30482,11.30482 H 389.77659 c -6.2516,0 -11.32479,-5.05321 -11.32479,-11.30482 z"
     style="fill:#ffffff;fill-opacity:1;fill-rule:evenodd;stroke:none" />
  <path
     id="path1540"
     d="m 378.4518,261.14932 c 0,-6.25161 5.07319,-11.3248 11.32479,-11.3248 h 128.36762 c 6.25161,0 11.30482,5.07319 11.30482,11.3248 v 45.27919 c 0,6.25161 -5.05321,11.30482 -11.30482,11.30482 H 389.77659 c -6.2516,0 -11.32479,-5.05321 -11.32479,-11.30482 z"
     style="fill:none;stroke:#000000;stroke-width:2.07721066px;stroke-linecap:butt;stroke-linejoin:miter;stroke-miterlimit:8;stroke-dasharray:none;stroke-opacity:1" />
  <text
     id="text1546"
     y="292.10101"
     x="424.18561"
     style="font-style:normal;font-variant:normal;font-weight:400;font-size:21.25px;line-height:125%;font-family:Lato;text-align:start;letter-spacing:0px;word-spacing:0px;text-anchor:start;fill:#000000;fill-opacity:1;stroke:none"
     xml:space="preserve"><tspan
       id="tspan1544"
       y="292.10101"
       x="424.18561"><tspan
         id="tspan1542"
         style="font-style:normal;font-variant:normal;font-weight:400;font-size:21.25px;font-family:Lato;fill:#000000"
         dy="0"
         dx="0">Active</tspan></tspan></text>
  <path
     id="path1548"
     d="m 246.46903,283.77893 18.85468,-22.60964 18.85468,22.60964 -18.85468,22.60964 z"
     style="fill:#ffffff;fill-opacity:1;fill-rule:evenodd;stroke:none" />
  <path
     id="path1550"
     d="m 246.46903,283.77893 18.85468,-22.60964 18.85468,22.60964 -18.85468,22.60964 z"
     style="fill:none;stroke:#000000;stroke-width:2.07721066px;stroke-linecap:butt;stroke-linejoin:miter;stroke-miterlimit:8;stroke-dasharray:none;stroke-opacity:1" />
  <path
     id="path1552"
     d="m 152.03584,282.82022 h 48.23523 v 1.0386 l -1.03861,-1.0386 h 40.52558 v 2.07721 h -41.56418 v -1.03861 l 1.0386,1.03861 h -47.19662 z m 86.384,-2.95603 7.98927,3.99463 -7.98927,3.99464 z"
     style="fill:#000000;fill-opacity:1;fill-rule:nonzero;stroke:#000000;stroke-width:0.01997318px;stroke-linecap:butt;stroke-linejoin:round;stroke-miterlimit:10;stroke-dasharray:none;stroke-opacity:1" />
  <path
     id="path1554"
     d="m 284.17839,282.82022 h 48.23523 v 1.0386 l -1.03861,-1.0386 h 40.52559 v 2.07721 h -41.56419 v -1.03861 l 1.0386,1.03861 h -47.19662 z m 86.384,-2.95603 7.98927,3.99463 -7.98927,3.99464 z"
     style="fill:#000000;fill-opacity:1;fill-rule:nonzero;stroke:#000000;stroke-width:0.01997318px;stroke-linecap:butt;stroke-linejoin:round;stroke-miterlimit:10;stroke-dasharray:none;stroke-opacity:1" />
  <path
     id="path1556"
     d="m 453.01168,249.82452 v -23.96781 l 1.0386,1.0386 H 265.32371 l 1.03861,-1.0386 v 28.64154 h -2.07721 V 224.8181 h 190.80378 v 25.00642 z m -183.69333,3.33553 -3.99464,7.98927 -3.99464,-7.98927 z"
     style="fill:#000000;fill-opacity:1;fill-rule:nonzero;stroke:#000000;stroke-width:0.01997318px;stroke-linecap:butt;stroke-linejoin:round;stroke-miterlimit:10;stroke-dasharray:none;stroke-opacity:1" />
  <path
     id="path1558"
     d="m 266.38229,306.38857 v 36.33121 H 75.578511 V 324.3844 h 2.07721 v 17.29678 l -1.038605,-1.03861 H 265.34368 l -1.0386,1.03861 v -35.29261 z m -193.75981,19.31406 3.994636,-7.98927 3.994636,7.98927 z"
     style="fill:#000000;fill-opacity:1;fill-rule:nonzero;stroke:#000000;stroke-width:0.01997318px;stroke-linecap:butt;stroke-linejoin:round;stroke-miterlimit:10;stroke-dasharray:none;stroke-opacity:1" />
  <path
     id="path1560"
     d="m 623.88222,283.77893 18.85469,-22.60964 18.85468,22.60964 -18.85468,22.60964 z"
     style="fill:#ffffff;fill-opacity:1;fill-rule:evenodd;stroke:none" />
  <path
     id="path1562"
     d="m 623.88222,283.77893 18.85469,-22.60964 18.85468,22.60964 -18.85468,22.60964 z"
     style="fill:none;stroke:#000000;stroke-width:2.07721066px;stroke-linecap:butt;stroke-linejoin:miter;stroke-miterlimit:8;stroke-dasharray:none;stroke-opacity:1" />
  <path
     id="path1564"
     d="m 756.02478,261.16929 c 0,-6.27158 5.07319,-11.34477 11.34476,-11.34477 h 128.34765 c 6.27158,0 11.30482,5.07319 11.30482,11.34477 v 45.25922 c 0,6.27158 -5.03324,11.30482 -11.30482,11.30482 H 767.36954 c -6.27157,0 -11.34476,-5.03324 -11.34476,-11.30482 z"
     style="fill:#ffffff;fill-opacity:1;fill-rule:evenodd;stroke:none" />
  <path
     transform="translate(-7.2702373,-5.8321684)"
     id="path1566"
     d="m 763.29502,267.00146 c 0,-6.27158 5.07319,-11.34477 11.34476,-11.34477 h 128.34765 c 6.27158,0 11.30482,5.07319 11.30482,11.34477 v 45.25922 c 0,6.27158 -5.03324,11.30482 -11.30482,11.30482 H 774.63978 c -6.27157,0 -11.34476,-5.03324 -11.34476,-11.30482 z"
     clip-path="url(#clipEmfPath1)"
     style="fill:none;stroke:#000000;stroke-width:2.07721066px;stroke-linecap:butt;stroke-linejoin:miter;stroke-miterlimit:8;stroke-dasharray:none;stroke-opacity:1" />
  <text
     id="text1572"
     y="292.10101"
     x="777.82019"
     style="font-style:normal;font-variant:normal;font-weight:400;font-size:21.25px;line-height:125%;font-family:Lato;text-align:start;letter-spacing:0px;word-spacing:0px;text-anchor:start;fill:#000000;fill-opacity:1;stroke:none"
     xml:space="preserve"><tspan
       id="tspan1570"
       y="292.10101"
       x="777.82019"><tspan
         id="tspan1568"
         style="font-style:normal;font-variant:normal;font-weight:400;font-size:21.25px;font-family:Lato;fill:#000000"
         dy="0"
         dx="0">Terminated</tspan></tspan></text>
  <path
     id="path1574"
     d="m 529.44903,282.82022 h 48.2552 v 1.0386 l -1.0386,-1.0386 h 40.50561 v 2.07721 h -41.54422 v -1.03861 l 1.03861,1.03861 h -47.2166 z m 86.40398,-2.95603 7.98927,3.99463 -7.98927,3.99464 z"
     style="fill:#000000;fill-opacity:1;fill-rule:nonzero;stroke:#000000;stroke-width:0.03994636px;stroke-linecap:butt;stroke-linejoin:round;stroke-miterlimit:4;stroke-dasharray:none;stroke-opacity:1" />
  <path
     id="path1576"
     d="m 661.59159,282.82022 h 48.2552 v 1.0386 l -1.03861,-1.0386 h 40.50561 v 2.07721 h -41.54421 v -1.03861 l 1.0386,1.03861 h -47.21659 z m 86.40397,-2.95603 7.98927,3.99463 -7.98927,3.99464 z"
     style="fill:#000000;fill-opacity:1;fill-rule:nonzero;stroke:#000000;stroke-width:0.03994636px;stroke-linecap:butt;stroke-linejoin:round;stroke-miterlimit:4;stroke-dasharray:none;stroke-opacity:1" />
  <path
     id="path1578"
     d="m 643.81546,306.38857 v 36.35118 H 452.9917 v -18.33537 h 2.07721 v 17.29677 l -1.0386,-1.03861 h 188.74654 l -1.0386,1.03861 v -35.31258 z m -193.77979,19.33404 3.99464,-7.98928 3.99463,7.98928 z"
     style="fill:#000000;fill-opacity:1;fill-rule:nonzero;stroke:#000000;stroke-width:0.03994636px;stroke-linecap:butt;stroke-linejoin:round;stroke-miterlimit:4;stroke-dasharray:none;stroke-opacity:1" />
  <path
     id="path1580"
     d="M 832.562,317.73333 V 469.76917 H 483.39088 v -2.07721 H 831.5234 l -1.03861,1.03861 V 317.73333 Z m -347.85289,154.99188 -7.98927,-3.99464 7.98927,-3.99464 z"
     style="fill:#000000;fill-opacity:1;fill-rule:nonzero;stroke:#000000;stroke-width:0.03994636px;stroke-linecap:butt;stroke-linejoin:round;stroke-miterlimit:4;stroke-dasharray:none;stroke-opacity:1" />
  <path
     id="path1582"
     d="m 472.88499,120.47822 h 359.63707 v 122.71521 h -2.07722 V 121.51682 l 1.03861,1.03861 H 472.88499 Z m 362.5931,121.39698 -3.99464,7.98927 -3.99464,-7.98927 z"
     style="fill:#000000;fill-opacity:1;fill-rule:nonzero;stroke:#000000;stroke-width:0.03994636px;stroke-linecap:butt;stroke-linejoin:round;stroke-miterlimit:4;stroke-dasharray:none;stroke-opacity:1" />
  <text
     id="text1588"
     y="102.08214"
     x="702.6051"
     style="font-style:normal;font-variant:normal;font-weight:400;font-size:21.25px;line-height:125%;font-family:Lato;text-align:start;letter-spacing:0px;word-spacing:0px;text-anchor:start;fill:#000000;fill-opacity:1;stroke:none"
     xml:space="preserve"><tspan
       id="tspan1586"
       y="102.08214"
       x="702.6051"><tspan
         id="tspan1584"
         style="font-style:normal;font-variant:normal;font-weight:400;font-size:21.25px;font-family:Lato;fill:#000000"
         dy="0"
         dx="0">Job not valid</tspan></tspan></text>
  <text
     id="text1594"
     y="102.34247"
     x="481.5889"
     style="font-style:normal;font-variant:normal;font-weight:400;font-size:21.25px;line-height:125%;font-family:Lato;text-align:start;letter-spacing:0px;word-spacing:0px;text-anchor:start;fill:#000000;fill-opacity:1;stroke:none"
     xml:space="preserve"><tspan
       id="tspan1592"
       y="102.34247"
       x="481.5889"><tspan
         id="tspan1590"
         style="font-style:normal;font-variant:normal;font-weight:400;font-size:21.25px;font-family:Lato;fill:#000000"
         dy="0"
         dx="0">V</tspan></tspan></text>
  <text
     id="text1600"
     y="102.34247"
     x="495.96957"
     style="font-style:normal;font-variant:normal;font-weight:400;font-size:21.25px;line-height:125%;font-family:Lato;text-align:start;letter-spacing:0px;word-spacing:0px;text-anchor:start;fill:#000000;fill-opacity:1;stroke:none"
     xml:space="preserve"><tspan
       id="tspan1598"
       y="102.34247"
       x="495.96957"><tspan
         id="tspan1596"
         style="font-style:normal;font-variant:normal;font-weight:400;font-size:21.25px;font-family:Lato;fill:#000000"
         dy="0"
         dx="0">alidation</tspan></tspan></text>
  <text
     id="text1606"
     y="509.51642"
     x="486.2428"
     style="font-style:normal;font-variant:normal;font-weight:400;font-size:21.25px;line-height:125%;font-family:Lato;text-align:start;letter-spacing:0px;word-spacing:0px;text-anchor:start;fill:#000000;fill-opacity:1;stroke:none"
     xml:space="preserve"><tspan
       id="tspan1604"
       y="509.51642"
       x="486.2428"><tspan
         id="tspan1602"
         style="font-style:normal;font-variant:normal;font-weight:400;font-size:21.25px;font-family:Lato;fill:#000000"
         dy="0"
         dx="0">Termination</tspan></tspan></text>
  <text
     id="text1612"
     y="320.23779"
     x="302.31317"
     style="font-style:normal;font-variant:normal;font-weight:400;font-size:21.25px;line-height:125%;font-family:Lato;text-align:start;letter-spacing:0px;word-spacing:0px;text-anchor:start;fill:#000000;fill-opacity:1;stroke:none"
     xml:space="preserve"><tspan
       id="tspan1610"
       y="320.23779"
       x="302.31317"><tspan
         id="tspan1608"
         style="font-style:normal;font-variant:normal;font-weight:400;font-size:21.25px;font-family:Lato;fill:#000000"
         dy="0"
         dx="0">true</tspan></tspan></text>
  <text
     id="text1618"
     y="320.23779"
     x="684.55255"
     style="font-style:normal;font-variant:normal;font-weight:400;font-size:21.25px;line-height:125%;font-family:Lato;text-align:start;letter-spacing:0px;word-spacing:0px;text-anchor:start;fill:#000000;fill-opacity:1;stroke:none"
     xml:space="preserve"><tspan
       id="tspan1616"
       y="320.23779"
       x="684.55255"><tspan
         id="tspan1614"
         style="font-style:normal;font-variant:normal;font-weight:400;font-size:21.25px;font-family:Lato;fill:#000000"
         dy="0"
         dx="0">true</tspan></tspan></text>
  <text
     id="text1624"
     y="377.61752"
     x="148.81383"
     style="font-style:normal;font-variant:normal;font-weight:400;font-size:21.25px;line-height:125%;font-family:Lato;text-align:start;letter-spacing:0px;word-spacing:0px;text-anchor:start;fill:#000000;fill-opacity:1;stroke:none"
     xml:space="preserve"><tspan
       id="tspan1622"
       y="377.61752"
       x="148.81383"><tspan
         id="tspan1620"
         style="font-style:normal;font-variant:normal;font-weight:400;font-size:21.25px;font-family:Lato;fill:#000000"
         dy="0"
         dx="0">false</tspan></tspan></text>
  <text
     id="text1630"
     y="377.61752"
     x="526.2597"
     style="font-style:normal;font-variant:normal;font-weight:400;font-size:21.25px;line-height:125%;font-family:Lato;text-align:start;letter-spacing:0px;word-spacing:0px;text-anchor:start;fill:#000000;fill-opacity:1;stroke:none"
     xml:space="preserve"><tspan
       id="tspan1628"
       y="377.61752"
       x="526.2597"><tspan
         id="tspan1626"
         style="font-style:normal;font-variant:normal;font-weight:400;font-size:21.25px;font-family:Lato;fill:#000000"
         dy="0"
         dx="0">false</tspan></tspan></text>
  <text
     id="text1636"
     y="211.13968"
     x="158.91238"
     style="font-style:normal;font-variant:normal;font-weight:400;font-size:21.25px;line-height:125%;font-family:Lato;text-align:start;letter-spacing:0px;word-spacing:0px;text-anchor:start;fill:#000000;fill-opacity:1;stroke:none"
     xml:space="preserve"><tspan
       id="tspan1634"
       y="211.13968"
       x="158.91238"><tspan
         id="tspan1632"
         style="font-style:normal;font-variant:normal;font-weight:400;font-size:21.25px;font-family:Lato;fill:#000000"
         dy="0"
         dx="0">Collection trigger met?</tspan></tspan></text>
  <text
     id="text1642"
     y="211.13968"
     x="540.6001"
     style="font-style:normal;font-variant:normal;font-weight:400;font-size:21.25px;line-height:125%;font-family:Lato;text-align:start;letter-spacing:0px;word-spacing:0px;text-anchor:start;fill:#000000;fill-opacity:1;stroke:none"
     xml:space="preserve"><tspan
       id="tspan1640"
       y="211.13968"
       x="540.6001"><tspan
         id="tspan1638"
         style="font-style:normal;font-variant:normal;font-weight:400;font-size:21.25px;font-family:Lato;fill:#000000"
         dy="0"
         dx="0">Collection completed </tspan></tspan></text>
  <text
     id="text1648"
     y="236.70535"
     x="579.58777"
     style="font-style:normal;font-variant:normal;font-weight:400;font-size:21.25px;line-height:125%;font-family:Lato;text-align:start;letter-spacing:0px;word-spacing:0px;text-anchor:start;fill:#000000;fill-opacity:1;stroke:none"
     xml:space="preserve"><tspan
       id="tspan1646"
       y="236.70535"
       x="579.58777"><tspan
         id="tspan1644"
         style="font-style:normal;font-variant:normal;font-weight:400;font-size:21.25px;font-family:Lato;fill:#000000"
         dy="0"
         dx="0">or exception?</tspan></tspan></text>
</svg>
