<?xml version="1.0" encoding="UTF-8" standalone="no"?>
<!-- Created with Inkscape (http://www.inkscape.org/) -->

<svg
   xmlns:dc="http://purl.org/dc/elements/1.1/"
   xmlns:cc="http://creativecommons.org/ns#"
   xmlns:rdf="http://www.w3.org/1999/02/22-rdf-syntax-ns#"
   xmlns:svg="http://www.w3.org/2000/svg"
   xmlns="http://www.w3.org/2000/svg"
   xmlns:sodipodi="http://sodipodi.sourceforge.net/DTD/sodipodi-0.dtd"
   xmlns:inkscape="http://www.inkscape.org/namespaces/inkscape"
   width="125.09222mm"
   height="57.079529mm"
   viewBox="0 0 250.18444 114.15905"
   version="1.1"
   id="svg1783"
   inkscape:version="0.92.4 (5da689c313, 2019-01-14)"
   sodipodi:docname="multiple-actor-roles.svg">
  <defs
     id="defs1777" />
  <sodipodi:namedview
     id="base"
     pagecolor="#ffffff"
     bordercolor="#666666"
     borderopacity="1.0"
     inkscape:pageopacity="0.0"
     inkscape:pageshadow="2"
     inkscape:zoom="1.4"
     inkscape:cx="494.20137"
     inkscape:cy="-72.256079"
     inkscape:document-units="mm"
     inkscape:current-layer="layer1"
     showgrid="false"
     inkscape:pagecheckerboard="false"
     borderlayer="false"
     fit-margin-top="0"
     fit-margin-left="0"
     fit-margin-right="0"
     fit-margin-bottom="0"
     scale-x="2"
     inkscape:window-width="2560"
     inkscape:window-height="1377"
     inkscape:window-x="-8"
     inkscape:window-y="-8"
     inkscape:window-maximized="1" />
  <metadata
     id="metadata1780">
    <rdf:RDF>
      <cc:Work
         rdf:about="">
        <dc:format>image/svg+xml</dc:format>
        <dc:type
           rdf:resource="http://purl.org/dc/dcmitype/StillImage" />
        <dc:title></dc:title>
      </cc:Work>
    </rdf:RDF>
  </metadata>
  <g
     inkscape:label="Ebene 1"
     inkscape:groupmode="layer"
     id="layer1"
     transform="translate(612.68151,308.25091)">
    <text
       id="text822"
       y="-206.0018"
       x="-607.43011"
       style="font-style:normal;font-variant:normal;font-weight:700;font-size:6.29766178px;line-height:125%;font-family:Lato;text-align:start;letter-spacing:0px;word-spacing:0px;text-anchor:start;fill:#000000;fill-opacity:1;stroke:none;stroke-width:0.26308769"
       xml:space="preserve"
       transform="scale(1.0056851,0.99434701)"><tspan
         id="tspan820"
         y="-206.0018"
         x="-607.43011"
         style="stroke-width:0.26308769"><tspan
           id="tspan818"
           style="font-style:normal;font-variant:normal;font-weight:700;font-size:6.29766178px;font-family:Lato;fill:#000000;stroke-width:0.26308769"
           dy="0"
           dx="0">Vehicle</tspan></tspan></text>
    <text
       id="text828"
       y="-198.43501"
       x="-600.78821"
       style="font-style:normal;font-variant:normal;font-weight:700;font-size:6.29766178px;line-height:125%;font-family:Lato;text-align:start;letter-spacing:0px;word-spacing:0px;text-anchor:start;fill:#000000;fill-opacity:1;stroke:none;stroke-width:0.26308769"
       xml:space="preserve"
       transform="scale(1.0056851,0.99434701)"><tspan
         id="tspan826"
         y="-198.43501"
         x="-600.78821"
         style="stroke-width:0.26308769"><tspan
           id="tspan824"
           style="font-style:normal;font-variant:normal;font-weight:700;font-size:6.29766178px;font-family:Lato;fill:#000000;stroke-width:0.26308769"
           dy="0"
           dx="0">Fleet</tspan></tspan></text>
    <path
       id="path830"
       d="m -584.22075,-199.37952 1.50082,-5.93566 h 10.48459 l 1.50081,5.93566 z"
       style="fill:#ffffff;fill-opacity:1;fill-rule:evenodd;stroke:none;stroke-width:0.2630876"
       inkscape:connector-curvature="0" />
    <path
       id="path832"
       d="m -584.22075,-199.37952 1.50082,-5.93566 h 10.48459 l 1.50081,5.93566 z"
       style="fill:none;stroke:#000000;stroke-width:0.5464884px;stroke-linecap:butt;stroke-linejoin:miter;stroke-miterlimit:8;stroke-dasharray:none;stroke-opacity:1"
       inkscape:connector-curvature="0" />
    <path
       id="path834"
       d="m -584.43213,-200.64397 c 0,-0.45456 0.3752,-0.82558 0.83496,-0.82558 h 12.28662 c 0.45976,0 0.82968,0.37102 0.82968,0.82558 v 3.28645 c 0,0.45466 -0.36992,0.82032 -0.82968,0.82032 h -12.28662 c -0.45976,0 -0.83496,-0.36566 -0.83496,-0.82032 z"
       style="fill:#000000;fill-opacity:1;fill-rule:evenodd;stroke:none;stroke-width:0.2630876"
       inkscape:connector-curvature="0" />
    <path
       id="path836"
       d="m -584.43213,-200.64397 c 0,-0.45456 0.3752,-0.82558 0.83496,-0.82558 h 12.28662 c 0.45976,0 0.82968,0.37102 0.82968,0.82558 v 3.28645 c 0,0.45466 -0.36992,0.82032 -0.82968,0.82032 h -12.28662 c -0.45976,0 -0.83496,-0.36566 -0.83496,-0.82032 z"
       style="fill:none;stroke:#000000;stroke-width:0.5464884px;stroke-linecap:butt;stroke-linejoin:miter;stroke-miterlimit:8;stroke-dasharray:none;stroke-opacity:1"
       inkscape:connector-curvature="0" />
    <path
       id="path838"
       d="m -583.48091,-196.73052 c 0,-0.17761 0.15325,-0.32918 0.33293,-0.32918 h 1.32642 c 0.17968,0 0.32765,0.15157 0.32765,0.32918 v 2.31466 c 0,0.17772 -0.14797,0.324 -0.32765,0.324 h -1.32642 c -0.17968,0 -0.33293,-0.14628 -0.33293,-0.324 z"
       style="fill:#000000;fill-opacity:1;fill-rule:evenodd;stroke:none;stroke-width:0.2630876"
       inkscape:connector-curvature="0" />
    <path
       id="path840"
       d="m -573.50364,-196.72525 c 0,-0.18288 0.15325,-0.33445 0.33821,-0.33445 h 1.35285 c 0.19025,0 0.33821,0.15157 0.33821,0.33445 v 2.29895 c 0,0.18816 -0.14796,0.33444 -0.33821,0.33444 h -1.35285 c -0.18496,0 -0.33821,-0.14628 -0.33821,-0.33444 z"
       style="fill:#000000;fill-opacity:1;fill-rule:evenodd;stroke:none;stroke-width:0.2630876"
       inkscape:connector-curvature="0" />
    <path
       id="path842"
       d="m -583.48091,-198.91979 c 0,-0.5381 0.44919,-0.98222 0.9935,-0.98222 0.54959,0 0.9935,0.44412 0.9935,0.98222 0,0.54346 -0.44391,0.98231 -0.9935,0.98231 -0.54431,0 -0.9935,-0.43885 -0.9935,-0.98231 z"
       style="fill:#ffffff;fill-opacity:1;fill-rule:evenodd;stroke:none;stroke-width:0.2630876"
       inkscape:connector-curvature="0" />
    <path
       id="path844"
       d="m -573.50364,-198.91979 c 0,-0.5381 0.45447,-0.98222 1.01464,-0.98222 0.56545,0 1.01463,0.44412 1.01463,0.98222 0,0.54346 -0.44918,0.98231 -1.01463,0.98231 -0.56017,0 -1.01464,-0.43885 -1.01464,-0.98231 z"
       style="fill:#ffffff;fill-opacity:1;fill-rule:evenodd;stroke:none;stroke-width:0.2630876"
       inkscape:connector-curvature="0" />
    <path
       id="path846"
       d="m -569.38168,-206.81997 1.50082,-5.93556 h 10.4846 l 1.50082,5.93556 z"
       style="fill:#ffffff;fill-opacity:1;fill-rule:evenodd;stroke:none;stroke-width:0.2630876"
       inkscape:connector-curvature="0" />
    <path
       id="path848"
       d="m -569.38168,-206.81997 1.50082,-5.93556 h 10.4846 l 1.50082,5.93556 z"
       style="fill:none;stroke:#000000;stroke-width:0.5464884px;stroke-linecap:butt;stroke-linejoin:miter;stroke-miterlimit:8;stroke-dasharray:none;stroke-opacity:1"
       inkscape:connector-curvature="0" />
    <path
       id="path850"
       d="m -569.63534,-208.08441 c 0,-0.45457 0.37521,-0.82549 0.83497,-0.82549 h 12.32891 c 0.45976,0 0.82968,0.37092 0.82968,0.82549 v 3.28655 c 0,0.45456 -0.36992,0.82032 -0.82968,0.82032 h -12.32891 c -0.45976,0 -0.83497,-0.36576 -0.83497,-0.82032 z"
       style="fill:#000000;fill-opacity:1;fill-rule:evenodd;stroke:none;stroke-width:0.2630876"
       inkscape:connector-curvature="0" />
    <path
       id="path852"
       d="m -569.63534,-208.08441 c 0,-0.45457 0.37521,-0.82549 0.83497,-0.82549 h 12.32891 c 0.45976,0 0.82968,0.37092 0.82968,0.82549 v 3.28655 c 0,0.45456 -0.36992,0.82032 -0.82968,0.82032 h -12.32891 c -0.45976,0 -0.83497,-0.36576 -0.83497,-0.82032 z"
       style="fill:none;stroke:#000000;stroke-width:0.5464884px;stroke-linecap:butt;stroke-linejoin:miter;stroke-miterlimit:8;stroke-dasharray:none;stroke-opacity:1"
       inkscape:connector-curvature="0" />
    <path
       id="path854"
       d="m -568.64184,-204.17086 c 0,-0.17762 0.15325,-0.32917 0.33293,-0.32917 h 1.32643 c 0.17967,0 0.32764,0.15155 0.32764,0.32917 v 2.31467 c 0,0.1776 -0.14797,0.32398 -0.32764,0.32398 h -1.32643 c -0.17968,0 -0.33293,-0.14638 -0.33293,-0.32398 z"
       style="fill:#000000;fill-opacity:1;fill-rule:evenodd;stroke:none;stroke-width:0.2630876"
       inkscape:connector-curvature="0" />
    <path
       id="path856"
       d="m -558.66456,-204.17086 c 0,-0.17762 0.15326,-0.32917 0.33293,-0.32917 h 1.32643 c 0.17967,0 0.32764,0.15155 0.32764,0.32917 v 2.31467 c 0,0.1776 -0.14797,0.32398 -0.32764,0.32398 h -1.32643 c -0.17967,0 -0.33293,-0.14638 -0.33293,-0.32398 z"
       style="fill:#000000;fill-opacity:1;fill-rule:evenodd;stroke:none;stroke-width:0.2630876"
       inkscape:connector-curvature="0" />
    <path
       id="path858"
       d="m -568.64184,-206.36014 c 0,-0.53819 0.44919,-0.98231 0.9935,-0.98231 0.5496,0 0.9935,0.44412 0.9935,0.98231 0,0.54336 -0.4439,0.98231 -0.9935,0.98231 -0.54431,0 -0.9935,-0.43895 -0.9935,-0.98231 z"
       style="fill:#ffffff;fill-opacity:1;fill-rule:evenodd;stroke:none;stroke-width:0.2630876"
       inkscape:connector-curvature="0" />
    <path
       id="path860"
       d="m -558.66456,-206.36014 c 0,-0.53819 0.44919,-0.98231 0.9935,-0.98231 0.5496,0 0.9935,0.44412 0.9935,0.98231 0,0.54336 -0.4439,0.98231 -0.9935,0.98231 -0.54431,0 -0.9935,-0.43895 -0.9935,-0.98231 z"
       style="fill:#ffffff;fill-opacity:1;fill-rule:evenodd;stroke:none;stroke-width:0.2630876"
       inkscape:connector-curvature="0" />
    <path
       id="path862"
       d="m -554.62715,-199.37952 1.50082,-5.93566 h 10.48459 l 1.50082,5.93566 z"
       style="fill:#ffffff;fill-opacity:1;fill-rule:evenodd;stroke:none;stroke-width:0.2630876"
       inkscape:connector-curvature="0" />
    <path
       id="path864"
       d="m -554.62715,-199.37952 1.50082,-5.93566 h 10.48459 l 1.50082,5.93566 z"
       style="fill:none;stroke:#000000;stroke-width:0.5464884px;stroke-linecap:butt;stroke-linejoin:miter;stroke-miterlimit:8;stroke-dasharray:none;stroke-opacity:1"
       inkscape:connector-curvature="0" />
    <path
       id="path866"
       d="m -554.88081,-200.64397 c 0,-0.45456 0.37521,-0.82558 0.83497,-0.82558 h 12.3289 c 0.45976,0 0.82969,0.37102 0.82969,0.82558 v 3.28645 c 0,0.45466 -0.36993,0.82032 -0.82969,0.82032 h -12.3289 c -0.45976,0 -0.83497,-0.36566 -0.83497,-0.82032 z"
       style="fill:#000000;fill-opacity:1;fill-rule:evenodd;stroke:none;stroke-width:0.2630876"
       inkscape:connector-curvature="0" />
    <path
       id="path868"
       d="m -554.88081,-200.64397 c 0,-0.45456 0.37521,-0.82558 0.83497,-0.82558 h 12.3289 c 0.45976,0 0.82969,0.37102 0.82969,0.82558 v 3.28645 c 0,0.45466 -0.36993,0.82032 -0.82969,0.82032 h -12.3289 c -0.45976,0 -0.83497,-0.36566 -0.83497,-0.82032 z"
       style="fill:none;stroke:#000000;stroke-width:0.5464884px;stroke-linecap:butt;stroke-linejoin:miter;stroke-miterlimit:8;stroke-dasharray:none;stroke-opacity:1"
       inkscape:connector-curvature="0" />
    <path
       id="path870"
       d="m -553.88731,-196.73052 c 0,-0.17761 0.15326,-0.32918 0.33293,-0.32918 h 1.32643 c 0.17967,0 0.32764,0.15157 0.32764,0.32918 v 2.31466 c 0,0.17772 -0.14797,0.324 -0.32764,0.324 h -1.32643 c -0.17967,0 -0.33293,-0.14628 -0.33293,-0.324 z"
       style="fill:#000000;fill-opacity:1;fill-rule:evenodd;stroke:none;stroke-width:0.2630876"
       inkscape:connector-curvature="0" />
    <path
       id="path872"
       d="m -543.91004,-196.73052 c 0,-0.17761 0.15325,-0.32918 0.33293,-0.32918 h 1.32643 c 0.17967,0 0.32764,0.15157 0.32764,0.32918 v 2.31466 c 0,0.17772 -0.14797,0.324 -0.32764,0.324 h -1.32643 c -0.17968,0 -0.33293,-0.14628 -0.33293,-0.324 z"
       style="fill:#000000;fill-opacity:1;fill-rule:evenodd;stroke:none;stroke-width:0.2630876"
       inkscape:connector-curvature="0" />
    <path
       id="path874"
       d="m -553.88731,-198.91979 c 0,-0.5381 0.44919,-0.98222 0.9935,-0.98222 0.5496,0 0.9935,0.44412 0.9935,0.98222 0,0.54346 -0.4439,0.98231 -0.9935,0.98231 -0.54431,0 -0.9935,-0.43885 -0.9935,-0.98231 z"
       style="fill:#ffffff;fill-opacity:1;fill-rule:evenodd;stroke:none;stroke-width:0.2630876"
       inkscape:connector-curvature="0" />
    <path
       id="path876"
       d="m -543.91004,-198.91979 c 0,-0.5381 0.44919,-0.98222 0.9935,-0.98222 0.5496,0 0.9935,0.44412 0.9935,0.98222 0,0.54346 -0.4439,0.98231 -0.9935,0.98231 -0.54431,0 -0.9935,-0.43885 -0.9935,-0.98231 z"
       style="fill:#ffffff;fill-opacity:1;fill-rule:evenodd;stroke:none;stroke-width:0.2630876"
       inkscape:connector-curvature="0" />
    <path
       id="path878"
       d="m -556.50845,-217.85515 v -7.87929 h -1.60651 v 7.87929 z m 1.60651,-7.08503 -2.40977,-4.76521 -2.40976,4.76521 z"
       style="fill:#000000;fill-opacity:1;fill-rule:nonzero;stroke:#000000;stroke-width:0.0052547px;stroke-linecap:butt;stroke-linejoin:round;stroke-miterlimit:10;stroke-dasharray:none;stroke-opacity:1"
       inkscape:connector-curvature="0" />
    <text
       id="text884"
       y="-222.87874"
       x="-547.86627"
       style="font-style:normal;font-variant:normal;font-weight:700;font-size:5.59061289px;line-height:125%;font-family:Lato;text-align:start;letter-spacing:0px;word-spacing:0px;text-anchor:start;fill:#000000;fill-opacity:1;stroke:none;stroke-width:0.26308769"
       xml:space="preserve"
       transform="scale(1.0056851,0.99434701)"><tspan
         id="tspan882"
         y="-222.87874"
         x="-547.86627"
         style="stroke-width:0.26308769"><tspan
           id="tspan880"
           style="font-style:normal;font-variant:normal;font-weight:700;font-size:5.59061289px;font-family:Lato;fill:#000000;stroke-width:0.26308769"
           dy="0"
           dx="0">Data</tspan></tspan></text>
    <path
       id="path886"
       d="m -571.47437,-229.70539 v 7.87923 h -1.60651 v -7.87923 z m 1.60651,7.08506 -2.40976,4.76518 -2.40977,-4.76518 z"
       style="fill:#000000;fill-opacity:1;fill-rule:nonzero;stroke:#000000;stroke-width:0.0052547px;stroke-linecap:butt;stroke-linejoin:round;stroke-miterlimit:4;stroke-dasharray:none;stroke-opacity:1"
       inkscape:connector-curvature="0" />
    <text
       id="text892"
       y="-226.27458"
       x="-609.27954"
       style="font-style:normal;font-variant:normal;font-weight:700;font-size:5.59061289px;line-height:125%;font-family:Lato;text-align:start;letter-spacing:0px;word-spacing:0px;text-anchor:start;fill:#000000;fill-opacity:1;stroke:none;stroke-width:0.26308769"
       xml:space="preserve"
       transform="scale(1.0056851,0.99434701)"><tspan
         id="tspan890"
         y="-226.27458"
         x="-609.27954"
         style="stroke-width:0.26308769"><tspan
           id="tspan888"
           style="font-style:normal;font-variant:normal;font-weight:700;font-size:5.59061289px;font-family:Lato;fill:#000000;stroke-width:0.26308769"
           dy="0"
           dx="0">Job </tspan></tspan></text>
    <text
       id="text898"
       y="-226.27458"
       x="-599.06427"
       style="font-style:normal;font-variant:normal;font-weight:700;font-size:5.59061289px;line-height:125%;font-family:Lato;text-align:start;letter-spacing:0px;word-spacing:0px;text-anchor:start;fill:#000000;fill-opacity:1;stroke:none;stroke-width:0.26308769"
       xml:space="preserve"
       transform="scale(1.0056851,0.99434701)"><tspan
         id="tspan896"
         y="-226.27458"
         x="-599.06427"
         style="stroke-width:0.26308769"><tspan
           id="tspan894"
           style="font-style:normal;font-variant:normal;font-weight:700;font-size:5.59061289px;font-family:Lato;fill:#000000;stroke-width:0.26308769"
           dy="0"
           dx="0">Request</tspan></tspan></text>
    <text
       id="text904"
       y="-219.54852"
       x="-604.19293"
       style="font-style:normal;font-variant:normal;font-weight:700;font-size:5.59061289px;line-height:125%;font-family:Lato;text-align:start;letter-spacing:0px;word-spacing:0px;text-anchor:start;fill:#000000;fill-opacity:1;stroke:none;stroke-width:0.26308769"
       xml:space="preserve"
       transform="scale(1.0056851,0.99434701)"><tspan
         id="tspan902"
         y="-219.54852"
         x="-604.19293"
         style="stroke-width:0.26308769"><tspan
           id="tspan900"
           style="font-style:normal;font-variant:normal;font-weight:700;font-size:5.59061289px;font-family:Lato;fill:#000000;stroke-width:0.26308769"
           dy="0"
           dx="0">Job </tspan></tspan></text>
    <text
       id="text910"
       y="-219.54852"
       x="-593.97791"
       style="font-style:normal;font-variant:normal;font-weight:700;font-size:5.59061289px;line-height:125%;font-family:Lato;text-align:start;letter-spacing:0px;word-spacing:0px;text-anchor:start;fill:#000000;fill-opacity:1;stroke:none;stroke-width:0.26308769"
       xml:space="preserve"
       transform="scale(1.0056851,0.99434701)"><tspan
         id="tspan908"
         y="-219.54852"
         x="-593.97791"
         style="stroke-width:0.26308769"><tspan
           id="tspan906"
           style="font-style:normal;font-variant:normal;font-weight:700;font-size:5.59061289px;font-family:Lato;fill:#000000;stroke-width:0.26308769"
           dy="0"
           dx="0">Status</tspan></tspan></text>
    <path
       id="path912"
       d="m -567.50037,-221.82616 v -3.90828 h -1.60651 v 3.90828 z m -3.21302,-0.79417 2.40976,4.76518 2.40978,-4.76518 z m 4.81954,-2.31985 -2.40978,-4.76521 -2.40976,4.76521 z"
       style="fill:#000000;fill-opacity:1;fill-rule:nonzero;stroke:#000000;stroke-width:0.0052547px;stroke-linecap:butt;stroke-linejoin:round;stroke-miterlimit:4;stroke-dasharray:none;stroke-opacity:1"
       inkscape:connector-curvature="0" />
    <path
       id="path914"
       d="m -571.47437,-277.35733 v 7.8793 h -1.60651 v -7.8793 z m 1.60651,7.08509 -2.40976,4.76519 -2.40977,-4.76519 z"
       style="fill:#000000;fill-opacity:1;fill-rule:nonzero;stroke:#000000;stroke-width:0.00262734px;stroke-linecap:butt;stroke-linejoin:round;stroke-miterlimit:4;stroke-dasharray:none;stroke-opacity:1"
       inkscape:connector-curvature="0" />
    <text
       id="text920"
       y="-274.19016"
       x="-608.94305"
       style="font-style:normal;font-variant:normal;font-weight:700;font-size:5.59061289px;line-height:125%;font-family:Lato;text-align:start;letter-spacing:0px;word-spacing:0px;text-anchor:start;fill:#000000;fill-opacity:1;stroke:none;stroke-width:0.26308769"
       xml:space="preserve"
       transform="scale(1.0056851,0.99434701)"><tspan
         id="tspan918"
         y="-274.19016"
         x="-608.94305"
         style="stroke-width:0.26308769"><tspan
           id="tspan916"
           style="font-style:normal;font-variant:normal;font-weight:700;font-size:5.59061289px;font-family:Lato;fill:#000000;stroke-width:0.26308769"
           dy="0"
           dx="0">Job </tspan></tspan></text>
    <text
       id="text926"
       y="-274.19016"
       x="-598.72815"
       style="font-style:normal;font-variant:normal;font-weight:700;font-size:5.59061289px;line-height:125%;font-family:Lato;text-align:start;letter-spacing:0px;word-spacing:0px;text-anchor:start;fill:#000000;fill-opacity:1;stroke:none;stroke-width:0.26308769"
       xml:space="preserve"
       transform="scale(1.0056851,0.99434701)"><tspan
         id="tspan924"
         y="-274.19016"
         x="-598.72815"
         style="stroke-width:0.26308769"><tspan
           id="tspan922"
           style="font-style:normal;font-variant:normal;font-weight:700;font-size:5.59061289px;font-family:Lato;fill:#000000;stroke-width:0.26308769"
           dy="0"
           dx="0">Request</tspan></tspan></text>
    <text
       id="text932"
       y="-267.4642"
       x="-604.19293"
       style="font-style:normal;font-variant:normal;font-weight:700;font-size:5.59061289px;line-height:125%;font-family:Lato;text-align:start;letter-spacing:0px;word-spacing:0px;text-anchor:start;fill:#000000;fill-opacity:1;stroke:none;stroke-width:0.26308769"
       xml:space="preserve"
       transform="scale(1.0056851,0.99434701)"><tspan
         id="tspan930"
         y="-267.4642"
         x="-604.19293"
         style="stroke-width:0.26308769"><tspan
           id="tspan928"
           style="font-style:normal;font-variant:normal;font-weight:700;font-size:5.59061289px;font-family:Lato;fill:#000000;stroke-width:0.26308769"
           dy="0"
           dx="0">Job </tspan></tspan></text>
    <text
       id="text938"
       y="-267.4642"
       x="-593.97791"
       style="font-style:normal;font-variant:normal;font-weight:700;font-size:5.59061289px;line-height:125%;font-family:Lato;text-align:start;letter-spacing:0px;word-spacing:0px;text-anchor:start;fill:#000000;fill-opacity:1;stroke:none;stroke-width:0.26308769"
       xml:space="preserve"
       transform="scale(1.0056851,0.99434701)"><tspan
         id="tspan936"
         y="-267.4642"
         x="-593.97791"
         style="stroke-width:0.26308769"><tspan
           id="tspan934"
           style="font-style:normal;font-variant:normal;font-weight:700;font-size:5.59061289px;font-family:Lato;fill:#000000;stroke-width:0.26308769"
           dy="0"
           dx="0">Status</tspan></tspan></text>
    <path
       id="path940"
       d="m -567.50037,-269.47803 v -3.90829 h -1.60651 v 3.90829 z m -3.21302,-0.79421 2.40976,4.76519 2.40978,-4.76519 z m 4.81954,-2.31991 -2.40978,-4.76518 -2.40976,4.76518 z"
       style="fill:#000000;fill-opacity:1;fill-rule:nonzero;stroke:#000000;stroke-width:0.00262734px;stroke-linecap:butt;stroke-linejoin:round;stroke-miterlimit:4;stroke-dasharray:none;stroke-opacity:1"
       inkscape:connector-curvature="0" />
    <path
       id="path942"
       d="m -556.50845,-265.50705 v -7.87927 h -1.60651 v 7.87927 z m 1.60651,-7.0851 -2.40977,-4.76518 -2.40976,4.76518 z"
       style="fill:#000000;fill-opacity:1;fill-rule:nonzero;stroke:#000000;stroke-width:0.0052547px;stroke-linecap:butt;stroke-linejoin:round;stroke-miterlimit:4;stroke-dasharray:none;stroke-opacity:1"
       inkscape:connector-curvature="0" />
    <text
       id="text948"
       y="-270.79434"
       x="-547.86627"
       style="font-style:normal;font-variant:normal;font-weight:700;font-size:5.59061289px;line-height:125%;font-family:Lato;text-align:start;letter-spacing:0px;word-spacing:0px;text-anchor:start;fill:#000000;fill-opacity:1;stroke:none;stroke-width:0.26308769"
       xml:space="preserve"
       transform="scale(1.0056851,0.99434701)"><tspan
         id="tspan946"
         y="-270.79434"
         x="-547.86627"
         style="stroke-width:0.26308769"><tspan
           id="tspan944"
           style="font-style:normal;font-variant:normal;font-weight:700;font-size:5.59061289px;font-family:Lato;fill:#000000;stroke-width:0.26308769"
           dy="0"
           dx="0">Data</tspan></tspan></text>
    <path
       id="path950"
       d="m -588.57524,-299.52174 c -0.69756,-2.98348 2.89066,-5.73705 8.01671,-6.14459 2.07682,-0.16198 4.18537,0.0832 5.99797,0.7001 1.91302,-2.10564 6.38905,-2.90507 9.99842,-1.78692 0.62886,0.19332 1.21017,0.44412 1.71749,0.73672 1.49024,-1.74514 5.12603,-2.45572 8.1171,-1.58319 0.82967,0.24036 1.55366,0.58523 2.11382,1.01891 2.40448,-1.65108 6.65328,-1.85487 9.49109,-0.45983 1.19432,0.59045 1.99757,1.40031 2.27238,2.29379 3.94228,0.62699 6.26749,3.00439 5.19472,5.30861 -0.0898,0.19333 -0.20081,0.38139 -0.33821,0.56427 3.16017,2.39832 2.38862,5.84158 -1.72806,7.68072 -1.27885,0.57478 -2.79552,0.94575 -4.39147,1.08161 -0.037,2.58113 -3.65693,4.65544 -8.09068,4.63456 -1.47968,-0.005 -2.92765,-0.2508 -4.1801,-0.71062 -1.50081,2.89467 -6.72725,4.53008 -11.67361,3.65229 -2.07685,-0.36576 -3.86832,-1.13904 -5.0732,-2.19448 -5.0679,1.78169 -11.64191,0.82553 -14.69111,-2.14228 -0.037,-0.037 -0.074,-0.0727 -0.11097,-0.10971 -3.31871,0.22466 -6.32035,-1.15474 -6.71141,-3.08276 -0.20609,-1.02927 0.37521,-2.05862 1.59066,-2.81627 -2.86952,-0.98226 -3.8366,-3.14546 -2.1561,-4.83312 0.97236,-0.96662 2.67399,-1.60928 4.58172,-1.72421 z"
       style="fill:#ffffff;fill-opacity:1;fill-rule:evenodd;stroke:none;stroke-width:0.2630876"
       inkscape:connector-curvature="0" />
    <path
       id="path952"
       d="m -588.57524,-299.52174 c -0.69756,-2.98348 2.89066,-5.73705 8.01671,-6.14459 2.07682,-0.16198 4.18537,0.0832 5.99797,0.7001 1.91302,-2.10564 6.38905,-2.90507 9.99842,-1.78692 0.62886,0.19332 1.21017,0.44412 1.71749,0.73672 1.49024,-1.74514 5.12603,-2.45572 8.1171,-1.58319 0.82967,0.24036 1.55366,0.58523 2.11382,1.01891 2.40448,-1.65108 6.65328,-1.85487 9.49109,-0.45983 1.19432,0.59045 1.99757,1.40031 2.27238,2.29379 3.94228,0.62699 6.26749,3.00439 5.19472,5.30861 -0.0898,0.19333 -0.20081,0.38139 -0.33821,0.56427 3.16017,2.39832 2.38862,5.84158 -1.72806,7.68072 -1.27885,0.57478 -2.79552,0.94575 -4.39147,1.08161 -0.037,2.58113 -3.65693,4.65544 -8.09068,4.63456 -1.47968,-0.005 -2.92765,-0.2508 -4.1801,-0.71062 -1.50081,2.89467 -6.72725,4.53008 -11.67361,3.65229 -2.07685,-0.36576 -3.86832,-1.13904 -5.0732,-2.19448 -5.0679,1.78169 -11.64191,0.82553 -14.69111,-2.14228 -0.037,-0.037 -0.074,-0.0727 -0.11097,-0.10971 -3.31871,0.22466 -6.32035,-1.15474 -6.71141,-3.08276 -0.20609,-1.02927 0.37521,-2.05862 1.59066,-2.81627 -2.86952,-0.98226 -3.8366,-3.14546 -2.1561,-4.83312 0.97236,-0.96662 2.67399,-1.60928 4.58172,-1.72421 z"
       style="fill:none;stroke:#000000;stroke-width:0.5464884px;stroke-linecap:butt;stroke-linejoin:miter;stroke-miterlimit:8;stroke-dasharray:none;stroke-opacity:1"
       inkscape:connector-curvature="0" />
    <path
       id="path954"
       d="m -587.47605,-292.50461 c -1.22602,0.0573 -2.45204,-0.10971 -3.51424,-0.47547 m 6.611,5.6587 c -0.49146,0.11495 -1.00935,0.18806 -1.53252,0.22464 m 14.77566,2.26246 c -0.36992,-0.32398 -0.67643,-0.66884 -0.9248,-1.03458 m 18.0521,-1.54135 c -0.0528,0.3814 -0.17968,0.76286 -0.36992,1.13379 m 7.72076,-8.14573 c 2.77968,0.78894 4.53416,2.44007 4.50773,4.24267 m 6.13011,-8.75706 c -0.45448,0.61654 -1.14147,1.15995 -2.00814,1.59363 m -2.81138,-7.49264 c 0.074,0.25078 0.11097,0.50158 0.10569,0.75238 m -12.92607,-1.62499 c 0.25894,-0.34483 0.60773,-0.66879 1.02521,-0.95618 m -10.64841,1.41077 c 0.11097,-0.28736 0.2748,-0.5643 0.50203,-0.82554 m -11.78989,1.1077 c 0.65529,0.22466 1.26302,0.49116 1.80204,0.79944 m -15.49436,5.49669 c -0.14268,-0.27695 -0.24837,-0.55908 -0.31179,-0.84646"
       style="fill:none;stroke:#000000;stroke-width:0.5464884px;stroke-linecap:butt;stroke-linejoin:miter;stroke-miterlimit:8;stroke-dasharray:none;stroke-opacity:1"
       inkscape:connector-curvature="0" />
    <path
       id="path956"
       d="m -550.88567,-295.03868 v 3.97093 h 9.97727 v -3.97093 z"
       style="fill:#ffffff;fill-opacity:1;fill-rule:evenodd;stroke:none;stroke-width:0.2630876"
       inkscape:connector-curvature="0" />
    <text
       id="text962"
       y="-294.50406"
       x="-580.1203"
       style="font-style:normal;font-variant:normal;font-weight:700;font-size:6.29766178px;line-height:125%;font-family:Lato;text-align:start;letter-spacing:0px;word-spacing:0px;text-anchor:start;fill:#000000;fill-opacity:1;stroke:none;stroke-width:0.26308769"
       xml:space="preserve"
       transform="scale(1.0056851,0.99434701)"><tspan
         id="tspan960"
         y="-294.50406"
         x="-580.1203"
         style="stroke-width:0.26308769"><tspan
           id="tspan958"
           style="font-style:normal;font-variant:normal;font-weight:700;font-size:6.29766178px;font-family:Lato;fill:#000000;stroke-width:0.26308769"
           dy="0"
           dx="0">Service Cloud</tspan></tspan></text>
    <path
       id="path964"
       d="m -588.57524,-251.86984 c -0.69756,-2.98348 2.89066,-5.73699 8.01671,-6.14461 2.07682,-0.16191 4.18537,0.0832 5.99797,0.70018 1.91302,-2.10563 6.38905,-2.90508 9.99842,-1.78692 0.62886,0.19332 1.21017,0.44412 1.71749,0.73669 1.49024,-1.74515 5.12603,-2.45574 8.1171,-1.58317 0.82967,0.24036 1.55366,0.58524 2.11382,1.0189 2.40448,-1.65115 6.65328,-1.85492 9.49109,-0.45982 1.19432,0.59041 1.99757,1.40028 2.27238,2.2938 3.94228,0.627 6.26749,3.00431 5.19472,5.30854 -0.0898,0.19332 -0.20081,0.38148 -0.33821,0.56436 3.16017,2.3982 2.38862,5.84147 -1.72806,7.6807 -1.27885,0.57479 -2.79552,0.94572 -4.39147,1.08156 -0.037,2.58119 -3.65693,4.6555 -8.09068,4.63462 -1.47968,-0.005 -2.92765,-0.2508 -4.1801,-0.71064 -1.50081,2.89463 -6.72725,4.5301 -11.67361,3.65231 -2.07685,-0.36575 -3.86832,-1.13905 -5.0732,-2.19455 -5.0679,1.78175 -11.64191,0.8256 -14.69111,-2.14224 -0.037,-0.037 -0.074,-0.0727 -0.11097,-0.10967 -3.31871,0.22463 -6.32035,-1.15476 -6.71141,-3.0828 -0.20609,-1.02934 0.37521,-2.05861 1.59066,-2.81625 -2.86952,-0.98232 -3.8366,-3.14544 -2.1561,-4.83312 0.97236,-0.9666 2.67399,-1.60932 4.58172,-1.72428 z"
       style="fill:#ffffff;fill-opacity:1;fill-rule:evenodd;stroke:none;stroke-width:0.2630876"
       inkscape:connector-curvature="0" />
    <path
       id="path966"
       d="m -588.57524,-251.86984 c -0.69756,-2.98348 2.89066,-5.73699 8.01671,-6.14461 2.07682,-0.16191 4.18537,0.0832 5.99797,0.70018 1.91302,-2.10563 6.38905,-2.90508 9.99842,-1.78692 0.62886,0.19332 1.21017,0.44412 1.71749,0.73669 1.49024,-1.74515 5.12603,-2.45574 8.1171,-1.58317 0.82967,0.24036 1.55366,0.58524 2.11382,1.0189 2.40448,-1.65115 6.65328,-1.85492 9.49109,-0.45982 1.19432,0.59041 1.99757,1.40028 2.27238,2.2938 3.94228,0.627 6.26749,3.00431 5.19472,5.30854 -0.0898,0.19332 -0.20081,0.38148 -0.33821,0.56436 3.16017,2.3982 2.38862,5.84147 -1.72806,7.6807 -1.27885,0.57479 -2.79552,0.94572 -4.39147,1.08156 -0.037,2.58119 -3.65693,4.6555 -8.09068,4.63462 -1.47968,-0.005 -2.92765,-0.2508 -4.1801,-0.71064 -1.50081,2.89463 -6.72725,4.5301 -11.67361,3.65231 -2.07685,-0.36575 -3.86832,-1.13905 -5.0732,-2.19455 -5.0679,1.78175 -11.64191,0.8256 -14.69111,-2.14224 -0.037,-0.037 -0.074,-0.0727 -0.11097,-0.10967 -3.31871,0.22463 -6.32035,-1.15476 -6.71141,-3.0828 -0.20609,-1.02934 0.37521,-2.05861 1.59066,-2.81625 -2.86952,-0.98232 -3.8366,-3.14544 -2.1561,-4.83312 0.97236,-0.9666 2.67399,-1.60932 4.58172,-1.72428 z"
       style="fill:none;stroke:#000000;stroke-width:0.5464884px;stroke-linecap:butt;stroke-linejoin:miter;stroke-miterlimit:8;stroke-dasharray:none;stroke-opacity:1"
       inkscape:connector-curvature="0" />
    <path
       id="path968"
       d="m -587.47605,-244.85265 c -1.22602,0.0579 -2.45204,-0.10971 -3.51424,-0.47547 m 6.611,5.65862 c -0.49146,0.11494 -1.00935,0.18814 -1.53252,0.22474 m 14.77566,2.26235 c -0.36992,-0.32388 -0.67643,-0.66876 -0.9248,-1.03452 m 18.0521,-1.54139 c -0.0528,0.38148 -0.17968,0.76284 -0.36992,1.13387 m 7.72076,-8.1458 c 2.77968,0.789 4.53416,2.44007 4.50773,4.2427 m 6.13011,-8.7571 c -0.45448,0.61656 -1.14147,1.15993 -2.00814,1.59362 m -2.81138,-7.49259 c 0.074,0.2508 0.11097,0.5016 0.10569,0.7524 m -12.92607,-1.62501 c 0.25894,-0.34485 0.60773,-0.66876 1.02521,-0.95616 m -10.64841,1.41072 c 0.11097,-0.28738 0.2748,-0.56424 0.50203,-0.82549 m -11.78989,1.10766 c 0.65529,0.22471 1.26302,0.49113 1.80204,0.7994 m -15.49436,5.4967 c -0.14268,-0.27689 -0.24837,-0.55908 -0.31179,-0.84644"
       style="fill:none;stroke:#000000;stroke-width:0.5464884px;stroke-linecap:butt;stroke-linejoin:miter;stroke-miterlimit:8;stroke-dasharray:none;stroke-opacity:1"
       inkscape:connector-curvature="0" />
    <path
       id="path970"
       d="m -550.88567,-247.38681 v 3.97102 h 9.97727 v -3.97102 z"
       style="fill:#ffffff;fill-opacity:1;fill-rule:evenodd;stroke:none;stroke-width:0.2630876"
       inkscape:connector-curvature="0" />
    <text
       id="text976"
       y="-246.58841"
       x="-580.29553"
       style="font-style:normal;font-variant:normal;font-weight:700;font-size:6.29766178px;line-height:125%;font-family:Lato;text-align:start;letter-spacing:0px;word-spacing:0px;text-anchor:start;fill:#000000;fill-opacity:1;stroke:none;stroke-width:0.26308769"
       xml:space="preserve"
       transform="scale(1.0056851,0.99434701)"><tspan
         id="tspan974"
         y="-246.58841"
         x="-580.29553"
         style="stroke-width:0.26308769"><tspan
           id="tspan972"
           style="font-style:normal;font-variant:normal;font-weight:700;font-size:6.29766178px;font-family:Lato;fill:#000000;stroke-width:0.26308769"
           dy="0"
           dx="0">Vehicle Cloud</tspan></tspan></text>
    <text
       id="text982"
       y="-206.0018"
       x="-385.07776"
       style="font-style:normal;font-variant:normal;font-weight:700;font-size:6.29766178px;line-height:125%;font-family:Lato;text-align:start;letter-spacing:0px;word-spacing:0px;text-anchor:start;fill:#000000;fill-opacity:1;stroke:none;stroke-width:0.26308769"
       xml:space="preserve"
       transform="scale(1.0056851,0.99434701)"><tspan
         id="tspan980"
         y="-206.0018"
         x="-385.07776"
         style="stroke-width:0.26308769"><tspan
           id="tspan978"
           style="font-style:normal;font-variant:normal;font-weight:700;font-size:6.29766178px;font-family:Lato;fill:#000000;stroke-width:0.26308769"
           dy="0"
           dx="0">Vehicle </tspan></tspan></text>
    <text
       id="text988"
       y="-198.43501"
       x="-385.07776"
       style="font-style:normal;font-variant:normal;font-weight:700;font-size:6.29766178px;line-height:125%;font-family:Lato;text-align:start;letter-spacing:0px;word-spacing:0px;text-anchor:start;fill:#000000;fill-opacity:1;stroke:none;stroke-width:0.26308769"
       xml:space="preserve"
       transform="scale(1.0056851,0.99434701)"><tspan
         id="tspan986"
         y="-198.43501"
         x="-385.07776"
         style="stroke-width:0.26308769"><tspan
           id="tspan984"
           style="font-style:normal;font-variant:normal;font-weight:700;font-size:6.29766178px;font-family:Lato;fill:#000000;stroke-width:0.26308769"
           dy="0"
           dx="0">Fleet B.2</tspan></tspan></text>
    <path
       id="path990"
       d="m -406.29983,-196.5372 h 12.00656 c 0.54959,0 0.9935,-0.43885 0.9935,-0.98222 v -4.91156 h -13.99356 v 4.91156 c 0,0.54337 0.45447,0.98222 0.9935,0.98222 z"
       style="fill:#000000;fill-opacity:1;fill-rule:evenodd;stroke:none;stroke-width:0.2630876"
       inkscape:connector-curvature="0" />
    <path
       id="path992"
       d="m -406.29983,-196.5372 h 12.00656 c 0.54959,0 0.9935,-0.43885 0.9935,-0.98222 v -4.91156 h -13.99356 v 4.91156 c 0,0.54337 0.45447,0.98222 0.9935,0.98222 z"
       style="fill:none;stroke:#000000;stroke-width:0.5464884px;stroke-linecap:butt;stroke-linejoin:miter;stroke-miterlimit:8;stroke-dasharray:none;stroke-opacity:1"
       inkscape:connector-curvature="0" />
    <path
       id="path994"
       d="m -406.29983,-196.72525 c 0,-0.18815 0.14797,-0.33445 0.33821,-0.33445 h 1.32115 c 0.17967,0 0.32764,0.1463 0.32764,0.33445 v 2.30939 c 0,0.17772 -0.14797,0.324 -0.32764,0.324 h -1.32115 c -0.19024,0 -0.33821,-0.14628 -0.33821,-0.324 z"
       style="fill:#000000;fill-opacity:1;fill-rule:evenodd;stroke:none;stroke-width:0.2630876"
       inkscape:connector-curvature="0" />
    <path
       id="path996"
       d="m -396.32256,-196.72525 c 0,-0.18815 0.14797,-0.33445 0.33821,-0.33445 h 1.32115 c 0.17967,0 0.32765,0.1463 0.32765,0.33445 v 2.30939 c 0,0.17772 -0.14798,0.324 -0.32765,0.324 h -1.32115 c -0.19024,0 -0.33821,-0.14628 -0.33821,-0.324 z"
       style="fill:#000000;fill-opacity:1;fill-rule:evenodd;stroke:none;stroke-width:0.2630876"
       inkscape:connector-curvature="0" />
    <path
       id="path998"
       d="m -406.29983,-198.91979 c 0,-0.53293 0.45447,-0.98222 0.9935,-0.98222 0.5496,0 0.9935,0.44929 0.9935,0.98222 0,0.54346 -0.4439,0.98231 -0.9935,0.98231 -0.53903,0 -0.9935,-0.43885 -0.9935,-0.98231 z"
       style="fill:#ffffff;fill-opacity:1;fill-rule:evenodd;stroke:none;stroke-width:0.2630876"
       inkscape:connector-curvature="0" />
    <path
       id="path1000"
       d="m -396.32256,-198.91979 c 0,-0.53293 0.45447,-0.98222 0.9935,-0.98222 0.5496,0 0.99351,0.44929 0.99351,0.98222 0,0.54346 -0.44391,0.98231 -0.99351,0.98231 -0.53903,0 -0.9935,-0.43885 -0.9935,-0.98231 z"
       style="fill:#ffffff;fill-opacity:1;fill-rule:evenodd;stroke:none;stroke-width:0.2630876"
       inkscape:connector-curvature="0" />
    <path
       id="path1002"
       d="m -407.29333,-209.7877 v 6.89697 h 13.99356 v -6.89697 z"
       style="fill:#ffffff;fill-opacity:1;fill-rule:evenodd;stroke:none;stroke-width:0.2630876"
       inkscape:connector-curvature="0" />
    <path
       id="path1004"
       d="m -407.29333,-209.7877 h 13.99356 v 6.89697 h -13.99356 z"
       style="fill:none;stroke:#000000;stroke-width:0.5464884px;stroke-linecap:butt;stroke-linejoin:miter;stroke-miterlimit:8;stroke-dasharray:none;stroke-opacity:1"
       inkscape:connector-curvature="0" />
    <path
       id="path1006"
       d="m -406.78601,-212.75553 h 12.98949 c 0.27479,0 0.49675,0.22992 0.49675,0.5016 v 2.46623 h -13.99356 v -2.46623 c 0,-0.27168 0.23252,-0.5016 0.50732,-0.5016 z"
       style="fill:#000000;fill-opacity:1;fill-rule:evenodd;stroke:none;stroke-width:0.2630876"
       inkscape:connector-curvature="0" />
    <path
       id="path1008"
       d="m -406.78601,-212.75553 h 12.98949 c 0.27479,0 0.49675,0.22992 0.49675,0.5016 v 2.46623 h -13.99356 v -2.46623 c 0,-0.27168 0.23252,-0.5016 0.50732,-0.5016 z"
       style="fill:none;stroke:#000000;stroke-width:0.5464884px;stroke-linecap:butt;stroke-linejoin:miter;stroke-miterlimit:8;stroke-dasharray:none;stroke-opacity:1"
       inkscape:connector-curvature="0" />
    <path
       id="path1010"
       d="m -404.31283,-211.98225 v 1.37939 h 7.99027 v -1.37939 z"
       style="fill:#ffffff;fill-opacity:1;fill-rule:evenodd;stroke:none;stroke-width:0.2630876"
       inkscape:connector-curvature="0" />
    <path
       id="path1012"
       d="m -391.5453,-217.85515 v -7.87929 h -1.60651 v 7.87929 z m 1.6065,-7.08503 -2.40975,-4.76521 -2.40978,4.76521 z"
       style="fill:#000000;fill-opacity:1;fill-rule:nonzero;stroke:#000000;stroke-width:0.01050939px;stroke-linecap:butt;stroke-linejoin:round;stroke-miterlimit:10;stroke-dasharray:none;stroke-opacity:1"
       inkscape:connector-curvature="0" />
    <path
       id="path1014"
       d="m -406.51121,-229.70539 v 7.87923 h -1.60651 v -7.87923 z m 1.60651,7.08506 -2.40977,4.76518 -2.40976,-4.76518 z"
       style="fill:#000000;fill-opacity:1;fill-rule:nonzero;stroke:#000000;stroke-width:0.01050939px;stroke-linecap:butt;stroke-linejoin:round;stroke-miterlimit:10;stroke-dasharray:none;stroke-opacity:1"
       inkscape:connector-curvature="0" />
    <path
       id="path1016"
       d="m -402.49494,-217.85515 v -7.87929 h -1.60651 v 7.87929 z m 1.60651,-7.08503 -2.40976,-4.76521 -2.40977,4.76521 z"
       style="fill:#000000;fill-opacity:1;fill-rule:nonzero;stroke:#000000;stroke-width:0.01050939px;stroke-linecap:butt;stroke-linejoin:round;stroke-miterlimit:10;stroke-dasharray:none;stroke-opacity:1"
       inkscape:connector-curvature="0" />
    <path
       id="path1018"
       d="m -440.73411,-299.52174 c -0.69756,-2.97826 2.89594,-5.73705 8.02199,-6.14459 2.07155,-0.15677 4.18538,0.0832 5.9927,0.7001 1.91302,-2.10041 6.39433,-2.90507 9.99841,-1.78692 0.63415,0.19856 1.21545,0.44936 1.72277,0.74196 1.49025,-1.74516 5.12604,-2.45577 8.11711,-1.58843 0.82439,0.24036 1.55366,0.58523 2.11383,1.02413 2.39919,-1.65113 6.64799,-1.86009 9.49109,-0.45978 1.19432,0.58518 1.99757,1.40028 2.27237,2.28852 3.94228,0.62699 6.26749,3.00959 5.18944,5.30861 -0.0845,0.19851 -0.20081,0.38666 -0.33822,0.56427 3.16018,2.40349 2.38863,5.84158 -1.72276,7.68072 -1.28943,0.57478 -2.80082,0.95098 -4.39676,1.08683 -0.0317,2.58117 -3.65693,4.65022 -8.0854,4.62934 -1.47968,0 -2.92765,-0.2508 -4.18538,-0.71062 -1.50082,2.89467 -6.72198,4.53534 -11.66834,3.65753 -2.08212,-0.36573 -3.86831,-1.13906 -5.07319,-2.19451 -5.07318,1.77648 -11.64719,0.82557 -14.69111,-2.14223 -0.0423,-0.0423 -0.074,-0.0727 -0.11626,-0.11497 -3.31871,0.22992 -6.32035,-1.14948 -6.71141,-3.08276 -0.20081,-1.02409 0.38049,-2.05862 1.59594,-2.81102 -2.87482,-0.98232 -3.8366,-3.14543 -2.1561,-4.83837 0.97236,-0.96135 2.67399,-1.60928 4.57644,-1.72421 z"
       style="fill:#ffffff;fill-opacity:1;fill-rule:evenodd;stroke:none;stroke-width:0.2630876"
       inkscape:connector-curvature="0" />
    <path
       id="path1020"
       d="m -440.73411,-299.52174 c -0.69756,-2.97826 2.89594,-5.73705 8.02199,-6.14459 2.07155,-0.15677 4.18538,0.0832 5.9927,0.7001 1.91302,-2.10041 6.39433,-2.90507 9.99841,-1.78692 0.63415,0.19856 1.21545,0.44936 1.72277,0.74196 1.49025,-1.74516 5.12604,-2.45577 8.11711,-1.58843 0.82439,0.24036 1.55366,0.58523 2.11383,1.02413 2.39919,-1.65113 6.64799,-1.86009 9.49109,-0.45978 1.19432,0.58518 1.99757,1.40028 2.27237,2.28852 3.94228,0.62699 6.26749,3.00959 5.18944,5.30861 -0.0845,0.19851 -0.20081,0.38666 -0.33822,0.56427 3.16018,2.40349 2.38863,5.84158 -1.72276,7.68072 -1.28943,0.57478 -2.80082,0.95098 -4.39676,1.08683 -0.0317,2.58117 -3.65693,4.65022 -8.0854,4.62934 -1.47968,0 -2.92765,-0.2508 -4.18538,-0.71062 -1.50082,2.89467 -6.72198,4.53534 -11.66834,3.65753 -2.08212,-0.36573 -3.86831,-1.13906 -5.07319,-2.19451 -5.07318,1.77648 -11.64719,0.82557 -14.69111,-2.14223 -0.0423,-0.0423 -0.074,-0.0727 -0.11626,-0.11497 -3.31871,0.22992 -6.32035,-1.14948 -6.71141,-3.08276 -0.20081,-1.02409 0.38049,-2.05862 1.59594,-2.81102 -2.87482,-0.98232 -3.8366,-3.14543 -2.1561,-4.83837 0.97236,-0.96135 2.67399,-1.60928 4.57644,-1.72421 z"
       style="fill:none;stroke:#000000;stroke-width:0.5464884px;stroke-linecap:butt;stroke-linejoin:miter;stroke-miterlimit:8;stroke-dasharray:none;stroke-opacity:1"
       inkscape:connector-curvature="0" />
    <path
       id="path1022"
       d="m -439.63492,-292.49936 c -1.22602,0.0528 -2.45204,-0.11496 -3.50895,-0.48072 m 6.60571,5.66388 c -0.48618,0.10451 -1.00407,0.18814 -1.53253,0.21946 m 14.77567,2.26764 c -0.36992,-0.32392 -0.67642,-0.66877 -0.91951,-1.03452 m 18.0521,-1.54659 c -0.0528,0.38666 -0.17968,0.76286 -0.36992,1.13906 m 7.71547,-8.151 c 2.77969,0.79419 4.53418,2.44528 4.51304,4.24267 m 6.13009,-8.75706 c -0.45447,0.61654 -1.14147,1.15995 -2.00814,1.58836 m -2.81138,-7.48218 c 0.074,0.2508 0.10569,0.5016 0.10569,0.7524 m -12.92607,-1.6302 c 0.25366,-0.34483 0.60244,-0.66879 1.02521,-0.95091 m -10.6537,1.41072 c 0.11626,-0.29258 0.27479,-0.5643 0.50731,-0.82555 m -11.79516,1.10767 c 0.65529,0.21948 1.25773,0.49116 1.80732,0.79426 m -15.49437,5.49669 c -0.14796,-0.27173 -0.25365,-0.55389 -0.31707,-0.84646"
       style="fill:none;stroke:#000000;stroke-width:0.5464884px;stroke-linecap:butt;stroke-linejoin:miter;stroke-miterlimit:8;stroke-dasharray:none;stroke-opacity:1"
       inkscape:connector-curvature="0" />
    <path
       id="path1024"
       d="m -403.08681,-295.03868 v 3.97093 h 9.97728 v -3.97093 z"
       style="fill:#ffffff;fill-opacity:1;fill-rule:evenodd;stroke:none;stroke-width:0.2630876"
       inkscape:connector-curvature="0" />
    <path
       id="path1026"
       d="m -442.19265,-294.11912 v 3.92918 h 9.97728 v -3.92918 z"
       style="fill:#ffffff;fill-opacity:1;fill-rule:evenodd;stroke:none;stroke-width:0.2630876"
       inkscape:connector-curvature="0" />
    <text
       id="text1032"
       y="-294.50406"
       x="-435.99481"
       style="font-style:normal;font-variant:normal;font-weight:700;font-size:6.29766178px;line-height:125%;font-family:Lato;text-align:start;letter-spacing:0px;word-spacing:0px;text-anchor:start;fill:#000000;fill-opacity:1;stroke:none;stroke-width:0.26308769"
       xml:space="preserve"
       transform="scale(1.0056851,0.99434701)"><tspan
         id="tspan1030"
         y="-294.50406"
         x="-435.99481"
         style="stroke-width:0.26308769"><tspan
           id="tspan1028"
           style="font-style:normal;font-variant:normal;font-weight:700;font-size:6.29766178px;font-family:Lato;fill:#000000;stroke-width:0.26308769"
           dy="0"
           dx="0">Service Cloud B</tspan></tspan></text>
    <text
       id="text1038"
       y="-206.0018"
       x="-471.98907"
       style="font-style:normal;font-variant:normal;font-weight:700;font-size:6.29766178px;line-height:125%;font-family:Lato;text-align:start;letter-spacing:0px;word-spacing:0px;text-anchor:start;fill:#000000;fill-opacity:1;stroke:none;stroke-width:0.26308769"
       xml:space="preserve"
       transform="scale(1.0056851,0.99434701)"><tspan
         id="tspan1036"
         y="-206.0018"
         x="-471.98907"
         style="stroke-width:0.26308769"><tspan
           id="tspan1034"
           style="font-style:normal;font-variant:normal;font-weight:700;font-size:6.29766178px;font-family:Lato;fill:#000000;stroke-width:0.26308769"
           dy="0"
           dx="0">Vehicle</tspan></tspan></text>
    <text
       id="text1044"
       y="-198.43501"
       x="-476.27695"
       style="font-style:normal;font-variant:normal;font-weight:700;font-size:6.29766178px;line-height:125%;font-family:Lato;text-align:start;letter-spacing:0px;word-spacing:0px;text-anchor:start;fill:#000000;fill-opacity:1;stroke:none;stroke-width:0.26308769"
       xml:space="preserve"
       transform="scale(1.0056851,0.99434701)"><tspan
         id="tspan1042"
         y="-198.43501"
         x="-476.27695"
         style="stroke-width:0.26308769"><tspan
           id="tspan1040"
           style="font-style:normal;font-variant:normal;font-weight:700;font-size:6.29766178px;font-family:Lato;fill:#000000;stroke-width:0.26308769"
           dy="0"
           dx="0">Fleet B.1</tspan></tspan></text>
    <path
       id="path1046"
       d="m -447.92113,-199.37952 1.50081,-5.93566 h 10.4846 l 1.50083,5.93566 z"
       style="fill:#ffffff;fill-opacity:1;fill-rule:evenodd;stroke:none;stroke-width:0.2630876"
       inkscape:connector-curvature="0" />
    <path
       id="path1048"
       d="m -447.92113,-199.37952 1.50081,-5.93566 h 10.4846 l 1.50083,5.93566 z"
       style="fill:none;stroke:#000000;stroke-width:0.5464884px;stroke-linecap:butt;stroke-linejoin:miter;stroke-miterlimit:8;stroke-dasharray:none;stroke-opacity:1"
       inkscape:connector-curvature="0" />
    <path
       id="path1050"
       d="m -448.1748,-200.64397 c 0,-0.44938 0.38049,-0.82558 0.83497,-0.82558 h 12.33421 c 0.45447,0 0.82439,0.3762 0.82439,0.82558 v 3.29172 c 0,0.44939 -0.36992,0.81505 -0.82439,0.81505 h -12.33421 c -0.45448,0 -0.83497,-0.36566 -0.83497,-0.81505 z"
       style="fill:#000000;fill-opacity:1;fill-rule:evenodd;stroke:none;stroke-width:0.2630876"
       inkscape:connector-curvature="0" />
    <path
       id="path1052"
       d="m -448.1748,-200.64397 c 0,-0.44938 0.38049,-0.82558 0.83497,-0.82558 h 12.33421 c 0.45447,0 0.82439,0.3762 0.82439,0.82558 v 3.29172 c 0,0.44939 -0.36992,0.81505 -0.82439,0.81505 h -12.33421 c -0.45448,0 -0.83497,-0.36566 -0.83497,-0.81505 z"
       style="fill:none;stroke:#000000;stroke-width:0.5464884px;stroke-linecap:butt;stroke-linejoin:miter;stroke-miterlimit:8;stroke-dasharray:none;stroke-opacity:1"
       inkscape:connector-curvature="0" />
    <path
       id="path1054"
       d="m -447.22357,-196.72525 c 0,-0.17761 0.15854,-0.33445 0.33821,-0.33445 h 1.35286 c 0.19025,0 0.33821,0.15684 0.33821,0.33445 v 2.29895 c 0,0.18816 -0.14796,0.33444 -0.33821,0.33444 h -1.35286 c -0.17967,0 -0.33821,-0.14628 -0.33821,-0.33444 z"
       style="fill:#000000;fill-opacity:1;fill-rule:evenodd;stroke:none;stroke-width:0.2630876"
       inkscape:connector-curvature="0" />
    <path
       id="path1056"
       d="m -437.20401,-196.72525 c 0,-0.18815 0.14796,-0.33445 0.33821,-0.33445 h 1.32115 c 0.17967,0 0.32764,0.1463 0.32764,0.33445 v 2.30939 c 0,0.17772 -0.14797,0.324 -0.32764,0.324 h -1.32115 c -0.19025,0 -0.33821,-0.14628 -0.33821,-0.324 z"
       style="fill:#000000;fill-opacity:1;fill-rule:evenodd;stroke:none;stroke-width:0.2630876"
       inkscape:connector-curvature="0" />
    <path
       id="path1058"
       d="m -447.22357,-198.91979 c 0,-0.53293 0.45447,-0.98222 1.01464,-0.98222 0.56017,0 1.01464,0.44929 1.01464,0.98222 0,0.54346 -0.45447,0.98231 -1.01464,0.98231 -0.56017,0 -1.01464,-0.43885 -1.01464,-0.98231 z"
       style="fill:#ffffff;fill-opacity:1;fill-rule:evenodd;stroke:none;stroke-width:0.2630876"
       inkscape:connector-curvature="0" />
    <path
       id="path1060"
       d="m -437.20401,-198.91979 c 0,-0.53293 0.45447,-0.98222 0.99349,-0.98222 0.54961,0 0.99351,0.44929 0.99351,0.98222 0,0.54346 -0.4439,0.98231 -0.99351,0.98231 -0.53902,0 -0.99349,-0.43885 -0.99349,-0.98231 z"
       style="fill:#ffffff;fill-opacity:1;fill-rule:evenodd;stroke:none;stroke-width:0.2630876"
       inkscape:connector-curvature="0" />
    <path
       id="path1062"
       d="m -433.12432,-206.81997 1.50082,-5.93556 h 10.48459 l 1.50082,5.93556 z"
       style="fill:#ffffff;fill-opacity:1;fill-rule:evenodd;stroke:none;stroke-width:0.2630876"
       inkscape:connector-curvature="0" />
    <path
       id="path1064"
       d="m -433.12432,-206.81997 1.50082,-5.93556 h 10.48459 l 1.50082,5.93556 z"
       style="fill:none;stroke:#000000;stroke-width:0.5464884px;stroke-linecap:butt;stroke-linejoin:miter;stroke-miterlimit:8;stroke-dasharray:none;stroke-opacity:1"
       inkscape:connector-curvature="0" />
    <path
       id="path1066"
       d="m -433.3357,-208.08441 c 0,-0.44929 0.38049,-0.82549 0.83496,-0.82549 h 12.29191 c 0.45447,0 0.8244,0.3762 0.8244,0.82549 v 3.29181 c 0,0.4493 -0.36993,0.81506 -0.8244,0.81506 h -12.29191 c -0.45447,0 -0.83496,-0.36576 -0.83496,-0.81506 z"
       style="fill:#000000;fill-opacity:1;fill-rule:evenodd;stroke:none;stroke-width:0.2630876"
       inkscape:connector-curvature="0" />
    <path
       id="path1068"
       d="m -433.3357,-208.08441 c 0,-0.44929 0.38049,-0.82549 0.83496,-0.82549 h 12.29191 c 0.45447,0 0.8244,0.3762 0.8244,0.82549 v 3.29181 c 0,0.4493 -0.36993,0.81506 -0.8244,0.81506 h -12.29191 c -0.45447,0 -0.83496,-0.36576 -0.83496,-0.81506 z"
       style="fill:none;stroke:#000000;stroke-width:0.5464884px;stroke-linecap:butt;stroke-linejoin:miter;stroke-miterlimit:8;stroke-dasharray:none;stroke-opacity:1"
       inkscape:connector-curvature="0" />
    <path
       id="path1070"
       d="m -432.38448,-204.1656 c 0,-0.18814 0.14797,-0.33443 0.33822,-0.33443 h 1.32114 c 0.17967,0 0.32764,0.14629 0.32764,0.33443 v 2.30941 c 0,0.1776 -0.14797,0.32398 -0.32764,0.32398 h -1.32114 c -0.19025,0 -0.33822,-0.14638 -0.33822,-0.32398 z"
       style="fill:#000000;fill-opacity:1;fill-rule:evenodd;stroke:none;stroke-width:0.2630876"
       inkscape:connector-curvature="0" />
    <path
       id="path1072"
       d="m -422.40721,-204.1656 c 0,-0.1777 0.15854,-0.33443 0.33821,-0.33443 h 1.35285 c 0.19025,0 0.33822,0.15673 0.33822,0.33443 v 2.29896 c 0,0.18805 -0.14797,0.33443 -0.33822,0.33443 h -1.35285 c -0.17967,0 -0.33821,-0.14638 -0.33821,-0.33443 z"
       style="fill:#000000;fill-opacity:1;fill-rule:evenodd;stroke:none;stroke-width:0.2630876"
       inkscape:connector-curvature="0" />
    <path
       id="path1074"
       d="m -432.38448,-206.36014 c 0,-0.53293 0.45448,-0.98231 0.9935,-0.98231 0.5496,0 0.9935,0.44938 0.9935,0.98231 0,0.54336 -0.4439,0.98231 -0.9935,0.98231 -0.53902,0 -0.9935,-0.43895 -0.9935,-0.98231 z"
       style="fill:#ffffff;fill-opacity:1;fill-rule:evenodd;stroke:none;stroke-width:0.2630876"
       inkscape:connector-curvature="0" />
    <path
       id="path1076"
       d="m -422.40721,-206.36014 c 0,-0.53293 0.45447,-0.98231 1.01464,-0.98231 0.56016,0 1.01464,0.44938 1.01464,0.98231 0,0.54336 -0.45448,0.98231 -1.01464,0.98231 -0.56017,0 -1.01464,-0.43895 -1.01464,-0.98231 z"
       style="fill:#ffffff;fill-opacity:1;fill-rule:evenodd;stroke:none;stroke-width:0.2630876"
       inkscape:connector-curvature="0" />
    <path
       id="path1078"
       d="m -420.42021,-221.82616 v -3.90828 h -1.60651 v 3.90828 z m -3.21302,-0.79417 2.40977,4.76518 2.40976,-4.76518 z m 4.81953,-2.31985 -2.40976,-4.76521 -2.40977,4.76521 z"
       style="fill:#000000;fill-opacity:1;fill-rule:nonzero;stroke:#000000;stroke-width:0.01050939px;stroke-linecap:butt;stroke-linejoin:round;stroke-miterlimit:10;stroke-dasharray:none;stroke-opacity:1"
       inkscape:connector-curvature="0" />
    <path
       id="path1080"
       d="m -435.42839,-229.70539 v 7.87923 h -1.60652 v -7.87923 z m 1.60651,7.08506 -2.40977,4.76518 -2.40977,-4.76518 z"
       style="fill:#000000;fill-opacity:1;fill-rule:nonzero;stroke:#000000;stroke-width:0.01050939px;stroke-linecap:butt;stroke-linejoin:round;stroke-miterlimit:10;stroke-dasharray:none;stroke-opacity:1"
       inkscape:connector-curvature="0" />
    <path
       id="path1082"
       d="m -431.41212,-217.85515 v -7.87929 h -1.60651 v 7.87929 z m 1.60651,-7.08503 -2.40976,-4.76521 -2.40976,4.76521 z"
       style="fill:#000000;fill-opacity:1;fill-rule:nonzero;stroke:#000000;stroke-width:0.01050939px;stroke-linecap:butt;stroke-linejoin:round;stroke-miterlimit:10;stroke-dasharray:none;stroke-opacity:1"
       inkscape:connector-curvature="0" />
    <path
       id="path1084"
       d="m -408.66732,-265.50705 v -7.87927 h -1.6065 v 7.87927 z m 1.60651,-7.0851 -2.40976,-4.76518 -2.40977,4.76518 z"
       style="fill:#000000;fill-opacity:1;fill-rule:nonzero;stroke:#000000;stroke-width:0.01050939px;stroke-linecap:butt;stroke-linejoin:round;stroke-miterlimit:10;stroke-dasharray:none;stroke-opacity:1"
       inkscape:connector-curvature="0" />
    <path
       id="path1086"
       d="m -423.67551,-277.35733 v 7.8793 h -1.6065 v -7.8793 z m 1.60651,7.08509 -2.40976,4.76519 -2.40976,-4.76519 z"
       style="fill:#000000;fill-opacity:1;fill-rule:nonzero;stroke:#000000;stroke-width:0.01050939px;stroke-linecap:butt;stroke-linejoin:round;stroke-miterlimit:10;stroke-dasharray:none;stroke-opacity:1"
       inkscape:connector-curvature="0" />
    <path
       id="path1088"
       d="m -419.65923,-269.47803 v -3.90829 h -1.60651 v 3.90829 z m -3.21302,-0.79421 2.40976,4.76519 2.40977,-4.76519 z m 4.81953,-2.31991 -2.40977,-4.76518 -2.40976,4.76518 z"
       style="fill:#000000;fill-opacity:1;fill-rule:nonzero;stroke:#000000;stroke-width:0.01050939px;stroke-linecap:butt;stroke-linejoin:round;stroke-miterlimit:10;stroke-dasharray:none;stroke-opacity:1"
       inkscape:connector-curvature="0" />
    <path
       id="path1090"
       d="m -440.73411,-251.86984 c -0.69756,-2.9782 2.89594,-5.73699 8.02199,-6.14461 2.07155,-0.15673 4.18538,0.0832 5.9927,0.70018 1.91302,-2.10046 6.39433,-2.90508 9.99841,-1.78692 0.63415,0.19851 1.21545,0.44931 1.72277,0.74196 1.49025,-1.74515 5.12604,-2.45579 8.11711,-1.58844 0.82439,0.24036 1.55366,0.58524 2.11383,1.02409 2.39919,-1.65108 6.64799,-1.86011 9.49109,-0.45979 1.19432,0.58519 1.99757,1.40034 2.27237,2.28858 3.94228,0.627 6.26749,3.00959 5.18944,5.30854 -0.0845,0.1986 -0.20081,0.38665 -0.33822,0.56436 3.16018,2.40348 2.38863,5.84147 -1.72276,7.6807 -1.28943,0.57479 -2.80082,0.95099 -4.39676,1.08682 -0.0317,2.58109 -3.65693,4.65024 -8.0854,4.62936 -1.47968,0 -2.92765,-0.2508 -4.18538,-0.71064 -1.50082,2.89463 -6.72198,4.53527 -11.66834,3.65747 -2.08212,-0.36576 -3.86831,-1.13903 -5.07319,-2.19443 -5.07318,1.77647 -11.64719,0.82547 -14.69111,-2.14226 -0.0423,-0.0423 -0.074,-0.0727 -0.11626,-0.11493 -3.31871,0.22985 -6.32035,-1.14955 -6.71141,-3.0828 -0.20081,-1.02408 0.38049,-2.05861 1.59594,-2.81102 -2.87482,-0.9823 -3.8366,-3.14548 -2.1561,-4.83835 0.97236,-0.96143 2.67399,-1.60932 4.57644,-1.72428 z"
       style="fill:#ffffff;fill-opacity:1;fill-rule:evenodd;stroke:none;stroke-width:0.2630876"
       inkscape:connector-curvature="0" />
    <path
       id="path1092"
       d="m -440.73411,-251.86984 c -0.69756,-2.9782 2.89594,-5.73699 8.02199,-6.14461 2.07155,-0.15673 4.18538,0.0832 5.9927,0.70018 1.91302,-2.10046 6.39433,-2.90508 9.99841,-1.78692 0.63415,0.19851 1.21545,0.44931 1.72277,0.74196 1.49025,-1.74515 5.12604,-2.45579 8.11711,-1.58844 0.82439,0.24036 1.55366,0.58524 2.11383,1.02409 2.39919,-1.65108 6.64799,-1.86011 9.49109,-0.45979 1.19432,0.58519 1.99757,1.40034 2.27237,2.28858 3.94228,0.627 6.26749,3.00959 5.18944,5.30854 -0.0845,0.1986 -0.20081,0.38665 -0.33822,0.56436 3.16018,2.40348 2.38863,5.84147 -1.72276,7.6807 -1.28943,0.57479 -2.80082,0.95099 -4.39676,1.08682 -0.0317,2.58109 -3.65693,4.65024 -8.0854,4.62936 -1.47968,0 -2.92765,-0.2508 -4.18538,-0.71064 -1.50082,2.89463 -6.72198,4.53527 -11.66834,3.65747 -2.08212,-0.36576 -3.86831,-1.13903 -5.07319,-2.19443 -5.07318,1.77647 -11.64719,0.82547 -14.69111,-2.14226 -0.0423,-0.0423 -0.074,-0.0727 -0.11626,-0.11493 -3.31871,0.22985 -6.32035,-1.14955 -6.71141,-3.0828 -0.20081,-1.02408 0.38049,-2.05861 1.59594,-2.81102 -2.87482,-0.9823 -3.8366,-3.14548 -2.1561,-4.83835 0.97236,-0.96143 2.67399,-1.60932 4.57644,-1.72428 z"
       style="fill:none;stroke:#000000;stroke-width:0.5464884px;stroke-linecap:butt;stroke-linejoin:miter;stroke-miterlimit:8;stroke-dasharray:none;stroke-opacity:1"
       inkscape:connector-curvature="0" />
    <path
       id="path1094"
       d="m -439.63492,-244.84742 c -1.22602,0.0528 -2.45204,-0.11494 -3.50895,-0.4807 m 6.60571,5.66388 c -0.48618,0.10452 -1.00407,0.18809 -1.53253,0.21948 m 14.77567,2.26763 c -0.36992,-0.324 -0.67642,-0.66881 -0.91951,-1.03452 m 18.0521,-1.54667 c -0.0528,0.38664 -0.17968,0.76284 -0.36992,1.13904 m 7.71547,-8.15097 c 2.77969,0.79423 4.53418,2.44533 4.51304,4.2427 m 6.13009,-8.7571 c -0.45447,0.61656 -1.14147,1.15993 -2.00814,1.58844 m -2.81138,-7.48223 c 0.074,0.2508 0.10569,0.5016 0.10569,0.7524 m -12.92607,-1.63019 c 0.25366,-0.34485 0.60244,-0.66876 1.02521,-0.95094 m -10.6537,1.41078 c 0.11626,-0.29266 0.27479,-0.56436 0.50731,-0.82559 m -11.79516,1.10771 c 0.65529,0.21948 1.25773,0.49116 1.80732,0.79417 m -15.49437,5.4967 c -0.14796,-0.27169 -0.25365,-0.55381 -0.31707,-0.84644"
       style="fill:none;stroke:#000000;stroke-width:0.5464884px;stroke-linecap:butt;stroke-linejoin:miter;stroke-miterlimit:8;stroke-dasharray:none;stroke-opacity:1"
       inkscape:connector-curvature="0" />
    <path
       id="path1096"
       d="m -403.08681,-247.38681 v 3.97102 h 9.97728 v -3.97102 z"
       style="fill:#ffffff;fill-opacity:1;fill-rule:evenodd;stroke:none;stroke-width:0.2630876"
       inkscape:connector-curvature="0" />
    <path
       id="path1098"
       d="m -442.19265,-246.46716 v 3.92916 h 9.97728 v -3.92916 z"
       style="fill:#ffffff;fill-opacity:1;fill-rule:evenodd;stroke:none;stroke-width:0.2630876"
       inkscape:connector-curvature="0" />
    <text
       id="text1104"
       y="-246.58841"
       x="-436.14899"
       style="font-style:normal;font-variant:normal;font-weight:700;font-size:6.29766178px;line-height:125%;font-family:Lato;text-align:start;letter-spacing:0px;word-spacing:0px;text-anchor:start;fill:#000000;fill-opacity:1;stroke:none;stroke-width:0.26308769"
       xml:space="preserve"
       transform="scale(1.0056851,0.99434701)"><tspan
         id="tspan1102"
         y="-246.58841"
         x="-436.14899"
         style="stroke-width:0.26308769"><tspan
           id="tspan1100"
           style="font-style:normal;font-variant:normal;font-weight:700;font-size:6.29766178px;font-family:Lato;fill:#000000;stroke-width:0.26308769"
           dy="0"
           dx="0">Vehicle Cloud B</tspan></tspan></text>
    <path
       id="path1106"
       d="m -525.09697,-299.6367 h 65.89859 v -1.58841 h -65.89859 z m 65.09534,1.58841 4.81952,-2.3826 -4.81952,-2.3826 z"
       style="fill:#000000;fill-opacity:1;fill-rule:nonzero;stroke:#000000;stroke-width:0.01050939px;stroke-linecap:butt;stroke-linejoin:round;stroke-miterlimit:4;stroke-dasharray:none;stroke-opacity:1"
       inkscape:connector-curvature="0" />
    <path
       id="path1108"
       d="m -459.19838,-295.66569 h -61.8823 v -1.58842 h 61.8823 z m -0.80325,-3.17684 4.81952,2.38258 -4.81952,2.38261 z m -60.2758,4.76519 -4.81954,-2.38261 4.81954,-2.38258 z"
       style="fill:#000000;fill-opacity:1;fill-rule:nonzero;stroke:#000000;stroke-width:0.01050939px;stroke-linecap:butt;stroke-linejoin:round;stroke-miterlimit:4;stroke-dasharray:none;stroke-opacity:1"
       inkscape:connector-curvature="0" />
    <path
       id="path1110"
       d="m -455.18211,-284.83954 h -65.89857 v -1.58839 h 65.89857 z m -65.09532,1.58843 -4.81954,-2.38261 4.81954,-2.38258 z"
       style="fill:#000000;fill-opacity:1;fill-rule:nonzero;stroke:#000000;stroke-width:0.01050939px;stroke-linecap:butt;stroke-linejoin:round;stroke-miterlimit:4;stroke-dasharray:none;stroke-opacity:1"
       inkscape:connector-curvature="0" />
    <text
       id="text1116"
       y="-305.68866"
       x="-502.84845"
       style="font-style:normal;font-variant:normal;font-weight:700;font-size:5.59061289px;line-height:125%;font-family:Lato;text-align:start;letter-spacing:0px;word-spacing:0px;text-anchor:start;fill:#000000;fill-opacity:1;stroke:none;stroke-width:0.26308769"
       xml:space="preserve"
       transform="scale(1.0056851,0.99434701)"><tspan
         id="tspan1114"
         y="-305.68866"
         x="-502.84845"
         style="stroke-width:0.26308769"><tspan
           id="tspan1112"
           style="font-style:normal;font-variant:normal;font-weight:700;font-size:5.59061289px;font-family:Lato;fill:#000000;stroke-width:0.26308769"
           dy="0"
           dx="0">Job Request</tspan></tspan></text>
    <text
       id="text1122"
       y="-279.42416"
       x="-493.49667"
       style="font-style:normal;font-variant:normal;font-weight:700;font-size:5.59061289px;line-height:125%;font-family:Lato;text-align:start;letter-spacing:0px;word-spacing:0px;text-anchor:start;fill:#000000;fill-opacity:1;stroke:none;stroke-width:0.26308769"
       xml:space="preserve"
       transform="scale(1.0056851,0.99434701)"><tspan
         id="tspan1120"
         y="-279.42416"
         x="-493.49667"
         style="stroke-width:0.26308769"><tspan
           id="tspan1118"
           style="font-style:normal;font-variant:normal;font-weight:700;font-size:5.59061289px;font-family:Lato;fill:#000000;stroke-width:0.26308769"
           dy="0"
           dx="0">Data</tspan></tspan></text>
    <text
       id="text1128"
       y="-290.53662"
       x="-500.12451"
       style="font-style:normal;font-variant:normal;font-weight:700;font-size:5.59061289px;line-height:125%;font-family:Lato;text-align:start;letter-spacing:0px;word-spacing:0px;text-anchor:start;fill:#000000;fill-opacity:1;stroke:none;stroke-width:0.26308769"
       xml:space="preserve"
       transform="scale(1.0056851,0.99434701)"><tspan
         id="tspan1126"
         y="-290.53662"
         x="-500.12451"
         style="stroke-width:0.26308769"><tspan
           id="tspan1124"
           style="font-style:normal;font-variant:normal;font-weight:700;font-size:5.59061289px;font-family:Lato;fill:#000000;stroke-width:0.26308769"
           dy="0"
           dx="0">Job Status</tspan></tspan></text>
    <path
       id="path1130"
       d="m -517.07498,-278.29787 57.10506,32.60399 0.79268,-1.3585 -57.10505,-32.60395 z m 55.62538,33.56539 5.31627,0.31349 -2.93822,-4.38898 z"
       style="fill:#000000;fill-opacity:1;fill-rule:nonzero;stroke:#000000;stroke-width:0.01050939px;stroke-linecap:butt;stroke-linejoin:round;stroke-miterlimit:4;stroke-dasharray:none;stroke-opacity:1"
       inkscape:connector-curvature="0" />
    <path
       id="path1132"
       d="m -461.96749,-242.27675 -53.67009,-30.63937 0.79269,-1.35846 53.67008,30.63932 z m 0.90894,-3.10367 2.92766,4.37855 -5.3057,-0.31345 z m -54.68472,-25.79054 -2.92765,-4.389 5.30571,0.32398 z"
       style="fill:#000000;fill-opacity:1;fill-rule:nonzero;stroke:#000000;stroke-width:0.01050939px;stroke-linecap:butt;stroke-linejoin:round;stroke-miterlimit:4;stroke-dasharray:none;stroke-opacity:1"
       inkscape:connector-curvature="0" />
    <path
       id="path1134"
       d="m -464.0179,-230.90715 -57.11563,-32.60395 0.79269,-1.35847 57.11563,32.60391 z m -57.22132,-30.85883 -2.92766,-4.38901 5.30572,0.324 z"
       style="fill:#000000;fill-opacity:1;fill-rule:nonzero;stroke:#000000;stroke-width:0.01050939px;stroke-linecap:butt;stroke-linejoin:round;stroke-miterlimit:4;stroke-dasharray:none;stroke-opacity:1"
       inkscape:connector-curvature="0" />
  </g>
</svg>
