<?xml version="1.0" encoding="UTF-8" standalone="no"?>
<svg
   xmlns:dc="http://purl.org/dc/elements/1.1/"
   xmlns:cc="http://creativecommons.org/ns#"
   xmlns:rdf="http://www.w3.org/1999/02/22-rdf-syntax-ns#"
   xmlns:svg="http://www.w3.org/2000/svg"
   xmlns="http://www.w3.org/2000/svg"
   viewBox="0 0 636.67459 609.58836"
   id="svg1294"
   height="80.643463mm"
   width="84.226746mm"
   version="1.0">
  <metadata
     id="metadata1298">
    <rdf:RDF>
      <cc:Work
         rdf:about="">
        <dc:format>image/svg+xml</dc:format>
        <dc:type
           rdf:resource="http://purl.org/dc/dcmitype/StillImage" />
        <dc:title></dc:title>
      </cc:Work>
    </rdf:RDF>
  </metadata>
  <defs
     id="defs1036">
    <clipPath
       id="clipEmfPath1"
       clipPathUnits="userSpaceOnUse">
      <path
         id="path1032"
         d="M -15.179616,8.3088426 H 651.12564 V 619.32834 H -15.179616 Z" />
    </clipPath>
    <pattern
       y="0"
       x="0"
       height="6"
       width="6"
       patternUnits="userSpaceOnUse"
       id="EMFhbasepattern" />
  </defs>
  <path
     id="path1038"
     d="m 105.62087,482.71876 c 0,-13.86138 11.30482,-25.1662 25.16621,-25.1662 H 608.8651 c 13.90133,0 25.1662,11.30482 25.1662,25.1662 v 100.66483 c 0,13.90133 -11.26487,25.1662 -25.1662,25.1662 H 130.78708 c -13.86139,0 -25.16621,-11.26487 -25.16621,-25.1662 z"
     style="fill:#ffffff;fill-opacity:1;fill-rule:evenodd;stroke:none" />
  <path
     transform="translate(0.00269825,-9.0209144)"
     id="path1040"
     d="m 105.61817,491.73967 c 0,-13.86138 11.30482,-25.1662 25.16621,-25.1662 H 608.8624 c 13.90133,0 25.1662,11.30482 25.1662,25.1662 V 592.4045 c 0,13.90133 -11.26487,25.1662 -25.1662,25.1662 H 130.78438 c -13.86139,0 -25.16621,-11.26487 -25.16621,-25.1662 z"
     clip-path="url(#clipEmfPath1)"
     style="fill:none;stroke:#000000;stroke-width:2.07721066px;stroke-linecap:butt;stroke-linejoin:miter;stroke-miterlimit:8;stroke-dasharray:none;stroke-opacity:1" />
  <path
     id="path1042"
     d="m 291.73096,336.39525 -69.48669,69.48669 -4.23432,-4.23431 69.46672,-69.48669 z m -63.13522,71.60385 -19.05442,6.35147 6.35147,-19.05441 z"
     style="fill:#000000;fill-opacity:1;fill-rule:nonzero;stroke:#000000;stroke-width:0.01997318px;stroke-linecap:butt;stroke-linejoin:round;stroke-miterlimit:10;stroke-dasharray:none;stroke-opacity:1" />
  <text
     id="text1048"
     y="347.69565"
     x="113.66634"
     style="font-style:normal;font-variant:normal;font-weight:700;font-size:21.25px;line-height:125%;font-family:Lato;text-align:start;letter-spacing:0px;word-spacing:0px;text-anchor:start;fill:#000000;fill-opacity:1;stroke:none"
     xml:space="preserve"><tspan
       id="tspan1046"
       y="347.69565"
       x="113.66634"><tspan
         id="tspan1044"
         style="font-style:normal;font-variant:normal;font-weight:700;font-size:21.25px;font-family:Lato;fill:#000000"
         dy="0"
         dx="0">Job </tspan></tspan></text>
  <text
     id="text1054"
     y="347.69565"
     x="152.4942"
     style="font-style:normal;font-variant:normal;font-weight:700;font-size:21.25px;line-height:125%;font-family:Lato;text-align:start;letter-spacing:0px;word-spacing:0px;text-anchor:start;fill:#000000;fill-opacity:1;stroke:none"
     xml:space="preserve"><tspan
       id="tspan1052"
       y="347.69565"
       x="152.4942"><tspan
         id="tspan1050"
         style="font-style:normal;font-variant:normal;font-weight:700;font-size:21.25px;font-family:Lato;fill:#000000"
         dy="0"
         dx="0">Request</tspan></tspan></text>
  <text
     id="text1060"
     y="373.26132"
     x="113.66634"
     style="font-style:normal;font-variant:normal;font-weight:700;font-size:21.25px;line-height:125%;font-family:Lato;text-align:start;letter-spacing:0px;word-spacing:0px;text-anchor:start;fill:#000000;fill-opacity:1;stroke:none"
     xml:space="preserve"><tspan
       id="tspan1058"
       y="373.26132"
       x="113.66634"><tspan
         id="tspan1056"
         style="font-style:normal;font-variant:normal;font-weight:700;font-size:21.25px;font-family:Lato;fill:#7f7f7f"
         dy="0"
         dx="0">job_id.1</tspan></tspan></text>
  <path
     id="path1062"
     d="m 231.17228,435.98152 69.46671,-69.46671 -4.23431,-4.25429 -69.48669,69.48669 z m 71.58387,-63.11524 6.35147,-19.07439 -19.05441,6.35147 z"
     style="fill:#000000;fill-opacity:1;fill-rule:nonzero;stroke:#000000;stroke-width:0.01997318px;stroke-linecap:butt;stroke-linejoin:round;stroke-miterlimit:4;stroke-dasharray:none;stroke-opacity:1" />
  <text
     id="text1068"
     y="411.04114"
     x="293.93924"
     style="font-style:normal;font-variant:normal;font-weight:700;font-size:21.25px;line-height:125%;font-family:Lato;text-align:start;letter-spacing:0px;word-spacing:0px;text-anchor:start;fill:#000000;fill-opacity:1;stroke:none"
     xml:space="preserve"><tspan
       id="tspan1066"
       y="411.04114"
       x="293.93924"><tspan
         id="tspan1064"
         style="font-style:normal;font-variant:normal;font-weight:700;font-size:21.25px;font-family:Lato;fill:#000000"
         dy="0"
         dx="0">Data</tspan></tspan></text>
  <text
     id="text1074"
     y="436.60681"
     x="293.93924"
     style="font-style:normal;font-variant:normal;font-weight:700;font-size:21.25px;line-height:125%;font-family:Lato;text-align:start;letter-spacing:0px;word-spacing:0px;text-anchor:start;fill:#000000;fill-opacity:1;stroke:none"
     xml:space="preserve"><tspan
       id="tspan1072"
       y="436.60681"
       x="293.93924"><tspan
         id="tspan1070"
         style="font-style:normal;font-variant:normal;font-weight:700;font-size:21.25px;font-family:Lato;fill:#7f7f7f"
         dy="0"
         dx="0">job_id.1</tspan></tspan></text>
  <text
     id="text1080"
     y="347.73782"
     x="521.03766"
     style="font-style:normal;font-variant:normal;font-weight:700;font-size:21.25px;line-height:125%;font-family:Lato;text-align:start;letter-spacing:0px;word-spacing:0px;text-anchor:start;fill:#000000;fill-opacity:1;stroke:none"
     xml:space="preserve"><tspan
       id="tspan1078"
       y="347.73782"
       x="521.03766"><tspan
         id="tspan1076"
         style="font-style:normal;font-variant:normal;font-weight:700;font-size:21.25px;font-family:Lato;fill:#000000"
         dy="0"
         dx="0">Job </tspan></tspan></text>
  <text
     id="text1086"
     y="347.73782"
     x="559.86548"
     style="font-style:normal;font-variant:normal;font-weight:700;font-size:21.25px;line-height:125%;font-family:Lato;text-align:start;letter-spacing:0px;word-spacing:0px;text-anchor:start;fill:#000000;fill-opacity:1;stroke:none"
     xml:space="preserve"><tspan
       id="tspan1084"
       y="347.73782"
       x="559.86548"><tspan
         id="tspan1082"
         style="font-style:normal;font-variant:normal;font-weight:700;font-size:21.25px;font-family:Lato;fill:#000000"
         dy="0"
         dx="0">Request</tspan></tspan></text>
  <text
     id="text1092"
     y="373.3035"
     x="521.03766"
     style="font-style:normal;font-variant:normal;font-weight:700;font-size:21.25px;line-height:125%;font-family:Lato;text-align:start;letter-spacing:0px;word-spacing:0px;text-anchor:start;fill:#000000;fill-opacity:1;stroke:none"
     xml:space="preserve"><tspan
       id="tspan1090"
       y="373.3035"
       x="521.03766"><tspan
         id="tspan1088"
         style="font-style:normal;font-variant:normal;font-weight:700;font-size:21.25px;font-family:Lato;fill:#7f7f7f"
         dy="0"
         dx="0">job_id.2</tspan></tspan></text>
  <path
     id="path1094"
     d="m 435.05849,351.73465 69.50666,69.46672 -4.23431,4.23432 -69.50666,-69.46672 z m 71.62382,63.11525 6.35147,19.05441 -19.05441,-6.35147 z"
     style="fill:#000000;fill-opacity:1;fill-rule:nonzero;stroke:#000000;stroke-width:0.03994636px;stroke-linecap:butt;stroke-linejoin:round;stroke-miterlimit:4;stroke-dasharray:none;stroke-opacity:1" />
  <path
     id="path1096"
     d="m 534.64476,412.29333 -69.46672,-69.46671 -4.23431,4.23431 69.46672,69.46672 z m -63.11524,-71.58387 -19.05442,-6.39142 6.35147,19.09436 z"
     style="fill:#000000;fill-opacity:1;fill-rule:nonzero;stroke:#000000;stroke-width:0.03994636px;stroke-linecap:butt;stroke-linejoin:round;stroke-miterlimit:4;stroke-dasharray:none;stroke-opacity:1" />
  <text
     id="text1102"
     y="411.08331"
     x="388.93155"
     style="font-style:normal;font-variant:normal;font-weight:700;font-size:21.25px;line-height:125%;font-family:Lato;text-align:start;letter-spacing:0px;word-spacing:0px;text-anchor:start;fill:#000000;fill-opacity:1;stroke:none"
     xml:space="preserve"><tspan
       id="tspan1100"
       y="411.08331"
       x="388.93155"><tspan
         id="tspan1098"
         style="font-style:normal;font-variant:normal;font-weight:700;font-size:21.25px;font-family:Lato;fill:#000000"
         dy="0"
         dx="0">Data</tspan></tspan></text>
  <text
     id="text1108"
     y="436.64899"
     x="388.93155"
     style="font-style:normal;font-variant:normal;font-weight:700;font-size:21.25px;line-height:125%;font-family:Lato;text-align:start;letter-spacing:0px;word-spacing:0px;text-anchor:start;fill:#000000;fill-opacity:1;stroke:none"
     xml:space="preserve"><tspan
       id="tspan1106"
       y="436.64899"
       x="388.93155"><tspan
         id="tspan1104"
         style="font-style:normal;font-variant:normal;font-weight:700;font-size:21.25px;font-family:Lato;fill:#7f7f7f"
         dy="0"
         dx="0">job_id.2</tspan></tspan></text>
  <text
     id="text1114"
     y="510.40829"
     x="0.13165624"
     style="font-style:normal;font-variant:normal;font-weight:700;font-size:23.9375px;line-height:125%;font-family:Lato;text-align:start;letter-spacing:0px;word-spacing:0px;text-anchor:start;fill:#000000;fill-opacity:1;stroke:none"
     xml:space="preserve"><tspan
       id="tspan1112"
       y="510.40829"
       x="0.13165624"><tspan
         id="tspan1110"
         style="font-style:normal;font-variant:normal;font-weight:700;font-size:23.9375px;font-family:Lato;fill:#000000"
         dy="0"
         dx="0">Vehicle</tspan></tspan></text>
  <text
     id="text1120"
     y="539.16968"
     x="25.377754"
     style="font-style:normal;font-variant:normal;font-weight:700;font-size:23.9375px;line-height:125%;font-family:Lato;text-align:start;letter-spacing:0px;word-spacing:0px;text-anchor:start;fill:#000000;fill-opacity:1;stroke:none"
     xml:space="preserve"><tspan
       id="tspan1118"
       y="539.16968"
       x="25.377754"><tspan
         id="tspan1116"
         style="font-style:normal;font-variant:normal;font-weight:700;font-size:23.9375px;font-family:Lato;fill:#000000"
         dy="0"
         dx="0">Fleet</tspan></tspan></text>
  <path
     id="path1122"
     d="m 443.56707,531.21364 5.67238,-22.68953 h 39.62679 l 5.67238,22.68953 z"
     style="fill:#ffffff;fill-opacity:1;fill-rule:evenodd;stroke:none" />
  <path
     id="path1124"
     d="m 443.56707,531.21364 5.67238,-22.68953 h 39.62679 l 5.67238,22.68953 z"
     style="fill:none;stroke:#000000;stroke-width:2.07721066px;stroke-linecap:butt;stroke-linejoin:miter;stroke-miterlimit:8;stroke-dasharray:none;stroke-opacity:1" />
  <path
     id="path1126"
     d="m 442.60835,526.53992 c 0,-1.73767 1.4181,-3.15576 3.15576,-3.15576 h 46.59743 c 1.73767,0 3.13579,1.41809 3.13579,3.15576 v 12.56313 c 0,1.73767 -1.39812,3.13579 -3.13579,3.13579 h -46.59743 c -1.73766,0 -3.15576,-1.39812 -3.15576,-3.13579 z"
     style="fill:#000000;fill-opacity:1;fill-rule:evenodd;stroke:none" />
  <path
     id="path1128"
     d="m 442.60835,526.53992 c 0,-1.73767 1.4181,-3.15576 3.15576,-3.15576 h 46.59743 c 1.73767,0 3.13579,1.41809 3.13579,3.15576 v 12.56313 c 0,1.73767 -1.39812,3.13579 -3.13579,3.13579 h -46.59743 c -1.73766,0 -3.15576,-1.39812 -3.15576,-3.13579 z"
     style="fill:none;stroke:#000000;stroke-width:2.07721066px;stroke-linecap:butt;stroke-linejoin:miter;stroke-miterlimit:8;stroke-dasharray:none;stroke-opacity:1" />
  <path
     id="path1130"
     d="m 446.36331,541.34004 c 0,-0.67908 0.57922,-1.25831 1.25831,-1.25831 h 5.01327 c 0.67909,0 1.23834,0.57923 1.23834,1.25831 v 8.84812 c 0,0.67909 -0.55925,1.23834 -1.23834,1.23834 h -5.01327 c -0.67909,0 -1.25831,-0.55925 -1.25831,-1.23834 z"
     style="fill:#000000;fill-opacity:1;fill-rule:evenodd;stroke:none" />
  <path
     id="path1132"
     d="m 484.07267,541.49983 c 0,-0.67909 0.57922,-1.25831 1.25831,-1.25831 h 5.01327 c 0.67909,0 1.23834,0.57922 1.23834,1.25831 v 8.68833 c 0,0.67909 -0.55925,1.23834 -1.23834,1.23834 h -5.01327 c -0.67909,0 -1.25831,-0.55925 -1.25831,-1.23834 z"
     style="fill:#000000;fill-opacity:1;fill-rule:evenodd;stroke:none" />
  <path
     id="path1134"
     d="m 446.36331,532.97128 c 0,-2.05724 1.69772,-3.75496 3.75496,-3.75496 2.07721,0 3.75496,1.69772 3.75496,3.75496 0,2.07721 -1.67775,3.75496 -3.75496,3.75496 -2.05724,0 -3.75496,-1.67775 -3.75496,-3.75496 z"
     style="fill:#ffffff;fill-opacity:1;fill-rule:evenodd;stroke:none" />
  <path
     id="path1136"
     d="m 484.07267,532.97128 c 0,-2.05724 1.69772,-3.75496 3.75496,-3.75496 2.07721,0 3.75496,1.69772 3.75496,3.75496 0,2.07721 -1.67775,3.75496 -3.75496,3.75496 -2.05724,0 -3.75496,-1.67775 -3.75496,-3.75496 z"
     style="fill:#ffffff;fill-opacity:1;fill-rule:evenodd;stroke:none" />
  <path
     id="path1138"
     d="m 499.65175,502.77184 5.67239,-22.68954 h 39.62678 l 5.67239,22.68954 z"
     style="fill:#ffffff;fill-opacity:1;fill-rule:evenodd;stroke:none" />
  <path
     id="path1140"
     d="m 499.65175,502.77184 5.67239,-22.68954 h 39.62678 l 5.67239,22.68954 z"
     style="fill:none;stroke:#000000;stroke-width:2.07721066px;stroke-linecap:butt;stroke-linejoin:miter;stroke-miterlimit:8;stroke-dasharray:none;stroke-opacity:1" />
  <path
     id="path1142"
     d="m 498.69304,497.97827 c 0,-1.75764 1.43807,-3.19571 3.19571,-3.19571 h 46.53751 c 1.75764,0 3.15576,1.43807 3.15576,3.19571 v 12.663 c 0,1.75764 -1.39812,3.15576 -3.15576,3.15576 h -46.53751 c -1.75764,0 -3.19571,-1.39812 -3.19571,-3.15576 z"
     style="fill:#000000;fill-opacity:1;fill-rule:evenodd;stroke:none" />
  <path
     id="path1144"
     d="m 498.69304,497.97827 c 0,-1.75764 1.43807,-3.19571 3.19571,-3.19571 h 46.53751 c 1.75764,0 3.15576,1.43807 3.15576,3.19571 v 12.663 c 0,1.75764 -1.39812,3.15576 -3.15576,3.15576 h -46.53751 c -1.75764,0 -3.19571,-1.39812 -3.19571,-3.15576 z"
     style="fill:none;stroke:#000000;stroke-width:2.07721066px;stroke-linecap:butt;stroke-linejoin:miter;stroke-miterlimit:8;stroke-dasharray:none;stroke-opacity:1" />
  <path
     id="path1146"
     d="m 502.448,512.89824 c 0,-0.67909 0.57922,-1.25831 1.25831,-1.25831 h 5.01327 c 0.67908,0 1.23833,0.57922 1.23833,1.25831 v 8.84812 c 0,0.67908 -0.55925,1.23833 -1.23833,1.23833 h -5.01327 c -0.67909,0 -1.25831,-0.55925 -1.25831,-1.23833 z"
     style="fill:#000000;fill-opacity:1;fill-rule:evenodd;stroke:none" />
  <path
     id="path1148"
     d="m 540.15736,512.91821 c 0,-0.71903 0.55925,-1.27828 1.27828,-1.27828 h 4.9933 c 0.67909,0 1.23834,0.55925 1.23834,1.27828 v 8.82815 c 0,0.67908 -0.55925,1.23833 -1.23834,1.23833 h -4.9933 c -0.71903,0 -1.27828,-0.55925 -1.27828,-1.23833 z"
     style="fill:#000000;fill-opacity:1;fill-rule:evenodd;stroke:none" />
  <path
     id="path1150"
     d="m 502.448,504.52948 c 0,-2.05724 1.69772,-3.75496 3.75496,-3.75496 2.07721,0 3.75495,1.69772 3.75495,3.75496 0,2.07721 -1.67774,3.75495 -3.75495,3.75495 -2.05724,0 -3.75496,-1.67774 -3.75496,-3.75495 z"
     style="fill:#ffffff;fill-opacity:1;fill-rule:evenodd;stroke:none" />
  <path
     id="path1152"
     d="m 540.15736,504.52948 c 0,-2.03727 1.71769,-3.75496 3.75496,-3.75496 2.07721,0 3.75496,1.71769 3.75496,3.75496 0,2.07721 -1.67775,3.75495 -3.75496,3.75495 -2.03727,0 -3.75496,-1.67774 -3.75496,-3.75495 z"
     style="fill:#ffffff;fill-opacity:1;fill-rule:evenodd;stroke:none" />
  <path
     id="path1154"
     d="m 555.41687,531.21364 5.67238,-22.68953 h 39.467 l 5.67239,22.68953 z"
     style="fill:#ffffff;fill-opacity:1;fill-rule:evenodd;stroke:none" />
  <path
     id="path1156"
     d="m 555.41687,531.21364 5.67238,-22.68953 h 39.467 l 5.67239,22.68953 z"
     style="fill:none;stroke:#000000;stroke-width:2.07721066px;stroke-linecap:butt;stroke-linejoin:miter;stroke-miterlimit:8;stroke-dasharray:none;stroke-opacity:1" />
  <path
     id="path1158"
     d="m 554.45816,526.53992 c 0,-1.71769 1.43807,-3.15576 3.15576,-3.15576 h 46.45761 c 1.7177,0 3.11582,1.43807 3.11582,3.15576 v 12.5831 c 0,1.7177 -1.39812,3.11582 -3.11582,3.11582 h -46.45761 c -1.71769,0 -3.15576,-1.39812 -3.15576,-3.11582 z"
     style="fill:#000000;fill-opacity:1;fill-rule:evenodd;stroke:none" />
  <path
     id="path1160"
     d="m 554.45816,526.53992 c 0,-1.71769 1.43807,-3.15576 3.15576,-3.15576 h 46.45761 c 1.7177,0 3.11582,1.43807 3.11582,3.15576 v 12.5831 c 0,1.7177 -1.39812,3.11582 -3.11582,3.11582 h -46.45761 c -1.71769,0 -3.15576,-1.39812 -3.15576,-3.11582 z"
     style="fill:none;stroke:#000000;stroke-width:2.07721066px;stroke-linecap:butt;stroke-linejoin:miter;stroke-miterlimit:8;stroke-dasharray:none;stroke-opacity:1" />
  <path
     id="path1162"
     d="m 558.05333,541.36002 c 0,-0.67909 0.59919,-1.27829 1.27828,-1.27829 h 5.11314 c 0.71903,0 1.27828,0.5992 1.27828,1.27829 v 8.7882 c 0,0.71903 -0.55925,1.27828 -1.27828,1.27828 h -5.11314 c -0.67909,0 -1.27828,-0.55925 -1.27828,-1.27828 z"
     style="fill:#000000;fill-opacity:1;fill-rule:evenodd;stroke:none" />
  <path
     id="path1164"
     d="m 595.92248,541.5198 c 0,-0.71903 0.55925,-1.27828 1.27828,-1.27828 h 4.99329 c 0.67909,0 1.23834,0.55925 1.23834,1.27828 v 8.66836 c 0,0.67909 -0.55925,1.23834 -1.23834,1.23834 h -4.99329 c -0.71903,0 -1.27828,-0.55925 -1.27828,-1.23834 z"
     style="fill:#000000;fill-opacity:1;fill-rule:evenodd;stroke:none" />
  <path
     id="path1166"
     d="m 558.05333,532.97128 c 0,-2.03726 1.71769,-3.75496 3.83485,-3.75496 2.11716,0 3.83485,1.7177 3.83485,3.75496 0,2.07721 -1.71769,3.75496 -3.83485,3.75496 -2.11716,0 -3.83485,-1.67775 -3.83485,-3.75496 z"
     style="fill:#ffffff;fill-opacity:1;fill-rule:evenodd;stroke:none" />
  <path
     id="path1168"
     d="m 595.92248,532.97128 c 0,-2.03726 1.71769,-3.75496 3.75495,-3.75496 2.07721,0 3.75496,1.7177 3.75496,3.75496 0,2.07721 -1.67775,3.75496 -3.75496,3.75496 -2.03726,0 -3.75495,-1.67775 -3.75495,-3.75496 z"
     style="fill:#ffffff;fill-opacity:1;fill-rule:evenodd;stroke:none" />
  <text
     id="text1174"
     y="585.60938"
     x="475.29074"
     style="font-style:normal;font-variant:normal;font-weight:700;font-size:21.25px;line-height:125%;font-family:Lato;text-align:start;letter-spacing:0px;word-spacing:0px;text-anchor:start;fill:#000000;fill-opacity:1;stroke:none"
     xml:space="preserve"><tspan
       id="tspan1172"
       y="585.60938"
       x="475.29074"><tspan
         id="tspan1170"
         style="font-style:normal;font-variant:normal;font-weight:700;font-size:21.25px;font-family:Lato;fill:#000000"
         dy="0"
         dx="0">Partition 2</tspan></tspan></text>
  <path
     id="path1176"
     d="m 130.22783,531.21364 5.67238,-22.68953 H 175.527 l 5.67238,22.68953 z"
     style="fill:#ffffff;fill-opacity:1;fill-rule:evenodd;stroke:none" />
  <path
     id="path1178"
     d="m 130.22783,531.21364 5.67238,-22.68953 H 175.527 l 5.67238,22.68953 z"
     style="fill:none;stroke:#000000;stroke-width:2.07721066px;stroke-linecap:butt;stroke-linejoin:miter;stroke-miterlimit:8;stroke-dasharray:none;stroke-opacity:1" />
  <path
     id="path1180"
     d="m 129.4289,526.53992 c 0,-1.73767 1.4181,-3.15576 3.15576,-3.15576 h 46.43765 c 1.73766,0 3.13578,1.41809 3.13578,3.15576 v 12.56313 c 0,1.73767 -1.39812,3.13579 -3.13578,3.13579 h -46.43765 c -1.73766,0 -3.15576,-1.39812 -3.15576,-3.13579 z"
     style="fill:#000000;fill-opacity:1;fill-rule:evenodd;stroke:none" />
  <path
     id="path1182"
     d="m 129.4289,526.53992 c 0,-1.73767 1.4181,-3.15576 3.15576,-3.15576 h 46.43765 c 1.73766,0 3.13578,1.41809 3.13578,3.15576 v 12.56313 c 0,1.73767 -1.39812,3.13579 -3.13578,3.13579 h -46.43765 c -1.73766,0 -3.15576,-1.39812 -3.15576,-3.13579 z"
     style="fill:none;stroke:#000000;stroke-width:2.07721066px;stroke-linecap:butt;stroke-linejoin:miter;stroke-miterlimit:8;stroke-dasharray:none;stroke-opacity:1" />
  <path
     id="path1184"
     d="m 133.02407,541.34004 c 0,-0.67908 0.57923,-1.25831 1.25831,-1.25831 h 5.01327 c 0.67909,0 1.23834,0.57923 1.23834,1.25831 v 8.84812 c 0,0.67909 -0.55925,1.23834 -1.23834,1.23834 h -5.01327 c -0.67908,0 -1.25831,-0.55925 -1.25831,-1.23834 z"
     style="fill:#000000;fill-opacity:1;fill-rule:evenodd;stroke:none" />
  <path
     id="path1186"
     d="m 170.73344,541.5198 c 0,-0.69906 0.57922,-1.27828 1.27828,-1.27828 h 5.11313 c 0.71904,0 1.27829,0.57922 1.27829,1.27828 v 8.62842 c 0,0.71903 -0.55925,1.27828 -1.27829,1.27828 h -5.11313 c -0.69906,0 -1.27828,-0.55925 -1.27828,-1.27828 z"
     style="fill:#000000;fill-opacity:1;fill-rule:evenodd;stroke:none" />
  <path
     id="path1188"
     d="m 133.02407,532.97128 c 0,-2.05724 1.69772,-3.75496 3.75496,-3.75496 2.07721,0 3.75496,1.69772 3.75496,3.75496 0,2.07721 -1.67775,3.75496 -3.75496,3.75496 -2.05724,0 -3.75496,-1.67775 -3.75496,-3.75496 z"
     style="fill:#ffffff;fill-opacity:1;fill-rule:evenodd;stroke:none" />
  <path
     id="path1190"
     d="m 170.73344,532.97128 c 0,-2.05724 1.71769,-3.75496 3.83485,-3.75496 2.13713,0 3.83485,1.69772 3.83485,3.75496 0,2.07721 -1.69772,3.75496 -3.83485,3.75496 -2.11716,0 -3.83485,-1.67775 -3.83485,-3.75496 z"
     style="fill:#ffffff;fill-opacity:1;fill-rule:evenodd;stroke:none" />
  <path
     id="path1192"
     d="m 186.31252,502.77184 5.67238,-22.68954 h 39.62679 l 5.67238,22.68954 z"
     style="fill:#ffffff;fill-opacity:1;fill-rule:evenodd;stroke:none" />
  <path
     id="path1194"
     d="m 186.31252,502.77184 5.67238,-22.68954 h 39.62679 l 5.67238,22.68954 z"
     style="fill:none;stroke:#000000;stroke-width:2.07721066px;stroke-linecap:butt;stroke-linejoin:miter;stroke-miterlimit:8;stroke-dasharray:none;stroke-opacity:1" />
  <path
     id="path1196"
     d="m 185.3538,497.9583 c 0,-1.73767 1.43807,-3.17574 3.17574,-3.17574 h 46.55748 c 1.73767,0 3.15576,1.43807 3.15576,3.17574 v 12.68297 c 0,1.73766 -1.41809,3.15576 -3.15576,3.15576 h -46.55748 c -1.73767,0 -3.17574,-1.4181 -3.17574,-3.15576 z"
     style="fill:#000000;fill-opacity:1;fill-rule:evenodd;stroke:none" />
  <path
     id="path1198"
     d="m 185.3538,497.9583 c 0,-1.73767 1.43807,-3.17574 3.17574,-3.17574 h 46.55748 c 1.73767,0 3.15576,1.43807 3.15576,3.17574 v 12.68297 c 0,1.73766 -1.41809,3.15576 -3.15576,3.15576 h -46.55748 c -1.73767,0 -3.17574,-1.4181 -3.17574,-3.15576 z"
     style="fill:none;stroke:#000000;stroke-width:2.07721066px;stroke-linecap:butt;stroke-linejoin:miter;stroke-miterlimit:8;stroke-dasharray:none;stroke-opacity:1" />
  <path
     id="path1200"
     d="m 189.10876,512.89824 c 0,-0.67909 0.57922,-1.25831 1.25831,-1.25831 h 5.01327 c 0.67909,0 1.23834,0.57922 1.23834,1.25831 v 8.84812 c 0,0.67908 -0.55925,1.23833 -1.23834,1.23833 h -5.01327 c -0.67909,0 -1.25831,-0.55925 -1.25831,-1.23833 z"
     style="fill:#000000;fill-opacity:1;fill-rule:evenodd;stroke:none" />
  <path
     id="path1202"
     d="m 226.81812,512.89824 c 0,-0.67909 0.57923,-1.25831 1.25831,-1.25831 h 5.01327 c 0.67909,0 1.23834,0.57922 1.23834,1.25831 v 8.84812 c 0,0.67908 -0.55925,1.23833 -1.23834,1.23833 h -5.01327 c -0.67908,0 -1.25831,-0.55925 -1.25831,-1.23833 z"
     style="fill:#000000;fill-opacity:1;fill-rule:evenodd;stroke:none" />
  <path
     id="path1204"
     d="m 189.10876,504.52948 c 0,-2.05724 1.69772,-3.75496 3.75496,-3.75496 2.07721,0 3.75496,1.69772 3.75496,3.75496 0,2.07721 -1.67775,3.75495 -3.75496,3.75495 -2.05724,0 -3.75496,-1.67774 -3.75496,-3.75495 z"
     style="fill:#ffffff;fill-opacity:1;fill-rule:evenodd;stroke:none" />
  <path
     id="path1206"
     d="m 226.81812,504.52948 c 0,-2.05724 1.69772,-3.75496 3.75496,-3.75496 2.07721,0 3.75496,1.69772 3.75496,3.75496 0,2.07721 -1.67775,3.75495 -3.75496,3.75495 -2.05724,0 -3.75496,-1.67774 -3.75496,-3.75495 z"
     style="fill:#ffffff;fill-opacity:1;fill-rule:evenodd;stroke:none" />
  <path
     id="path1208"
     d="m 242.07763,531.21364 5.67239,-22.68953 h 39.62678 l 5.67239,22.68953 z"
     style="fill:#ffffff;fill-opacity:1;fill-rule:evenodd;stroke:none" />
  <path
     id="path1210"
     d="m 242.07763,531.21364 5.67239,-22.68953 h 39.62678 l 5.67239,22.68953 z"
     style="fill:none;stroke:#000000;stroke-width:2.07721066px;stroke-linecap:butt;stroke-linejoin:miter;stroke-miterlimit:8;stroke-dasharray:none;stroke-opacity:1" />
  <path
     id="path1212"
     d="m 241.11892,526.53992 c 0,-1.73767 1.4181,-3.15576 3.15576,-3.15576 h 46.59743 c 1.73767,0 3.13579,1.41809 3.13579,3.15576 v 12.56313 c 0,1.73767 -1.39812,3.13579 -3.13579,3.13579 h -46.59743 c -1.73766,0 -3.15576,-1.39812 -3.15576,-3.13579 z"
     style="fill:#000000;fill-opacity:1;fill-rule:evenodd;stroke:none" />
  <path
     id="path1214"
     d="m 241.11892,526.53992 c 0,-1.73767 1.4181,-3.15576 3.15576,-3.15576 h 46.59743 c 1.73767,0 3.13579,1.41809 3.13579,3.15576 v 12.56313 c 0,1.73767 -1.39812,3.13579 -3.13579,3.13579 h -46.59743 c -1.73766,0 -3.15576,-1.39812 -3.15576,-3.13579 z"
     style="fill:none;stroke:#000000;stroke-width:2.07721066px;stroke-linecap:butt;stroke-linejoin:miter;stroke-miterlimit:8;stroke-dasharray:none;stroke-opacity:1" />
  <path
     id="path1216"
     d="m 244.87388,541.34004 c 0,-0.67908 0.57922,-1.25831 1.25831,-1.25831 h 5.01327 c 0.67908,0 1.23833,0.57923 1.23833,1.25831 v 8.84812 c 0,0.67909 -0.55925,1.23834 -1.23833,1.23834 h -5.01327 c -0.67909,0 -1.25831,-0.55925 -1.25831,-1.23834 z"
     style="fill:#000000;fill-opacity:1;fill-rule:evenodd;stroke:none" />
  <path
     id="path1218"
     d="m 282.58324,541.49983 c 0,-0.67909 0.57922,-1.25831 1.25831,-1.25831 h 5.01327 c 0.67909,0 1.23834,0.57922 1.23834,1.25831 v 8.68833 c 0,0.67909 -0.55925,1.23834 -1.23834,1.23834 h -5.01327 c -0.67909,0 -1.25831,-0.55925 -1.25831,-1.23834 z"
     style="fill:#000000;fill-opacity:1;fill-rule:evenodd;stroke:none" />
  <path
     id="path1220"
     d="m 244.87388,532.97128 c 0,-2.05724 1.69772,-3.75496 3.75496,-3.75496 2.07721,0 3.75495,1.69772 3.75495,3.75496 0,2.07721 -1.67774,3.75496 -3.75495,3.75496 -2.05724,0 -3.75496,-1.67775 -3.75496,-3.75496 z"
     style="fill:#ffffff;fill-opacity:1;fill-rule:evenodd;stroke:none" />
  <path
     id="path1222"
     d="m 282.58324,532.97128 c 0,-2.05724 1.69772,-3.75496 3.75496,-3.75496 2.07721,0 3.75496,1.69772 3.75496,3.75496 0,2.07721 -1.67775,3.75496 -3.75496,3.75496 -2.05724,0 -3.75496,-1.67775 -3.75496,-3.75496 z"
     style="fill:#ffffff;fill-opacity:1;fill-rule:evenodd;stroke:none" />
  <text
     id="text1228"
     y="585.60938"
     x="162.16721"
     style="font-style:normal;font-variant:normal;font-weight:700;font-size:21.25px;line-height:125%;font-family:Lato;text-align:start;letter-spacing:0px;word-spacing:0px;text-anchor:start;fill:#000000;fill-opacity:1;stroke:none"
     xml:space="preserve"><tspan
       id="tspan1226"
       y="585.60938"
       x="162.16721"><tspan
         id="tspan1224"
         style="font-style:normal;font-variant:normal;font-weight:700;font-size:21.25px;font-family:Lato;fill:#000000"
         dy="0"
         dx="0">Partition 1</tspan></tspan></text>
  <path
     id="path1230"
     d="m 341.70385,118.0884 v 60.319 H 335.632 v -60.319 z m 6.07185,57.28308 -9.10777,18.21554 -9.10777,-18.21554 z"
     style="fill:#000000;fill-opacity:1;fill-rule:nonzero;stroke:#000000;stroke-width:0.01997318px;stroke-linecap:butt;stroke-linejoin:round;stroke-miterlimit:4;stroke-dasharray:none;stroke-opacity:1" />
  <text
     id="text1236"
     y="151.40083"
     x="198.33563"
     style="font-style:normal;font-variant:normal;font-weight:700;font-size:21.25px;line-height:125%;font-family:Lato;text-align:start;letter-spacing:0px;word-spacing:0px;text-anchor:start;fill:#000000;fill-opacity:1;stroke:none"
     xml:space="preserve"><tspan
       id="tspan1234"
       y="151.40083"
       x="198.33563"><tspan
         id="tspan1232"
         style="font-style:normal;font-variant:normal;font-weight:700;font-size:21.25px;font-family:Lato;fill:#000000"
         dy="0"
         dx="0">Job </tspan></tspan></text>
  <text
     id="text1242"
     y="151.40083"
     x="237.16348"
     style="font-style:normal;font-variant:normal;font-weight:700;font-size:21.25px;line-height:125%;font-family:Lato;text-align:start;letter-spacing:0px;word-spacing:0px;text-anchor:start;fill:#000000;fill-opacity:1;stroke:none"
     xml:space="preserve"><tspan
       id="tspan1240"
       y="151.40083"
       x="237.16348"><tspan
         id="tspan1238"
         style="font-style:normal;font-variant:normal;font-weight:700;font-size:21.25px;font-family:Lato;fill:#000000"
         dy="0"
         dx="0">Request</tspan></tspan></text>
  <text
     id="text1248"
     y="176.96651"
     x="257.77582"
     style="font-style:normal;font-variant:normal;font-weight:700;font-size:21.25px;line-height:125%;font-family:Lato;text-align:start;letter-spacing:0px;word-spacing:0px;text-anchor:start;fill:#000000;fill-opacity:1;stroke:none"
     xml:space="preserve"><tspan
       id="tspan1246"
       y="176.96651"
       x="257.77582"><tspan
         id="tspan1244"
         style="font-style:normal;font-variant:normal;font-weight:700;font-size:21.25px;font-family:Lato;fill:#7f7f7f"
         dy="0"
         dx="0">job_id</tspan></tspan></text>
  <path
     id="path1250"
     d="m 398.26789,193.58702 v -60.319 h -6.07184 v 60.319 z m 6.07185,-57.28308 -9.10777,-18.21554 -9.10777,18.21554 z"
     style="fill:#000000;fill-opacity:1;fill-rule:nonzero;stroke:#000000;stroke-width:0.01997318px;stroke-linecap:butt;stroke-linejoin:round;stroke-miterlimit:4;stroke-dasharray:none;stroke-opacity:1" />
  <text
     id="text1256"
     y="151.40083"
     x="418.55685"
     style="font-style:normal;font-variant:normal;font-weight:700;font-size:21.25px;line-height:125%;font-family:Arial;text-align:start;letter-spacing:0px;word-spacing:0px;text-anchor:start;fill:#000000;fill-opacity:1;stroke:none"
     xml:space="preserve"><tspan
       id="tspan1254"
       y="151.40083"
       x="418.55685"><tspan
         id="tspan1252"
         style="font-style:normal;font-variant:normal;font-weight:700;font-size:21.25px;font-family:Arial;fill:#000000"
         dy="0"
         dx="0">Data</tspan></tspan></text>
  <text
     id="text1262"
     y="176.96651"
     x="418.55685"
     style="font-style:normal;font-variant:normal;font-weight:700;font-size:21.25px;line-height:125%;font-family:Arial;text-align:start;letter-spacing:0px;word-spacing:0px;text-anchor:start;fill:#000000;fill-opacity:1;stroke:none"
     xml:space="preserve"><tspan
       id="tspan1260"
       y="176.96651"
       x="418.55685"><tspan
         id="tspan1258"
         style="font-style:normal;font-variant:normal;font-weight:700;font-size:21.25px;font-family:Arial;fill:#7f7f7f"
         dy="0"
         dx="0">job_id</tspan></tspan></text>
  <path
     transform="translate(0.00269825,-9.0209144)"
     id="path1264"
     d="m 277.08792,42.383086 c -2.63646,-11.404685 10.92532,-21.93055 30.31928,-23.488458 7.84946,-0.619169 15.83873,0.31957 22.66956,2.676406 7.25026,-8.049192 24.18752,-11.105088 37.8292,-6.830828 2.37681,0.739008 4.57386,1.697721 6.49129,2.816219 5.6524,-6.671042 19.39395,-9.3873947 30.71874,-6.051874 3.11582,0.918767 5.85215,2.236996 7.9693,3.89477 9.10777,-6.3115244 25.18618,-7.0904784 35.91178,-1.75764 4.51394,2.25697 7.54986,5.352812 8.60844,8.768226 14.89999,2.396782 23.68819,11.484578 19.63364,20.29275 -0.33955,0.739008 -0.77896,1.458042 -1.27829,2.157104 11.94396,9.167689 9.02788,22.330014 -6.5512,29.360573 -4.83351,2.19705 -10.56581,3.615146 -16.59771,4.134448 -0.13982,9.866751 -13.84142,17.796103 -30.59891,17.71621 -5.59249,-0.01997 -11.06514,-0.958712 -15.81876,-2.716352 -5.67238,11.06514 -25.42586,17.31675 -44.1607,13.96125 -7.82949,-1.39812 -14.62037,-4.35415 -19.17425,-8.388733 -19.15428,6.810853 -44.04086,3.155763 -55.56539,-8.189004 -0.13981,-0.139812 -0.27962,-0.279624 -0.41943,-0.419436 -12.54316,0.858846 -23.9079,-4.414073 -25.38592,-11.784176 -0.77895,-3.934716 1.4181,-7.869433 6.01193,-10.765544 -10.84543,-3.754957 -14.50053,-12.023854 -8.14906,-18.475191 3.67507,-3.695038 10.10643,-6.151739 17.33672,-6.591149 z"
     clip-path="url(#clipEmfPath1)"
     style="fill:#ffffff;fill-opacity:1;fill-rule:evenodd;stroke:none" />
  <path
     transform="translate(0.00269825,-9.0209144)"
     id="path1266"
     d="m 277.08792,42.383086 c -2.63646,-11.404685 10.92532,-21.93055 30.31928,-23.488458 7.84946,-0.619169 15.83873,0.31957 22.66956,2.676406 7.25026,-8.049192 24.18752,-11.105088 37.8292,-6.830828 2.37681,0.739008 4.57386,1.697721 6.49129,2.816219 5.6524,-6.671042 19.39395,-9.3873947 30.71874,-6.051874 3.11582,0.918767 5.85215,2.236996 7.9693,3.89477 9.10777,-6.3115244 25.18618,-7.0904784 35.91178,-1.75764 4.51394,2.25697 7.54986,5.352812 8.60844,8.768226 14.89999,2.396782 23.68819,11.484578 19.63364,20.29275 -0.33955,0.739008 -0.77896,1.458042 -1.27829,2.157104 11.94396,9.167689 9.02788,22.330014 -6.5512,29.360573 -4.83351,2.19705 -10.56581,3.615146 -16.59771,4.134448 -0.13982,9.866751 -13.84142,17.796103 -30.59891,17.71621 -5.59249,-0.01997 -11.06514,-0.958712 -15.81876,-2.716352 -5.67238,11.06514 -25.42586,17.31675 -44.1607,13.96125 -7.82949,-1.39812 -14.62037,-4.35415 -19.17425,-8.388733 -19.15428,6.810853 -44.04086,3.155763 -55.56539,-8.189004 -0.13981,-0.139812 -0.27962,-0.279624 -0.41943,-0.419436 -12.54316,0.858846 -23.9079,-4.414073 -25.38592,-11.784176 -0.77895,-3.934716 1.4181,-7.869433 6.01193,-10.765544 -10.84543,-3.754957 -14.50053,-12.023854 -8.14906,-18.475191 3.67507,-3.695038 10.10643,-6.151739 17.33672,-6.591149 z"
     clip-path="url(#clipEmfPath1)"
     style="fill:none;stroke:#000000;stroke-width:2.07721066px;stroke-linecap:butt;stroke-linejoin:miter;stroke-miterlimit:8;stroke-dasharray:none;stroke-opacity:1" />
  <path
     transform="translate(0.00269825,-9.0209144)"
     id="path1268"
     d="m 281.24234,69.207066 c -4.63378,0.219705 -9.26756,-0.419437 -13.28217,-1.817559 m 25.00642,21.630953 c -1.87748,0.43941 -3.81487,0.719034 -5.81219,0.858847 m 55.88495,8.648386 c -1.39812,-1.238337 -2.57654,-2.556567 -3.4953,-3.954689 m 68.26832,-5.892088 c -0.19973,1.458042 -0.67908,2.916084 -1.39812,4.33418 m 29.20079,-31.138187 c 10.52587,3.01595 17.15696,9.327475 17.05709,16.218222 m 23.16889,-33.475049 c -1.69772,2.356836 -4.29423,4.434046 -7.58981,6.09182 M 457.62548,22.070363 c 0.2996,0.958713 0.41944,1.917425 0.39947,2.876138 M 409.1306,18.734842 c 0.99866,-1.31823 2.29692,-2.556567 3.89477,-3.655092 m -40.26593,5.392759 c 0.39947,-1.098525 1.01864,-2.157104 1.87748,-3.155763 m -44.58013,4.234314 c 2.47667,0.858847 4.75361,1.877479 6.81085,3.055897 m -58.60131,21.011784 c -0.53927,-1.058578 -0.93874,-2.13713 -1.17841,-3.235655"
     clip-path="url(#clipEmfPath1)"
     style="fill:none;stroke:#000000;stroke-width:2.07721066px;stroke-linecap:butt;stroke-linejoin:miter;stroke-miterlimit:8;stroke-dasharray:none;stroke-opacity:1" />
  <path
     id="path1270"
     d="m 419.51936,50.49916 v 15.179616 h 37.70936 V 50.49916 Z"
     style="fill:#ffffff;fill-opacity:1;fill-rule:evenodd;stroke:none" />
  <text
     id="text1276"
     y="58.909496"
     x="296.63095"
     style="font-style:normal;font-variant:normal;font-weight:700;font-size:23.9375px;line-height:125%;font-family:Lato;text-align:start;letter-spacing:0px;word-spacing:0px;text-anchor:start;fill:#000000;fill-opacity:1;stroke:none"
     xml:space="preserve"><tspan
       id="tspan1274"
       y="58.909496"
       x="296.63095"><tspan
         id="tspan1272"
         style="font-style:normal;font-variant:normal;font-weight:700;font-size:23.9375px;font-family:Lato;fill:#000000"
         dy="0"
         dx="0">Service Cloud</tspan></tspan></text>
  <path
     id="path1278"
     d="m 277.09062,245.55723 c -2.63646,-11.40468 10.92532,-21.93055 30.31928,-23.48846 7.84946,-0.61916 15.83873,0.31957 22.66956,2.67641 7.25026,-8.04919 24.18752,-11.10509 37.8292,-6.83083 2.37681,0.73901 4.57386,1.69772 6.49129,2.81622 5.6524,-6.67104 19.39395,-9.38739 30.71874,-6.05187 3.11582,0.91876 5.85215,2.23699 7.9693,3.89477 9.10777,-6.31153 25.18618,-7.09048 35.91178,-1.75764 4.51394,2.25697 7.54986,5.35281 8.60844,8.76822 14.89999,2.39679 23.68819,11.48458 19.63364,20.29275 -0.33955,0.73901 -0.77896,1.45805 -1.27829,2.15711 11.94396,9.16769 9.02788,22.33001 -6.5512,29.36057 -4.83351,2.19705 -10.56581,3.61515 -16.59771,4.13445 -0.13982,9.86675 -13.84142,17.7961 -30.59891,17.71621 -5.59249,-0.02 -11.06514,-0.95871 -15.81876,-2.71635 -5.67238,11.06514 -25.42586,17.31674 -44.1607,13.96125 -7.82949,-1.39812 -14.62037,-4.35415 -19.17425,-8.38874 -19.15428,6.81086 -44.04086,3.15577 -55.56539,-8.189 -0.13981,-0.13981 -0.27962,-0.27962 -0.41943,-0.41944 -12.54316,0.85885 -23.9079,-4.41407 -25.38592,-11.78417 -0.77895,-3.93472 1.4181,-7.86944 6.01193,-10.76555 -10.84543,-3.75495 -14.50053,-12.02385 -8.14906,-18.47519 3.67507,-3.69504 10.10643,-6.15174 17.33672,-6.59115 z"
     style="fill:#ffffff;fill-opacity:1;fill-rule:evenodd;stroke:none" />
  <path
     id="path1280"
     d="m 277.09062,245.55723 c -2.63646,-11.40468 10.92532,-21.93055 30.31928,-23.48846 7.84946,-0.61916 15.83873,0.31957 22.66956,2.67641 7.25026,-8.04919 24.18752,-11.10509 37.8292,-6.83083 2.37681,0.73901 4.57386,1.69772 6.49129,2.81622 5.6524,-6.67104 19.39395,-9.38739 30.71874,-6.05187 3.11582,0.91876 5.85215,2.23699 7.9693,3.89477 9.10777,-6.31153 25.18618,-7.09048 35.91178,-1.75764 4.51394,2.25697 7.54986,5.35281 8.60844,8.76822 14.89999,2.39679 23.68819,11.48458 19.63364,20.29275 -0.33955,0.73901 -0.77896,1.45805 -1.27829,2.15711 11.94396,9.16769 9.02788,22.33001 -6.5512,29.36057 -4.83351,2.19705 -10.56581,3.61515 -16.59771,4.13445 -0.13982,9.86675 -13.84142,17.7961 -30.59891,17.71621 -5.59249,-0.02 -11.06514,-0.95871 -15.81876,-2.71635 -5.67238,11.06514 -25.42586,17.31674 -44.1607,13.96125 -7.82949,-1.39812 -14.62037,-4.35415 -19.17425,-8.38874 -19.15428,6.81086 -44.04086,3.15577 -55.56539,-8.189 -0.13981,-0.13981 -0.27962,-0.27962 -0.41943,-0.41944 -12.54316,0.85885 -23.9079,-4.41407 -25.38592,-11.78417 -0.77895,-3.93472 1.4181,-7.86944 6.01193,-10.76555 -10.84543,-3.75495 -14.50053,-12.02385 -8.14906,-18.47519 3.67507,-3.69504 10.10643,-6.15174 17.33672,-6.59115 z"
     style="fill:none;stroke:#000000;stroke-width:2.07721066px;stroke-linecap:butt;stroke-linejoin:miter;stroke-miterlimit:8;stroke-dasharray:none;stroke-opacity:1" />
  <path
     id="path1282"
     d="m 281.24504,272.38121 c -4.63378,0.21971 -9.26756,-0.41943 -13.28217,-1.81756 m 25.00642,21.63096 c -1.87748,0.43941 -3.81487,0.71903 -5.81219,0.85884 m 55.88495,8.64839 c -1.39812,-1.23834 -2.57654,-2.55657 -3.4953,-3.95469 m 68.26832,-5.89209 c -0.19973,1.45804 -0.67908,2.91609 -1.39812,4.33418 m 29.20079,-31.13818 c 10.52587,3.01595 17.15696,9.32747 17.05709,16.21822 m 23.16889,-33.47505 c -1.69772,2.35683 -4.29423,4.43404 -7.58981,6.09182 m -10.62573,-28.64154 c 0.2996,0.95871 0.41944,1.91742 0.39947,2.87614 m -48.89435,-6.21166 c 0.99866,-1.31823 2.29692,-2.55657 3.89477,-3.65509 m -40.26593,5.39276 c 0.39947,-1.09853 1.01864,-2.15711 1.87748,-3.15577 m -44.58013,4.23432 c 2.47667,0.85884 4.75361,1.87748 6.81085,3.05589 m -58.60131,21.01179 c -0.53927,-1.05858 -0.93874,-2.13713 -1.17841,-3.23566"
     style="fill:none;stroke:#000000;stroke-width:2.07721066px;stroke-linecap:butt;stroke-linejoin:miter;stroke-miterlimit:8;stroke-dasharray:none;stroke-opacity:1" />
  <path
     id="path1284"
     d="m 419.51936,262.69422 v 15.17962 h 37.70936 v -15.17962 z"
     style="fill:#ffffff;fill-opacity:1;fill-rule:evenodd;stroke:none" />
  <text
     id="text1290"
     y="271.07791"
     x="295.96527"
     style="font-style:normal;font-variant:normal;font-weight:700;font-size:23.9375px;line-height:125%;font-family:Arial;text-align:start;letter-spacing:0px;word-spacing:0px;text-anchor:start;fill:#000000;fill-opacity:1;stroke:none"
     xml:space="preserve"><tspan
       id="tspan1288"
       y="271.07791"
       x="295.96527"><tspan
         id="tspan1286"
         style="font-style:normal;font-variant:normal;font-weight:700;font-size:23.9375px;font-family:Arial;fill:#000000"
         dy="0"
         dx="0">Vehicle Cloud</tspan></tspan></text>
  <path
     transform="translate(0.00269825,-9.0209144)"
     id="path1292"
     d="M 369.90328,466.57347 V 617.5707"
     clip-path="url(#clipEmfPath1)"
     style="fill:none;stroke:#000000;stroke-width:2.07721066px;stroke-linecap:butt;stroke-linejoin:miter;stroke-miterlimit:8;stroke-dasharray:none;stroke-opacity:1" />
</svg>
